SplineFontDB: 3.2
FontName: Unageo-Variable
FullName: Unageo Variable
FamilyName: Unageo
Weight: Variable
Copyright: Copyright 2023 The Unageo Project Authors (https://github.com/RichardSepsi/Unageo)
UComments: "2023-12-24: Created with FontForge (http://fontforge.org)"
Version: 2.2
ItalicAngle: 0
UnderlinePosition: -100
UnderlineWidth: 50
Ascent: 800
Descent: 200
InvalidEm: 0
LayerCount: 2
Layer: 0 0 "Back" 1
Layer: 1 0 "Fore" 0
XUID: [1021 442 -170519175 30473]
FSType: 0
OS2Version: 0
OS2_WeightWidthSlopeOnly: 0
OS2_UseTypoMetrics: 1
CreationTime: 1703449507
ModificationTime: 1730997498
PfmFamily: 33
TTFWeight: 900
TTFWidth: 5
LineGap: 90
VLineGap: 0
OS2TypoAscent: 950
OS2TypoAOffset: 0
OS2TypoDescent: -250
OS2TypoDOffset: 0
OS2TypoLinegap: 90
OS2WinAscent: 1010
OS2WinAOffset: 0
OS2WinDescent: 220
OS2WinDOffset: 0
HheadAscent: 950
HheadAOffset: 0
HheadDescent: -250
HheadDOffset: 0
OS2CapHeight: 700
OS2XHeight: 500
OS2Vendor: 'PfEd'
Lookup: 1 0 0 "'ss02' Style Set 2 lookup 1" { "'ss02' Style Set 2 lookup 1-1"  } ['ss02' ('DFLT' <'dflt' > 'cyrl' <'dflt' > 'grek' <'dflt' > 'latn' <'dflt' > ) ]
Lookup: 1 0 0 "'ss01' Style Set 1 lookup 1" { "'ss01' Style Set 1 lookup 1-1"  } ['ss01' ('DFLT' <'dflt' > 'cyrl' <'dflt' > 'grek' <'dflt' > 'latn' <'dflt' > ) ]
MarkAttachClasses: 1
DEI: 91125
LangName: 1033 "" "" "" "" "" "" "" "" "Richard Sepsi" "Richard Sepsi" "" "" "" "This Font Software is licensed under the SIL Open Font License, Version 1.1. This license is available with a FAQ at: https://scripts.sil.org/OFL" "http://scripts.sil.org/OFL" "" "Unageo" "Variable"
GaspTable: 1 65535 15 1
Encoding: UnicodeFull
UnicodeInterp: none
NameList: AGL For New Fonts
DisplaySize: -48
AntiAlias: 1
FitToEm: 0
WinInfo: 1113856 19 14
BeginPrivate: 7
BlueValues 23 [-12 0 500 512 700 712]
OtherBlues 11 [-200 -200]
BlueShift 1 7
StdHW 5 [170]
StdVW 5 [170]
StemSnapH 5 [170]
StemSnapV 5 [170]
EndPrivate

StartChar: A
Encoding: 65 65 0
GlifName: A_
Width: 695
Flags: W
HStem: 0 21G<10 199.996 500.882 685> 93 170<321.451 450.848> 680 20G<350.844 544.016>
LayerCount: 2
Fore
SplineSet
321.451171875 263 m 1
 450.84765625 263 l 1
 413.094726562 446.356445312 l 1
 321.451171875 263 l 1
236.482421875 93 m 1
 190 0 l 1
 10 0 l 1
 360.869140625 700 l 1
 539.869140625 700 l 1
 685 0 l 1
 505 0 l 1
 485.850585938 93 l 1
 236.482421875 93 l 1
EndSplineSet
EndChar

StartChar: B
Encoding: 66 66 1
GlifName: B_
Width: 618
Flags: W
HStem: 0 170.108<259.942 439.795> 278 170<303.956 442.172> 530 170<316.943 439.784>
LayerCount: 2
Fore
SplineSet
277.03125 278 m 1
 259.942382812 170.108398438 l 1
 384.263671875 170.108398438 l 2
 402.495117188 170.108398438 418.327148438 175.052734375 431.759765625 184.94140625 c 0
 445.192382812 194.830078125 453.189453125 207.8671875 455.752929688 224.053710938 c 0
 458.317382812 240.240234375 454.44921875 253.278320312 444.149414062 263.166992188 c 0
 433.849609375 273.055664062 419.583984375 278 401.352539062 278 c 2
 277.03125 278 l 1
316.943359375 530 m 1
 303.956054688 448 l 1
 388.956054688 448 l 2
 405.623046875 448 419.537109375 451.666992188 430.698242188 459 c 0
 441.860351562 466.333007812 448.443359375 476.333007812 450.450195312 489 c 0
 452.456054688 501.666992188 449.040039062 511.666992188 440.201171875 519 c 0
 431.36328125 526.333007812 418.610351562 530 401.943359375 530 c 2
 316.943359375 530 l 1
173.869140625 700 m 1
 448.869140625 700 l 2
 505.536132812 700 550.701171875 680 584.366210938 640 c 0
 618.030273438 600 630.375 551.666992188 621.400390625 495 c 0
 615.017578125 455.541015625 598.616210938 419.15234375 572.192382812 385.8359375 c 1
 593.90234375 365.131835938 609.336914062 340.095703125 618.494140625 310.728515625 c 0
 627.651367188 281.361328125 629.663085938 250.451171875 624.52734375 218 c 0
 615.024414062 158 585.561523438 106.666992188 536.13671875 64 c 0
 486.711914062 21.3330078125 432 0 372 0 c 2
 63 0 l 1
 173.869140625 700 l 1
EndSplineSet
EndChar

StartChar: C
Encoding: 67 67 2
GlifName: C_
Width: 664
Flags: W
HStem: -12.5 170<330.098 507.802> 541.5 170<382.116 560.516>
LayerCount: 2
Fore
SplineSet
502.473632812 711.5 m 0
 551.612304688 711.5 596.767578125 702.155273438 637.9375 683.465820312 c 0
 679.108398438 664.77734375 713.748046875 638.694335938 741.856445312 605.216796875 c 1
 602.525390625 484.935546875 l 1
 571.006835938 522.600585938 528.681640625 541.456054688 475.548828125 541.5 c 0
 422.565429688 541.5 374.348632812 522.74609375 330.899414062 485.23828125 c 0
 287.450195312 447.729492188 261.530273438 402.483398438 253.138671875 349.5 c 0
 244.747070312 296.516601562 256.333984375 251.270507812 287.901367188 213.76171875 c 0
 319.469726562 176.25390625 361.745117188 157.5 414.728515625 157.5 c 0
 467.607421875 157.514648438 515.7265625 176.185546875 559.088867188 213.51171875 c 1
 659.73046875 93.9296875 l 1
 621.182617188 60.5615234375 578.46484375 34.525390625 531.57421875 15.8212890625 c 0
 484.682617188 -2.8828125 436.759765625 -12.3232421875 387.803710938 -12.5 c 0
 284.9765625 -12.5 203.9453125 24.13671875 144.711914062 97.4111328125 c 0
 88.130859375 167.404296875 67.6064453125 251.43359375 83.138671875 349.5 c 0
 98.70703125 447.793945312 146.002929688 531.9609375 225.029296875 602 c 0
 307.39453125 675 399.876953125 711.5 502.473632812 711.5 c 0
EndSplineSet
EndChar

StartChar: D
Encoding: 68 68 3
GlifName: D_
Width: 713
Flags: W
HStem: 0 170<259.926 452.198> 530 170<316.943 502.352>
LayerCount: 2
Fore
SplineSet
418.943359375 530 m 2
 316.943359375 530 l 1
 259.92578125 170 l 1
 361.92578125 170 l 2
 411.92578125 170 457.197265625 187.5 497.740234375 222.5 c 0
 538.284179688 257.5 562.515625 300 570.434570312 350 c 0
 578.353515625 400 567.584960938 442.5 538.12890625 477.5 c 0
 508.671875 512.5 468.943359375 530 418.943359375 530 c 2
445.869140625 700 m 2
 542.536132812 700 619.625 665.833007812 677.134765625 597.5 c 0
 734.64453125 529.166992188 755.745117188 446.666992188 740.434570312 350 c 0
 725.124023438 253.333007812 677.890625 170.833007812 598.734375 102.5 c 0
 519.578125 34.1669921875 431.666992188 0 335 0 c 2
 63 0 l 1
 173.869140625 700 l 1
 445.869140625 700 l 2
EndSplineSet
EndChar

StartChar: E
Encoding: 69 69 4
GlifName: E_
Width: 592
Flags: W
HStem: 0 170<259.926 539> 266 169<301.897 510.13> 530 170<316.943 621.943>
LayerCount: 2
Fore
SplineSet
63 0 m 1
 173.869140625 700 l 1
 648.869140625 700 l 1
 621.943359375 530 l 1
 316.943359375 530 l 1
 301.897460938 435 l 1
 536.897460938 435 l 1
 510.129882812 266 l 1
 275.129882812 266 l 1
 259.92578125 170 l 1
 565.92578125 170 l 1
 539 0 l 1
 63 0 l 1
EndSplineSet
EndChar

StartChar: F
Encoding: 70 70 5
GlifName: F_
Width: 570
Flags: W
HStem: 0 21G<63 236.168> 258 170<300.788 513.863> 530 170<316.943 625.943>
VStem: 63 170<0 170>
LayerCount: 2
Fore
SplineSet
63 0 m 1
 173.869140625 700 l 1
 652.869140625 700 l 1
 625.943359375 530 l 1
 316.943359375 530 l 1
 300.788085938 428 l 1
 540.788085938 428 l 1
 513.86328125 258 l 1
 273.86328125 258 l 1
 233 0 l 1
 63 0 l 1
EndSplineSet
EndChar

StartChar: G
Encoding: 71 71 6
GlifName: G_
Width: 770
Flags: W
HStem: -12.5 170<328.546 508.47> 264.5 170<455.818 603.773> 541.5 170<383.769 561.312>
CounterMasks: 1 e0
LayerCount: 2
Fore
SplineSet
502.690429688 711.5 m 0
 550.755859375 711.5 595.528320312 702.291015625 637.006835938 683.873046875 c 0
 678.486328125 665.456054688 713.508789062 639.237304688 742.073242188 605.216796875 c 1
 602.7421875 484.935546875 l 1
 571.223632812 522.6015625 528.897460938 541.456054688 475.765625 541.5 c 0
 422.747070312 541.5 374.522460938 522.754882812 331.09375 485.264648438 c 0
 287.665039062 447.7734375 261.752929688 402.518554688 253.35546875 349.5 c 0
 244.958007812 296.481445312 256.53515625 251.2265625 288.087890625 213.735351562 c 0
 319.640625 176.245117188 361.926757812 157.5 414.9453125 157.5 c 0
 467.82421875 157.514648438 515.943359375 176.184570312 559.305664062 213.51171875 c 0
 576.297851562 228.038085938 591.120117188 245.034179688 603.7734375 264.5 c 1
 428.892578125 264.5 l 1
 455.818359375 434.5 l 1
 820.818359375 434.5 l 1
 807.35546875 349.5 l 2
 791.627929688 250.25 742.491210938 165.059570312 659.947265625 93.9296875 c 0
 620.77734375 60.0224609375 577.638671875 33.8505859375 530.534179688 15.4140625 c 0
 483.4296875 -3.0224609375 435.924804688 -12.3271484375 388.020507812 -12.5 c 0
 286.877929688 -12.5 206.680664062 23.08203125 147.427734375 94.2470703125 c 0
 88.89453125 164.545898438 67.537109375 249.629882812 83.35546875 349.5 c 0
 99.375 450.642578125 148.551757812 536.475585938 230.88671875 607 c 0
 312.219726562 676.666992188 402.8203125 711.5 502.690429688 711.5 c 0
EndSplineSet
EndChar

StartChar: H
Encoding: 72 72 7
GlifName: H_
Width: 734
Flags: W
HStem: 0 21G<63 236.168 501 674.168> 271 170<302.848 543.922> 681 20G<170.86 344.027 608.701 781.869>
VStem: 63 170<0 170> 174.027 170<531 701> 501 170<0 170> 611.869 170<530 700>
LayerCount: 2
Fore
SplineSet
63 0 m 1xf4
 174.02734375 701 l 1
 344.02734375 701 l 1
 302.84765625 441 l 1
 570.84765625 441 l 1
 611.869140625 700 l 1
 781.869140625 700 l 1xea
 671 0 l 1
 501 0 l 1
 543.921875 271 l 1
 275.921875 271 l 1
 233 0 l 1
 63 0 l 1xf4
EndSplineSet
EndChar

StartChar: I
Encoding: 73 73 8
GlifName: I_
Width: 296
Flags: W
HStem: 0 21G<63 236.168> 680 20G<170.701 343.869>
VStem: 63 170<0 170> 173.869 170<530 700>
LayerCount: 2
Fore
SplineSet
63 0 m 1xe0
 173.869140625 700 l 1
 343.869140625 700 l 1xd0
 233 0 l 1
 63 0 l 1xe0
EndSplineSet
EndChar

StartChar: J
Encoding: 74 74 9
GlifName: J_
Width: 467
Flags: W
HStem: -16 170<161.431 254.952> 680 20G<351.701 524.869>
VStem: 354.869 170<530 700>
LayerCount: 2
Fore
SplineSet
354.869140625 700 m 1
 524.869140625 700 l 1
 448.686523438 219 l 2
 438.408203125 154.106445312 406.69140625 98.716796875 353.537109375 52.830078125 c 0
 300.3828125 6.943359375 241.359375 -16 176.465820312 -16 c 0
 111.706054688 -15.7666015625 60.11328125 7.318359375 21.6884765625 53.25390625 c 1
 160.935546875 173.461914062 l 1
 171.455078125 160.587890625 185.607421875 154.100585938 203.391601562 154 c 0
 221.159179688 153.899414062 237.444335938 160.25 252.247070312 173.051757812 c 0
 267.048828125 185.853515625 275.862304688 201.169921875 278.686523438 219 c 2
 354.869140625 700 l 1
EndSplineSet
EndChar

StartChar: K
Encoding: 75 75 10
GlifName: K_
Width: 684
Flags: W
HStem: 0 21G<63 236.168 454.348 671> 680 20G<170.701 343.869 519.182 759.869>
VStem: 63 170<0 170> 173.869 170<530 700>
LayerCount: 2
Fore
SplineSet
63 0 m 1xe0
 173.869140625 700 l 1
 343.869140625 700 l 1xd0
 306.475585938 463.908203125 l 1
 538.869140625 700 l 1
 759.869140625 700 l 1
 460.418945312 396.909179688 l 1
 671 0 l 1
 465 0 l 1
 326.040039062 260.896484375 l 1
 264.448242188 198.555664062 l 1
 233 0 l 1
 63 0 l 1xe0
EndSplineSet
EndChar

StartChar: L
Encoding: 76 76 11
GlifName: L_
Width: 559
Flags: W
HStem: 0 170<259.926 536> 680 20G<170.701 343.869>
VStem: 173.869 170<530 700>
LayerCount: 2
Fore
SplineSet
63 0 m 1
 173.869140625 700 l 1
 343.869140625 700 l 1
 259.92578125 170 l 1
 562.92578125 170 l 1
 536 0 l 1
 63 0 l 1
EndSplineSet
EndChar

StartChar: M
Encoding: 77 77 12
GlifName: M_
Width: 833
Flags: W
HStem: 0 21G<13.2617 190.607 648.49 820.498> 680 20G<211.723 409.881 638.784 837.439>
VStem: 13.2617 171.508<0 171.508> 648.49 171.51<0 280.955>
LayerCount: 2
Fore
SplineSet
217.560546875 700 m 1
 406.703125 700 l 1
 467.196289062 319.2578125 l 1
 648.296875 700 l 1
 837.439453125 700 l 1
 820 0 l 1
 648.490234375 0 l 1
 657.046875 343.43359375 l 1
 511.872070312 38.220703125 l 1
 333.497070312 38.220703125 l 1
 285.00390625 343.435546875 l 1
 184.76953125 0 l 1
 13.26171875 0 l 1
 217.560546875 700 l 1
EndSplineSet
EndChar

StartChar: N
Encoding: 78 78 13
GlifName: N_
Width: 719
Flags: W
HStem: 0 21G<63 236.168 476.16 659.168> 680 20G<170.701 353.709 593.701 766.869>
VStem: 63 170<0 170> 596.869 170<530 700>
LayerCount: 2
Fore
SplineSet
173.869140625 700 m 1
 343.869140625 700 l 1
 535.2578125 311 l 1
 596.869140625 700 l 1
 766.869140625 700 l 1
 656 0 l 1
 486 0 l 1
 294.611328125 389 l 1
 233 0 l 1
 63 0 l 1
 173.869140625 700 l 1
EndSplineSet
EndChar

StartChar: O
Encoding: 79 79 14
GlifName: O_
Width: 780
Flags: W
HStem: -12.5 170<328.418 507.923> 541.5 170<382.927 561.618>
LayerCount: 2
Fore
SplineSet
475.765625 541.5 m 0
 422.782226562 541.5 374.565429688 522.74609375 331.116210938 485.23828125 c 0
 287.666992188 447.729492188 261.747070312 402.483398438 253.35546875 349.5 c 0
 244.963867188 296.516601562 256.55078125 251.270507812 288.118164062 213.76171875 c 0
 319.686523438 176.25390625 361.961914062 157.5 414.9453125 157.5 c 0
 467.928710938 157.5 516.145507812 176.25390625 559.594726562 213.76171875 c 0
 603.04296875 251.270507812 628.963867188 296.516601562 637.35546875 349.5 c 0
 645.747070312 402.483398438 634.159179688 447.729492188 602.592773438 485.23828125 c 0
 571.024414062 522.74609375 528.749023438 541.5 475.765625 541.5 c 0
502.690429688 711.5 m 4
 601.8984375 711.5 681.147460938 677 740.438476562 608 c 0
 801.153320312 537.342773438 823.458984375 451.17578125 807.35546875 349.5 c 0
 791.016601562 246.342773438 740.400390625 159.3203125 655.506835938 88.4326171875 c 0
 574.923828125 21.14453125 485.76171875 -12.5 388.020507812 -12.5 c 0
 286.344726562 -12.5 205.872070312 23.453125 146.603515625 95.359375 c 0
 88.7255859375 165.579101562 67.642578125 250.291992188 83.35546875 349.5 c 0
 99.1005859375 448.909179688 147.154296875 533.743164062 227.517578125 604 c 0
 309.493164062 675.666992188 401.216796875 711.5 502.690429688 711.5 c 4
EndSplineSet
EndChar

StartChar: P
Encoding: 80 80 15
GlifName: P_
Width: 604
Flags: W
HStem: 0 21G<63 236.168> 210 170<293.187 466.347> 530 170<316.943 480.451>
VStem: 63 170<0 170>
LayerCount: 2
Fore
SplineSet
316.943359375 530 m 1
 293.186523438 380 l 1
 411.186523438 380 l 2
 431.186523438 380 449.874023438 387.5 467.25 402.5 c 0
 484.625976562 417.5 494.897460938 435 498.064453125 455 c 0
 501.232421875 475 496.50390625 492.5 483.879882812 507.5 c 0
 471.255859375 522.5 454.943359375 530 434.943359375 530 c 2
 316.943359375 530 l 1
173.869140625 700 m 1
 461.869140625 700 l 2
 529.202148438 700 583.068359375 676 623.465820312 628 c 0
 663.86328125 580 678.729492188 522.333007812 668.064453125 455 c 0
 657.400390625 387.666992188 624.266601562 330 568.6640625 282 c 0
 513.061523438 234 451.59375 210 384.260742188 210 c 2
 266.260742188 210 l 1
 233 0 l 1
 63 0 l 1
 173.869140625 700 l 1
EndSplineSet
EndChar

StartChar: Q
Encoding: 81 81 16
GlifName: Q_
Width: 780
Flags: W
HStem: -12.5 170<330.314 477.711> 541.5 170<382.927 561.305>
LayerCount: 2
Fore
SplineSet
475.765625 541.5 m 0
 422.782226562 541.5 374.565429688 522.74609375 331.116210938 485.23828125 c 0
 287.666992188 447.729492188 261.747070312 402.483398438 253.35546875 349.5 c 0
 244.963867188 296.516601562 256.55078125 251.270507812 288.118164062 213.76171875 c 0
 319.686523438 176.25390625 361.961914062 157.5 414.9453125 157.5 c 0
 436.971679688 157.5 458.174804688 160.741210938 478.553710938 167.223632812 c 1
 433.424804688 220.845703125 l 1
 572.671875 341.053710938 l 1
 617.80078125 287.431640625 l 1
 627.348632812 306.784179688 633.8671875 327.473632812 637.35546875 349.5 c 0
 645.747070312 402.483398438 634.159179688 447.729492188 602.592773438 485.23828125 c 0
 571.024414062 522.74609375 528.749023438 541.5 475.765625 541.5 c 0
502.690429688 711.5 m 0
 600.756835938 711.5 679.427734375 677.666992188 738.703125 610 c 0
 800.7578125 539.161132812 823.641601562 452.327148438 807.35546875 349.5 c 0
 796.135742188 278.663085938 768.752929688 215.434570312 725.206054688 159.813476562 c 1
 769.059570312 107.708007812 l 1
 629.8125 -12.5 l 1
 585.783203125 39.814453125 l 1
 524.309570312 4.9384765625 458.388671875 -12.5 388.020507812 -12.5 c 0
 285.193359375 -12.5 204.162109375 24.13671875 144.928710938 97.4111328125 c 0
 88.34765625 167.404296875 67.8232421875 251.43359375 83.35546875 349.5 c 0
 99.1005859375 448.909179688 147.154296875 533.743164062 227.517578125 604 c 0
 309.493164062 675.666992188 401.216796875 711.5 502.690429688 711.5 c 0
EndSplineSet
EndChar

StartChar: R
Encoding: 82 82 17
GlifName: R_
Width: 614
Flags: W
HStem: 0 21G<63 236.168 410.845 595.914> 530 170<316.943 480.451>
VStem: 63 170<0 170> 414.957 180.957<0 180.957>
LayerCount: 2
Fore
SplineSet
316.943359375 530 m 1
 293.186523438 380 l 1
 411.186523438 380 l 2
 431.186523438 380 449.874023438 387.5 467.25 402.5 c 0
 484.625976562 417.5 494.897460938 435 498.064453125 455 c 0
 501.232421875 475 496.50390625 492.5 483.879882812 507.5 c 0
 471.255859375 522.5 454.943359375 530 434.943359375 530 c 2
 316.943359375 530 l 1
173.869140625 700 m 1
 461.869140625 700 l 2
 529.202148438 700 583.068359375 676 623.465820312 628 c 0
 663.86328125 580 678.729492188 522.333007812 668.064453125 455 c 0
 661.930664062 416.270507812 647.703125 380.004882812 625.381835938 346.203125 c 0
 603.061523438 312.401367188 575.337890625 284.075195312 542.209960938 261.224609375 c 1
 595.9140625 0 l 1
 414.95703125 0 l 1
 371.782226562 210 l 1
 266.260742188 210 l 1
 233 0 l 1
 63 0 l 1
 173.869140625 700 l 1
EndSplineSet
EndChar

StartChar: S
Encoding: 83 83 18
GlifName: S_
Width: 560
Flags: W
HStem: -12 169.998<241.585 368.024> 507.826 21G<418.217 496.386> 542 170<300.643 414.118>
LayerCount: 2
Fore
SplineSet
388.772460938 712 m 0
 442.713867188 712 488.446289062 697.102539062 525.969726562 667.306640625 c 0
 563.4921875 637.51171875 584.8359375 599.040039062 589.998046875 551.890625 c 1
 418.584960938 507.826171875 l 1
 417.849609375 518.063476562 412.166992188 526.318359375 401.536132812 532.590820312 c 0
 390.904296875 538.86328125 377.674804688 542 361.84765625 542 c 0
 343.180664062 542 326.880859375 538 312.946289062 530 c 0
 299.012695312 522 290.884765625 510.666992188 288.561523438 496 c 0
 287.001953125 486.154296875 290.672851562 477.56640625 299.575195312 470.236328125 c 0
 311.166992188 460.69140625 331.627929688 453.279296875 360.958984375 448 c 0
 429.05859375 436 482.098632812 411 520.080078125 373 c 0
 558.061523438 335 571.931640625 283.666992188 561.689453125 219 c 0
 551.341796875 153.666992188 518.15625 98.8330078125 462.134765625 54.5 c 0
 406.11328125 10.1669921875 343.435546875 -12 274.102539062 -12 c 0
 216.686523438 -12 167.7578125 3.9765625 127.31640625 35.9287109375 c 0
 86.8759765625 67.880859375 63.9111328125 109.00390625 58.4208984375 159.296875 c 1
 229.266601562 203.212890625 l 1
 230.7109375 190.01953125 238.278320312 179.185546875 251.967773438 170.709960938 c 0
 265.657226562 162.235351562 282.010742188 157.998046875 301.02734375 157.998046875 c 0
 323.813476562 157.998046875 343.880859375 163.4921875 361.228515625 174.481445312 c 0
 378.577148438 185.470703125 388.73046875 200.309570312 391.69140625 219 c 0
 394.0234375 233.723632812 389.37109375 246.248046875 377.733398438 256.572265625 c 0
 363.950195312 268.801757812 340.3671875 277.944335938 306.984375 284 c 0
 244.112304688 295.333007812 194.615234375 318.5 158.4921875 353.5 c 0
 122.368164062 388.5 109.05859375 436 118.561523438 496 c 0
 128.275390625 557.333007812 159.40625 608.666992188 211.953125 650 c 0
 264.499023438 691.333007812 323.439453125 712 388.772460938 712 c 0
EndSplineSet
EndChar

StartChar: T
Encoding: 84 84 19
GlifName: T_
Width: 621
Flags: W
HStem: 0 21G<225.5 398.668> 530 170<130.869 309.443 479.443 684.943>
VStem: 225.5 170<0 170>
LayerCount: 2
Fore
SplineSet
130.869140625 700 m 1
 711.869140625 700 l 1
 684.943359375 530 l 1
 479.443359375 530 l 1
 395.5 0 l 1
 225.5 0 l 1
 309.443359375 530 l 1
 103.943359375 530 l 1
 130.869140625 700 l 1
EndSplineSet
EndChar

StartChar: U
Encoding: 85 85 20
GlifName: U_
Width: 706
Flags: W
HStem: -12 170<312.888 449.796> 680 20G<160.701 333.869 590.701 763.869>
VStem: 163.869 170<530 700> 593.869 170<530 700>
LayerCount: 2
Fore
SplineSet
163.869140625 700 m 1
 333.869140625 700 l 1
 273.366210938 318 l 2
 265.658203125 269.333007812 272.0078125 230.5 292.4140625 201.5 c 0
 312.821289062 172.5 341.357421875 158 378.024414062 158 c 0
 414.69140625 158 447.821289062 172.5 477.4140625 201.5 c 0
 507.0078125 230.5 525.658203125 269.333007812 533.366210938 318 c 2
 593.869140625 700 l 1
 763.869140625 700 l 1
 703.366210938 318 l 2
 688.161132812 222 646.649414062 143 578.829101562 81 c 0
 511.009765625 19 435.099609375 -12 351.099609375 -12 c 0
 267.099609375 -12 201.009765625 19 152.829101562 81 c 0
 104.649414062 143 88.1611328125 222 103.366210938 318 c 2
 163.869140625 700 l 1
EndSplineSet
EndChar

StartChar: V
Encoding: 86 86 21
GlifName: V_
Width: 695
Flags: W
HStem: 0 21G<255.053 448.225> 680 20G<120.869 304.787 605.673 795.869>
VStem: 120.869 180<520 700>
LayerCount: 2
Fore
SplineSet
120.869140625 700 m 1
 300.869140625 700 l 1
 388.310546875 253.643554688 l 1
 615.869140625 700 l 1
 795.869140625 700 l 1
 438 0 l 1
 259 0 l 1
 120.869140625 700 l 1
EndSplineSet
EndChar

StartChar: W
Encoding: 87 87 22
GlifName: W_
Width: 966
Flags: W
HStem: 0 21G<200.653 390.625 583.653 773.625> 680 20G<120.869 303.187 495.273 686.187 878.273 1066.87>
VStem: 120.869 180<520 700>
LayerCount: 2
Fore
SplineSet
886.869140625 700 m 1
 1066.86914062 700 l 1
 765 0 l 1
 586 0 l 1
 542.368164062 371.875 l 1
 382 0 l 1
 203 0 l 1
 120.869140625 700 l 1
 300.869140625 700 l 1
 343.983398438 328.010742188 l 1
 503.869140625 700 l 1
 683.869140625 700 l 1
 726.983398438 328.010742188 l 1
 886.869140625 700 l 1
EndSplineSet
EndChar

StartChar: X
Encoding: 88 88 23
GlifName: X_
Width: 661
Flags: W
HStem: 0 21G<12.5 227.453 439.382 648> 680 20G<129.369 337.987 537.916 752.869>
LayerCount: 2
Fore
SplineSet
553.369140625 700 m 1
 752.869140625 700 l 1
 486.208007812 354.883789062 l 1
 648 0 l 1
 448.5 0 l 1
 360.739257812 192.5 l 1
 212 0 l 1
 12.5 0 l 1
 286.708007812 354.883789062 l 1
 129.369140625 700 l 1
 328.869140625 700 l 1
 412.176757812 517.267578125 l 1
 553.369140625 700 l 1
EndSplineSet
EndChar

StartChar: Y
Encoding: 89 89 24
GlifName: Y_
Width: 641
Flags: W
HStem: 0 21G<235.5 408.66> 680 20G<119.869 327.167 529.236 742.869>
VStem: 235.5 169.992<0 169.992>
LayerCount: 2
Fore
SplineSet
119.869140625 700 m 1
 318.869140625 700 l 1
 400.287109375 503.758789062 l 1
 543.869140625 700 l 1
 742.869140625 700 l 1
 454.317382812 308.267578125 l 5
 405.4921875 0 l 1
 235.5 0 l 1
 284.327148438 308.28125 l 1
 119.869140625 700 l 1
EndSplineSet
EndChar

StartChar: Z
Encoding: 90 90 25
GlifName: Z_
Width: 611
Flags: W
HStem: 0 170<287.926 575> 530 170<146.869 433.943>
LayerCount: 2
Fore
SplineSet
33 0 m 1
 59.92578125 170 l 1
 433.943359375 530 l 1
 119.943359375 530 l 1
 146.869140625 700 l 1
 688.869140625 700 l 1
 661.943359375 530 l 1
 287.92578125 170 l 1
 601.92578125 170 l 1
 575 0 l 1
 33 0 l 1
EndSplineSet
EndChar

StartChar: a
Encoding: 97 97 26
GlifName: a
Width: 602
Flags: W
HStem: -12 168<257.863 372.723> 0 21G<406 557.168> 344 168<281.993 400.804> 480 20G<482.025 633.192>
LayerCount: 2
Fore
SplineSet
485.192382812 500 m 1x10
 633.192382812 500 l 1
 554 0 l 1
 406 0 l 1x50
 411.224609375 32.9892578125 l 1
 407.172851562 29.9013671875 403.041015625 26.9716796875 398.833007812 24.201171875 c 4
 362.170898438 0.0673828125 319.59375 -12 271.099609375 -12 c 0
 199.766601562 -12 144.278320312 13.3330078125 104.63671875 64 c 0
 64.994140625 114.666992188 50.9814453125 176.666992188 62.595703125 250 c 0
 74.2109375 323.333007812 107.86328125 385.333007812 163.555664062 436 c 0
 219.247070312 486.666992188 282.759765625 512 354.092773438 512 c 0xa0
 401.934570312 512 440.752929688 498.225585938 470.547851562 470.676757812 c 0
 473.514648438 467.93359375 476.391601562 465.053710938 479.1796875 462.037109375 c 1
 485.192382812 500 l 1x10
344.484375 344 m 0xa0
 318.484375 344 294.865234375 334.833007812 273.62890625 316.5 c 0
 252.391601562 298.166992188 239.713867188 276 235.595703125 250 c 0
 231.478515625 224 237.133789062 201.833007812 252.563476562 183.5 c 0
 267.993164062 165.166992188 288.708007812 156 314.708007812 156 c 0
 340.708007812 156 364.327148438 165.166992188 385.563476562 183.5 c 0
 406.799804688 201.833007812 419.478515625 224 423.595703125 250 c 0
 427.713867188 276 422.057617188 298.166992188 406.62890625 316.5 c 0
 391.19921875 334.833007812 370.484375 344 344.484375 344 c 0xa0
EndSplineSet
EndChar

StartChar: b
Encoding: 98 98 27
GlifName: b
Width: 602
Flags: W
HStem: -12 168<280.615 399.2> 0 21G<48 199.167> 344 168<313.08 423.329> 680 20G<155.701 328.869>
VStem: 158.869 170<530 700>
LayerCount: 2
Fore
SplineSet
366.484375 344 m 0xb8
 340.484375 344 316.865234375 334.833007812 295.62890625 316.5 c 0
 274.391601562 298.166992188 261.713867188 276 257.595703125 250 c 0
 253.478515625 224 259.133789062 201.833007812 274.563476562 183.5 c 0
 289.993164062 165.166992188 310.708007812 156 336.708007812 156 c 0
 362.708007812 156 386.327148438 165.166992188 407.563476562 183.5 c 0
 428.799804688 201.833007812 441.478515625 224 445.595703125 250 c 0
 449.713867188 276 444.057617188 298.166992188 428.62890625 316.5 c 0
 413.19921875 334.833007812 392.484375 344 366.484375 344 c 0xb8
410.092773438 512 m 0
 481.42578125 512 536.913085938 486.666992188 576.555664062 436 c 0
 616.197265625 385.333007812 630.2109375 323.333007812 618.595703125 250 c 0
 606.981445312 176.666992188 573.328125 114.666992188 517.63671875 64 c 0
 461.944335938 13.3330078125 398.432617188 -12 327.099609375 -12 c 0xb8
 279.584960938 -12 241.419921875 -0.416015625 212.603515625 22.7529296875 c 4
 208.633789062 25.9453125 204.83984375 29.357421875 201.224609375 32.9892578125 c 1
 196 0 l 1
 48 0 l 1x78
 158.869140625 700 l 1
 328.869140625 700 l 1
 293.9609375 479.595703125 l 1
 300.755859375 483.783203125 307.6875 487.564453125 314.7578125 490.940429688 c 0
 344.161132812 504.98046875 375.939453125 512 410.092773438 512 c 0
EndSplineSet
EndChar

StartChar: c
Encoding: 99 99 28
GlifName: c
Width: 482
Flags: W
HStem: -12 170<255.239 382.389> 342 170<277.021 424.853>
LayerCount: 2
Fore
SplineSet
365.831054688 512 m 0
 438.1796875 512 495.881835938 486.420898438 538.938476562 435.26171875 c 1
 399.692382812 315.0546875 l 1
 384.57421875 333.018554688 364.311523438 342 338.905273438 342 c 0
 313.572265625 342 290.48046875 333 269.62890625 315 c 0
 248.778320312 297 236.346679688 275.333007812 232.333984375 250 c 0
 228.322265625 224.666992188 233.890625 203 249.0390625 185 c 0
 264.188476562 167 284.4296875 158 309.762695312 158 c 0
 335.168945312 158 358.276367188 166.981445312 379.084960938 184.9453125 c 1
 480.25390625 64.73828125 l 1
 420.991210938 13.5791015625 355.186523438 -12 282.837890625 -12 c 0
 210.170898438 -12 152.376953125 13.5 109.454101562 64.5 c 0
 66.53125 115.5 50.8251953125 177.333007812 62.333984375 250 c 0
 73.84375 322.666992188 109.13671875 384.5 168.21484375 435.5 c 0
 227.291992188 486.5 293.1640625 512 365.831054688 512 c 0
EndSplineSet
EndChar

StartChar: d
Encoding: 100 100 29
GlifName: d
Width: 602
Flags: W
HStem: -12 168<257.863 372.737> 344 168<281.993 401.293>
VStem: 494.869 170<530 700>
LayerCount: 2
Fore
SplineSet
344.484375 344 m 0
 370.484375 344 391.19921875 334.833007812 406.62890625 316.5 c 0
 422.057617188 298.166992188 427.713867188 276 423.595703125 250 c 0
 419.478515625 224 406.799804688 201.833007812 385.563476562 183.5 c 0
 364.327148438 165.166992188 340.708007812 156 314.708007812 156 c 0
 288.708007812 156 267.993164062 165.166992188 252.563476562 183.5 c 0
 237.133789062 201.833007812 231.478515625 224 235.595703125 250 c 0
 239.713867188 276 252.391601562 298.166992188 273.62890625 316.5 c 0
 294.865234375 334.833007812 318.484375 344 344.484375 344 c 0
354.092773438 512 m 0
 282.759765625 512 219.247070312 486.666992188 163.555664062 436 c 0
 107.86328125 385.333007812 74.2109375 323.333007812 62.595703125 250 c 0
 50.9814453125 176.666992188 64.994140625 114.666992188 104.63671875 64 c 0
 144.278320312 13.3330078125 199.766601562 -12 271.099609375 -12 c 0
 314.315429688 -12 352.833007812 -2.4169921875 386.653320312 16.75 c 4
 395.139648438 21.5595703125 403.330078125 26.97265625 411.224609375 32.9892578125 c 1
 406 0 l 1
 554 0 l 1
 664.869140625 700 l 1
 494.869140625 700 l 1
 459.9609375 479.595703125 l 1
 452.833984375 485.052734375 445.255859375 489.8203125 437.225585938 493.8984375 c 0
 413.466796875 505.965820312 385.755859375 512 354.092773438 512 c 0
EndSplineSet
EndChar

StartChar: e
Encoding: 101 101 30
GlifName: e
Width: 562
Flags: W
HStem: -12 136<266.826 413.076> 180.354 119.646<260.123 414.434> 356 156<287.435 394.128>
LayerCount: 2
Fore
SplineSet
566.965820312 180.353515625 m 5
 245.297851562 180.353515625 l 5
 249.709960938 166.025390625 258.123046875 153.05078125 270.537109375 141.430664062 c 4
 282.951171875 129.810546875 299.452148438 124 320.040039062 124 c 4
 363.189453125 124 382.029296875 132.180664062 418.35546875 147.955078125 c 5
 487.12109375 43.728515625 l 5
 419.515625 1.1171875 366.436523438 -12 298.5 -12 c 4
 223.166015625 -12 162.3984375 13.6669921875 116.1953125 65 c 4
 69.9921875 116.333007812 52.5927734375 178 63.99609375 250 c 4
 75.505859375 322.666992188 110.798828125 384.5 169.876953125 435.5 c 4
 228.954101562 486.5 294.826171875 512 367.493164062 512 c 4
 436.826171875 512 492.09375 486.333007812 533.297851562 435 c 4
 574.5 383.666992188 589.083007812 320 577.045898438 244 c 6
 566.965820312 180.353515625 l 5
346.78515625 356 m 4
 328.211914062 356 311.848632812 351.604492188 297.696289062 342.8125 c 4
 282.684570312 333.487304688 270.16015625 319.216796875 260.123046875 300 c 5
 414.43359375 300 l 5
 410.377929688 319.724609375 402.170898438 334.239257812 389.8125 343.541992188 c 4
 378.779296875 351.84765625 364.436523438 356 346.78515625 356 c 4
EndSplineSet
EndChar

StartChar: f
Encoding: 102 102 31
GlifName: f
Width: 399
Flags: W
HStem: 0 21G<98 271.168> 330 170<102.192 150.267 347.192 443.267> 554 170<358.203 478.745>
VStem: 98 170<0 170>
LayerCount: 2
Fore
SplineSet
424.169921875 724 m 2
 505.669921875 724 l 1
 478.745117188 554 l 1
 397.245117188 554 l 2
 386.245117188 554 375.91796875 549.833007812 366.265625 541.5 c 0
 356.612304688 533.166992188 350.9140625 523.5 349.171875 512.5 c 2
 347.192382812 500 l 1
 470.192382812 500 l 1
 443.266601562 330 l 1
 320.266601562 330 l 1
 268 0 l 1
 98 0 l 1
 150.266601562 330 l 1
 75.2666015625 330 l 1
 102.192382812 500 l 1
 177.192382812 500 l 1
 179.171875 512.5 l 2
 188.411132812 570.833007812 216.970703125 620.666992188 264.850585938 662 c 0
 312.73046875 703.333007812 365.836914062 724 424.169921875 724 c 2
EndSplineSet
EndChar

StartChar: g
Encoding: 103 103 32
GlifName: g
Width: 602
Flags: W
HStem: -215.316 158<177.437 349.101> -32.9668 20G<125.935 163.735> -13.3164 168<257.644 372.851> 342.684 168<281.695 400.955>
LayerCount: 2
Fore
SplineSet
353.875976562 510.68359375 m 0xb0
 398.530273438 510.68359375 435.313476562 498.771484375 464.224609375 474.947265625 c 0
 469.403320312 470.678710938 474.331054688 466.028320312 479.005859375 460.995117188 c 1
 484.974609375 498.68359375 l 1
 632.974609375 498.68359375 l 1
 563.286132812 58.68359375 l 2
 550.237304688 -27.0078125 517.010742188 -94.1142578125 463.608398438 -142.635742188 c 0
 410.205078125 -191.157226562 344.631835938 -215.383789062 266.888671875 -215.31640625 c 0
 114.057617188 -215.18359375 68.974609375 -182.974609375 38.2275390625 -150.666015625 c 1
 140.838867188 -12.966796875 l 1xd0
 186.630859375 -46.140625 219.858398438 -57.0947265625 282.913085938 -57.31640625 c 4
 314.40625 -57.4267578125 339.126953125 -47.5283203125 357.075195312 -27.62109375 c 0
 366.530273438 -17.1328125 374.23828125 -4.92578125 380.196289062 9 c 0
 380.725585938 10.2373046875 381.241210938 11.48828125 381.7421875 12.751953125 c 1
 379.684570312 11.6572265625 377.608398438 10.595703125 375.515625 9.5693359375 c 0
 344.41015625 -5.6875 309.53125 -13.31640625 270.881835938 -13.31640625 c 0
 199.295898438 -13.31640625 143.751953125 12.0595703125 104.25 62.810546875 c 0
 64.748046875 113.5625 50.791015625 175.520507812 62.37890625 248.68359375 c 0
 73.966796875 321.84765625 107.55078125 383.805664062 163.12890625 434.556640625 c 0
 218.70703125 485.307617188 282.290039062 510.68359375 353.875976562 510.68359375 c 0xb0
344.266601562 342.68359375 m 0
 318.309570312 342.68359375 294.700195312 333.505859375 273.438476562 315.151367188 c 0
 252.176757812 296.796875 239.490234375 274.641601562 235.37890625 248.68359375 c 0
 231.267578125 222.725585938 236.936523438 200.5703125 252.383789062 182.215820312 c 0
 267.831054688 163.861328125 288.533203125 154.68359375 314.490234375 154.68359375 c 0xb0
 340.448242188 154.68359375 364.05859375 163.861328125 385.3203125 182.215820312 c 0
 406.58203125 200.5703125 419.267578125 222.725585938 423.37890625 248.68359375 c 0
 427.490234375 274.641601562 421.822265625 296.796875 406.375 315.151367188 c 0
 390.927734375 333.505859375 370.224609375 342.68359375 344.266601562 342.68359375 c 0
EndSplineSet
EndChar

StartChar: h
Encoding: 104 104 33
GlifName: h
Width: 586
Flags: W
HStem: 0 21G<50 223.168 373 546.168> 342 170<319.17 446.759> 680 20G<157.701 330.869>
VStem: 50 170<0 170> 160.869 170<530 700> 373 170<0 170>
LayerCount: 2
Fore
SplineSet
543 0 m 1xec
 373 0 l 1
 414.767578125 263.7109375 l 2
 418.458984375 287.016601562 414.107421875 305.890625 401.71484375 320.333984375 c 0
 389.3203125 334.778320312 372.3046875 342 350.666992188 342 c 0
 329.029296875 342 309.7265625 334.778320312 292.7578125 320.333984375 c 0
 275.7890625 305.890625 265.458984375 287.016601562 261.767578125 263.7109375 c 2
 220 0 l 5
 50 0 l 5xf4
 160.869140625 700 l 1
 330.869140625 700 l 1
 295.216796875 474.90234375 l 1
 300.279296875 478.7421875 305.5078125 482.284179688 310.900390625 485.528320312 c 0
 340.23828125 503.17578125 374.46875 512 413.592773438 512 c 0
 479.92578125 512 527.818359375 488.166992188 557.268554688 440.5 c 0
 586.71875 392.833007812 595.477539062 331.333007812 583.546875 256 c 2
 543 0 l 1xec
EndSplineSet
EndChar

StartChar: i
Encoding: 105 105 34
GlifName: i
Width: 296
Flags: W
HStem: 0 21G<63 236.168> 480 20G<139.025 312.192> 548 200<201.045 300.221>
VStem: 63 170<0 170> 142.192 170<330 500>
LayerCount: 2
Fore
SplineSet
63 0 m 1xf0
 142.192382812 500 l 1
 312.192382812 500 l 1xe8
 233 0 l 1
 63 0 l 1xf0
350.6328125 648 m 0
 346.303710938 620.666992188 332.749023438 597.166992188 309.966796875 577.5 c 0
 287.185546875 557.833007812 262.127929688 548 234.794921875 548 c 0
 207.461914062 548 185.51953125 557.833007812 168.966796875 577.5 c 0
 152.415039062 597.166992188 146.303710938 620.666992188 150.6328125 648 c 0
 154.961914062 675.333007812 168.517578125 698.833007812 191.298828125 718.5 c 0
 214.081054688 738.166992188 239.138671875 748 266.471679688 748 c 0
 293.8046875 748 315.747070312 738.166992188 332.298828125 718.5 c 0
 348.8515625 698.833007812 354.961914062 675.333007812 350.6328125 648 c 0
EndSplineSet
EndChar

StartChar: j
Encoding: 106 106 35
GlifName: j
Width: 278
Flags: W
HStem: 480 20G<118.025 291.192> 542 206<178.781 279.534>
VStem: 121.192 170<330 500>
LayerCount: 2
Fore
SplineSet
121.192382812 500 m 1
 291.192382812 500 l 1
 220.552734375 54 l 2
 208.83203125 -20 172.46875 -83.3330078125 111.459960938 -136 c 0
 50.451171875 -188.666992188 -17.052734375 -215 -91.052734375 -215 c 1
 -64.126953125 -45 l 1
 -36.7939453125 -45 -11.9296875 -35.3330078125 10.4658203125 -16 c 0
 32.861328125 3.3330078125 46.2236328125 26.6669921875 50.552734375 54 c 2
 121.192382812 500 l 1
332.158203125 645 m 0
 327.6171875 616.333007812 313.763671875 592 290.595703125 572 c 0
 267.427734375 552 241.51171875 542 212.844726562 542 c 0
 184.177734375 542 161.427734375 552 144.595703125 572 c 0
 127.763671875 592 121.6171875 616.333007812 126.158203125 645 c 0
 130.698242188 673.666992188 144.552734375 698 167.719726562 718 c 0
 190.887695312 738 216.8046875 748 245.471679688 748 c 0
 274.138671875 748 296.887695312 738 313.719726562 718 c 0
 330.552734375 698 336.698242188 673.666992188 332.158203125 645 c 0
EndSplineSet
EndChar

StartChar: k
Encoding: 107 107 36
GlifName: k
Width: 594
Flags: W
HStem: 0 21G<48 221.168 358.545 581> 480 20G<411.122 660.192> 680 20G<155.701 328.869>
VStem: 158.869 170<530 700>
LayerCount: 2
Fore
SplineSet
48 0 m 5
 158.869140625 700 l 1
 328.869140625 700 l 1
 273.305664062 349.184570312 l 1
 432.192382812 500 l 1
 660.192382812 500 l 1
 422.651367188 274.9375 l 1
 581 0 l 1
 370 0 l 1
 286.4453125 145.885742188 l 1
 233.1015625 95.3447265625 l 1
 218 0 l 5
 48 0 l 5
EndSplineSet
EndChar

StartChar: l
Encoding: 108 108 37
GlifName: l
Width: 266
Flags: W
HStem: 0 21G<48 221.168> 680 20G<155.701 328.869>
VStem: 48 170<0 170> 158.869 170<530 700>
LayerCount: 2
Fore
SplineSet
158.869140625 700 m 1xd0
 328.869140625 700 l 1xd0
 218 0 l 1
 48 0 l 1xe0
 158.869140625 700 l 1xd0
EndSplineSet
EndChar

StartChar: m
Encoding: 109 109 38
GlifName: m
Width: 907
Flags: W
HStem: 0 21G<48 221.168 371 544.168 694 867.168> 342 170<317.453 444.759 636.941 767.759> 480 20G<124.025 285.192>
VStem: 48 170<0 170> 371 170<0 170> 694 170<0 170>
CounterMasks: 1 1c
LayerCount: 2
Fore
SplineSet
864 0 m 1xdc
 694 0 l 1
 735.767578125 263.7109375 l 2
 739.458984375 287.016601562 735.107421875 305.890625 722.71484375 320.333984375 c 0
 710.3203125 334.778320312 693.3046875 342 671.666992188 342 c 0
 650.029296875 342 630.7265625 334.778320312 613.7578125 320.333984375 c 0
 596.7890625 305.890625 586.458984375 287.016601562 582.767578125 263.7109375 c 5
 541 0 l 5
 371 0 l 1
 412.767578125 263.7109375 l 2
 416.458984375 287.016601562 412.107421875 305.890625 399.71484375 320.333984375 c 0
 387.3203125 334.778320312 370.3046875 342 348.666992188 342 c 0xdc
 327.029296875 342 307.7265625 334.778320312 290.7578125 320.333984375 c 0
 273.7890625 305.890625 263.458984375 287.016601562 259.767578125 263.7109375 c 2
 218 0 l 1
 48 0 l 1
 127.192382812 500 l 1
 285.192382812 500 l 1xbc
 279.375976562 463.278320312 l 1
 282.764648438 466.416992188 286.23828125 469.405273438 289.795898438 472.240234375 c 0
 323.045898438 498.747070312 363.64453125 512 411.592773438 512 c 0
 477.92578125 512 525.818359375 488.166992188 555.268554688 440.5 c 0
 557.717773438 436.536132812 560.022460938 432.4765625 562.186523438 428.322265625 c 1
 565.625976562 432.65625 569.1796875 436.8828125 572.84765625 441 c 0
 615.01171875 488.333007812 668.92578125 512 734.592773438 512 c 0
 800.92578125 512 848.818359375 488.166992188 878.268554688 440.5 c 0
 907.71875 392.833007812 916.477539062 331.333007812 904.546875 256 c 2
 864 0 l 1xdc
EndSplineSet
EndChar

StartChar: n
Encoding: 110 110 39
GlifName: n
Width: 584
Flags: W
HStem: 0 21G<48 221.168 371 544.168> 342 170<317.628 444.759> 480 20G<124.025 285.192>
VStem: 48 170<0 170> 371 170<0 170>
LayerCount: 2
Fore
SplineSet
541 0 m 1xd8
 371 0 l 1
 412.767578125 263.7109375 l 2
 416.458984375 287.016601562 412.107421875 305.890625 399.71484375 320.333984375 c 0
 387.3203125 334.778320312 370.3046875 342 348.666992188 342 c 0xd8
 327.029296875 342 307.7265625 334.778320312 290.7578125 320.333984375 c 0
 273.7890625 305.890625 263.458984375 287.016601562 259.767578125 263.7109375 c 2
 218 0 l 1
 48 0 l 1
 127.192382812 500 l 1
 285.192382812 500 l 1xb8
 279.375976562 463.278320312 l 1
 285.932617188 469.3515625 292.8046875 474.857421875 299.9921875 479.795898438 c 4
 331.240234375 501.265625 368.440429688 512 411.592773438 512 c 0
 477.92578125 512 525.818359375 488.166992188 555.268554688 440.5 c 0
 584.71875 392.833007812 593.477539062 331.333007812 581.546875 256 c 2
 541 0 l 1xd8
EndSplineSet
EndChar

StartChar: o
Encoding: 111 111 40
GlifName: o
Width: 570
Flags: W
HStem: -12 170<255.52 371.804> 342 170<277.388 393.672>
LayerCount: 2
Fore
SplineSet
339.166992188 342 m 0
 313.76171875 342 290.655273438 333.017578125 269.845703125 315.053710938 c 0
 249.037109375 297.08984375 236.620117188 275.405273438 232.595703125 250 c 0
 228.572265625 224.594726562 234.120117188 202.91015625 249.239257812 184.946289062 c 0
 264.357421875 166.982421875 284.619140625 158 310.024414062 158 c 0
 335.4296875 158 358.537109375 166.982421875 379.346679688 184.946289062 c 0
 400.155273438 202.91015625 412.572265625 224.594726562 416.595703125 250 c 0
 420.620117188 275.405273438 415.072265625 297.08984375 399.953125 315.053710938 c 0
 384.834960938 333.017578125 364.572265625 342 339.166992188 342 c 0
366.092773438 512 m 0
 438.44140625 512 496.143554688 486.420898438 539.200195312 435.26171875 c 0
 582.256835938 384.102539062 598.0546875 322.348632812 586.595703125 250 c 0
 575.137695312 177.651367188 539.77734375 115.897460938 480.515625 64.73828125 c 0
 421.252929688 13.5791015625 355.448242188 -12 283.099609375 -12 c 0
 210.750976562 -12 153.047851562 13.5791015625 109.9921875 64.73828125 c 0
 66.935546875 115.897460938 51.1376953125 177.651367188 62.595703125 250 c 0
 74.0546875 322.348632812 109.415039062 384.102539062 168.676757812 435.26171875 c 0
 227.938476562 486.420898438 293.744140625 512 366.092773438 512 c 0
EndSplineSet
EndChar

StartChar: p
Encoding: 112 112 41
GlifName: p
Width: 607
Flags: W
HStem: -12 168<285.465 404.2> 344 168<313.196 428.329>
VStem: 21.3232 170<-200 -30>
LayerCount: 2
Fore
SplineSet
280.192382812 500 m 1
 132.192382812 500 l 1
 21.3232421875 -200 l 1
 191.323242188 -200 l 1
 226.231445312 20.404296875 l 1
 228.577148438 18.6083984375 230.970703125 16.8876953125 233.4140625 15.2412109375 c 4
 260.360351562 -2.919921875 293.255859375 -12 332.099609375 -12 c 0
 403.432617188 -12 466.944335938 13.3330078125 522.63671875 64 c 0
 578.328125 114.666992188 611.981445312 176.666992188 623.595703125 250 c 0
 635.2109375 323.333007812 621.197265625 385.333007812 581.555664062 436 c 0
 541.913085938 486.666992188 486.42578125 512 415.092773438 512 c 0
 369.98828125 512 330.000976562 501.560546875 295.1328125 480.681640625 c 0
 288.208984375 476.536132812 281.487304688 471.979492188 274.966796875 467.010742188 c 1
 280.192382812 500 l 1
341.708007812 156 m 0
 315.708007812 156 294.993164062 165.166992188 279.563476562 183.5 c 0
 264.133789062 201.833007812 258.478515625 224 262.595703125 250 c 0
 266.713867188 276 279.391601562 298.166992188 300.62890625 316.5 c 0
 321.865234375 334.833007812 345.484375 344 371.484375 344 c 0
 397.484375 344 418.19921875 334.833007812 433.62890625 316.5 c 0
 449.057617188 298.166992188 454.713867188 276 450.595703125 250 c 0
 446.478515625 224 433.799804688 201.833007812 412.563476562 183.5 c 0
 391.327148438 165.166992188 367.708007812 156 341.708007812 156 c 0
EndSplineSet
EndChar

StartChar: q
Encoding: 113 113 42
GlifName: q
Width: 602
Flags: W
HStem: -200 21G<352.323 525.491> -12 168<257.863 368.151> 344 168<281.993 401.051> 480 20G<482.024 633.192>
VStem: 352.323 170<-200 -30>
LayerCount: 2
Fore
SplineSet
485.192382812 500 m 1xd8
 633.192382812 500 l 1xd8
 522.323242188 -200 l 1
 352.323242188 -200 l 1
 387.231445312 20.404296875 l 1
 379.40234375 15.5791015625 371.389648438 11.29296875 363.1953125 7.5458984375 c 4
 334.701171875 -5.484375 304.001953125 -12 271.099609375 -12 c 0
 199.766601562 -12 144.278320312 13.3330078125 104.63671875 64 c 0
 64.994140625 114.666992188 50.9814453125 176.666992188 62.595703125 250 c 0
 74.2109375 323.333007812 107.86328125 385.333007812 163.555664062 436 c 0
 219.247070312 486.666992188 282.759765625 512 354.092773438 512 c 0xe8
 396.841796875 512 432.0234375 502.622070312 459.63671875 483.8671875 c 0
 466.944335938 478.905273438 473.719726562 473.286132812 479.966796875 467.010742188 c 1
 485.192382812 500 l 1xd8
314.708007812 156 m 0
 340.708007812 156 364.327148438 165.166992188 385.563476562 183.5 c 0
 406.799804688 201.833007812 419.478515625 224 423.595703125 250 c 0
 427.713867188 276 422.057617188 298.166992188 406.62890625 316.5 c 0
 391.19921875 334.833007812 370.484375 344 344.484375 344 c 0xe8
 318.484375 344 294.865234375 334.833007812 273.62890625 316.5 c 0
 252.391601562 298.166992188 239.713867188 276 235.595703125 250 c 0
 231.478515625 224 237.133789062 201.833007812 252.563476562 183.5 c 0
 267.993164062 165.166992188 288.708007812 156 314.708007812 156 c 0
EndSplineSet
EndChar

StartChar: r
Encoding: 114 114 43
GlifName: r
Width: 413
Flags: W
HStem: 0 21G<48 221.168> 342 170<361.407 449.167> 480 20G<124.025 285.192>
VStem: 48 170<0 170>
LayerCount: 2
Fore
SplineSet
127.192382812 500 m 1xb0
 285.192382812 500 l 1xb0
 274.838867188 434.62890625 l 1
 280.033203125 439.504882812 285.44140625 444.188476562 291.063476562 448.6796875 c 0
 307.698242188 461.96875 326.203125 473.576171875 346.579101562 483.5 c 0
 385.587890625 502.5 428.759765625 512 476.092773438 512 c 1
 449.166992188 342 l 1xd0
 405.166992188 342 365.7578125 331 330.940429688 309 c 0
 296.123046875 287 269.298828125 252.333007812 250.46875 205 c 5
 218 0 l 1
 48 0 l 1
 127.192382812 500 l 1xb0
EndSplineSet
EndChar

StartChar: s
Encoding: 115 115 44
GlifName: s
Width: 455
Flags: W
HStem: -12 151<169.639 273.513>
LayerCount: 2
Fore
SplineSet
484.877929688 397 m 1
 317.166015625 342 l 1
 315.271484375 349.561523438 311.826171875 355.172851562 306.833007812 358.8359375 c 0
 302.139648438 362.278320312 296.080078125 364 288.651367188 364 c 0
 279.984375 364 272.666992188 362 266.700195312 358 c 0
 260.734375 354 257.608398438 349 257.325195312 343 c 0
 256.978515625 331.793945312 271.004882812 325.213867188 299.405273438 323.258789062 c 0
 313.891601562 322.26171875 322.537109375 321.508789062 325.340820312 321 c 0
 359.659179688 314.774414062 387.233398438 301.984375 408.0625 282.627929688 c 0
 445.227539062 248.090820312 459.40625 203.547851562 450.598632812 149 c 0
 440.814453125 93.2861328125 411.685546875 50.384765625 363.213867188 20.2958984375 c 0
 328.529296875 -1.234375 283.82421875 -12 229.098632812 -12 c 0
 183.204101562 -11.3330078125 142.76171875 -1.5 107.770507812 17.5 c 0
 72.7802734375 36.5 51.626953125 65 44.3125 103 c 1
 214.499023438 161 l 1
 218.842773438 146.333007812 229.014648438 139 245.014648438 139 c 0
 256.043945312 139 264.311523438 140.692382812 269.818359375 144.078125 c 0
 274.962890625 147.241210938 277.698242188 151.881835938 278.0234375 158 c 0
 278.350585938 168.096679688 258.793945312 175.049804688 219.352539062 178.857421875 c 0
 211.69140625 179.596679688 205.962890625 180.311523438 202.166992188 181 c 0
 157.08203125 189.178710938 125.159179688 208.395507812 106.3984375 238.650390625 c 0
 87.638671875 268.905273438 81.052734375 304.35546875 86.6416015625 345 c 0
 95.1943359375 399 121.381835938 440.166992188 165.202148438 468.5 c 0
 209.022460938 496.833007812 256.986328125 511.333007812 309.091796875 512 c 0
 358.986328125 512.34375 398.731445312 502.3203125 428.329101562 481.9296875 c 0
 456.137695312 462.771484375 474.986328125 434.461914062 484.877929688 397 c 1
EndSplineSet
EndChar

StartChar: t
Encoding: 116 116 45
GlifName: t
Width: 399
Flags: W
HStem: 0 21G<290.667 374.168> 330 170<92.1924 140.267 337.192 423.267>
LayerCount: 2
Fore
SplineSet
191.900390625 656 m 1
 361.900390625 656 l 1
 337.192382812 500 l 1
 450.192382812 500 l 1
 423.266601562 330 l 1
 310.266601562 330 l 1
 295.220703125 235 l 2
 292.369140625 217 296.2734375 201.666992188 306.934570312 189 c 0
 317.595703125 176.333007812 331.92578125 170 349.92578125 170 c 2
 397.92578125 170 l 1
 371 0 l 1
 323 0 l 2
 258.333007812 0 206.642578125 23 167.928710938 69 c 0
 129.213867188 115 114.978515625 170.333007812 125.220703125 235 c 2
 140.266601562 330 l 1
 65.2666015625 330 l 1
 92.1923828125 500 l 1
 167.192382812 500 l 1
 191.900390625 656 l 1
EndSplineSet
EndChar

StartChar: u
Encoding: 117 117 46
GlifName: u
Width: 579
Flags: W
HStem: -12 170<264.872 371.585> 480 20G<119.025 292.192 442.025 615.192>
VStem: 122.192 170<330 500> 445.192 170<330 500>
LayerCount: 2
Fore
SplineSet
122.192382812 500 m 1
 292.192382812 500 l 1
 250.424804688 236.2890625 l 2
 246.733398438 212.983398438 251.084960938 194.109375 263.477539062 179.666015625 c 0
 275.872070312 165.221679688 292.88671875 158 314.524414062 158 c 0
 336.162109375 158 355.465820312 165.221679688 372.434570312 179.666015625 c 0
 389.403320312 194.109375 399.733398438 212.983398438 403.424804688 236.2890625 c 2
 445.192382812 500 l 1
 615.192382812 500 l 1
 574.645507812 244 l 2
 563.2421875 172 529.633789062 111.333007812 473.8203125 62 c 0
 418.005859375 12.6669921875 355.932617188 -12 287.599609375 -12 c 0
 219.266601562 -12 165.005859375 12.6669921875 124.8203125 62 c 0
 84.6337890625 111.333007812 70.2421875 172 81.6455078125 244 c 2
 122.192382812 500 l 1
EndSplineSet
EndChar

StartChar: v
Encoding: 118 118 47
GlifName: v
Width: 590
Flags: W
HStem: 0 21G<198.848 397.008> 480 20G<87.1924 273.865 468.165 661.192>
VStem: 87.1924 182<318 500>
LayerCount: 2
Fore
SplineSet
87.1923828125 500 m 1
 269.192382812 500 l 1
 331.688476562 232.484375 l 1
 479.192382812 500 l 1
 661.192382812 500 l 1
 386 0 l 1
 203.5 0 l 1
 87.1923828125 500 l 1
EndSplineSet
EndChar

StartChar: w
Encoding: 119 119 48
GlifName: w
Width: 852
Flags: W
HStem: 0 21G<171.208 362.648 495.208 686.648> 480 20G<92.1924 273.505 406.525 597.505 730.525 918.192>
VStem: 92.1924 178<322 500>
LayerCount: 2
Fore
SplineSet
740.192382812 500 m 1
 918.192382812 500 l 1
 677 0 l 1
 498.5 0 l 1
 461.48046875 224.883789062 l 1
 353 0 l 1
 174.5 0 l 1
 92.1923828125 500 l 1
 270.192382812 500 l 1
 307.44921875 275.038085938 l 1
 416.192382812 500 l 1
 594.192382812 500 l 1
 631.44921875 275.038085938 l 1
 740.192382812 500 l 1
EndSplineSet
EndChar

StartChar: x
Encoding: 120 120 49
GlifName: x
Width: 565
Flags: W
HStem: 0 21G<13 235.488 336.808 552> 480 20G<92.1924 306.425 410.625 631.192>
LayerCount: 2
Fore
SplineSet
298.1015625 95.9521484375 m 1
 219 0 l 1
 13 0 l 1
 219.787109375 249.625976562 l 1
 92.1923828125 500 l 1
 296.192382812 500 l 1
 346.208007812 402.239257812 l 1
 427.192382812 500 l 1
 631.192382812 500 l 1
 424.479492188 249.251953125 l 1
 552 0 l 1
 347 0 l 1
 298.1015625 95.9521484375 l 1
EndSplineSet
EndChar

StartChar: y
Encoding: 121 121 50
GlifName: y
Width: 622
Flags: W
HStem: -212 170<86.3477 208.94> 480 20G<84.1924 275.971 500.63 696.192>
VStem: 84.1924 186<314 500>
LayerCount: 2
Fore
SplineSet
84.1923828125 500 m 1
 270.192382812 500 l 1
 350.833007812 220.900390625 l 1
 512.192382812 500 l 1
 696.192382812 500 l 1
 362.797851562 -77.76953125 l 2
 337.903320312 -118.618164062 304.16015625 -151.182617188 261.569335938 -175.462890625 c 0
 218.979492188 -199.743164062 174.9296875 -211.921875 129.422851562 -212 c 2
 59.4228515625 -212 l 1
 86.34765625 -42 l 1
 156.34765625 -42 l 2
 170.407226562 -41.9501953125 182.487304688 -39.3349609375 192.590820312 -34.15234375 c 0
 202.893554688 -28.8681640625 211.138671875 -20.9140625 217.326171875 -10.291015625 c 2
 226.66015625 5.736328125 l 1
 84.1923828125 500 l 1
EndSplineSet
EndChar

StartChar: z
Encoding: 122 122 51
GlifName: z
Width: 454
Flags: W
HStem: 0 170<293.426 431> 330 170<102.192 239.767>
LayerCount: 2
Fore
SplineSet
23 0 m 1
 49.92578125 170 l 1
 239.766601562 330 l 1
 75.2666015625 330 l 1
 102.192382812 500 l 1
 510.192382812 500 l 1
 483.266601562 330 l 1
 293.42578125 170 l 1
 457.92578125 170 l 1
 431 0 l 1
 23 0 l 1
EndSplineSet
EndChar

StartChar: bracketleft
Encoding: 91 91 52
GlifName: bracketleft
Width: 368
Flags: W
LayerCount: 2
Fore
SplineSet
340.548828125 799 m 6
 298.548828125 799 260.559570312 784.333007812 226.580078125 755 c 4
 192.6015625 725.666992188 172.28515625 690 165.6328125 648 c 6
 71.0771484375 51 l 6
 64.42578125 9 73.443359375 -26.6669921875 98.130859375 -56 c 4
 122.817382812 -85.3330078125 156.161132812 -100 198.161132812 -100 c 6
 309.161132812 -100 l 5
 336.086914062 70 l 5
 245.086914062 70 l 6
 244.419921875 70 244.139648438 70.3330078125 244.245117188 71 c 6
 332.465820312 628 l 6
 332.571289062 628.666992188 332.95703125 629 333.624023438 629 c 6
 424.624023438 629 l 5
 451.548828125 799 l 5
 340.548828125 799 l 6
EndSplineSet
EndChar

StartChar: backslash
Encoding: 92 92 53
GlifName: backslash
Width: 455
Flags: W
LayerCount: 2
Fore
SplineSet
297.571289062 747 m 5
 127.689453125 693.76171875 l 5
 261.63671875 -87.861328125 l 5
 431.516601562 -34.62109375 l 5
 297.571289062 747 l 5
EndSplineSet
EndChar

StartChar: bracketright
Encoding: 93 93 54
GlifName: bracketright
Width: 368
Flags: W
HStem: -100 170<54.0869 147.931>
LayerCount: 2
Fore
SplineSet
280.548828125 799 m 6
 322.548828125 799 355.893554688 784.333007812 380.580078125 755 c 4
 405.267578125 725.666992188 414.28515625 690 407.6328125 648 c 6
 313.077148438 51 l 6
 306.42578125 9 286.109375 -26.6669921875 252.130859375 -56 c 4
 218.151367188 -85.3330078125 180.161132812 -100 138.161132812 -100 c 6
 27.1611328125 -100 l 5
 54.0869140625 70 l 5
 145.086914062 70 l 6
 145.75390625 70 146.139648438 70.3330078125 146.245117188 71 c 6
 234.465820312 628 l 6
 234.571289062 628.666992188 234.291015625 629 233.624023438 629 c 6
 142.624023438 629 l 5
 169.548828125 799 l 5
 280.548828125 799 l 6
EndSplineSet
EndChar

StartChar: asciicircum
Encoding: 94 94 55
GlifName: asciicircum
Width: 617
Flags: W
HStem: 373 327<512.869 513.869>
VStem: 416.077 187<373 560>
LayerCount: 2
Fore
SplineSet
416.077148438 373 m 1
 330.869140625 700 l 1
 513.869140625 700 l 1
 603.077148438 373 l 1
 416.077148438 373 l 1
132.077148438 373 m 1
 330.869140625 700 l 1
 512.869140625 700 l 1
 319.077148438 373 l 1
 132.077148438 373 l 1
EndSplineSet
EndChar

StartChar: underscore
Encoding: 95 95 56
GlifName: underscore
Width: 466
Flags: W
HStem: -170 170<23 416.074>
LayerCount: 2
Fore
SplineSet
-3.92578125 -170 m 1
 23 0 l 1
 443 0 l 1
 416.07421875 -170 l 1
 -3.92578125 -170 l 1
EndSplineSet
EndChar

StartChar: grave
Encoding: 96 96 57
GlifName: grave
Width: 308
Flags: W
HStem: 554 147<219.745 313.027>
VStem: 117.027 278.718
LayerCount: 2
Fore
SplineSet
219.745117188 554 m 5
 117.02734375 701 l 5
 313.02734375 701 l 5
 395.745117188 554 l 5
 219.745117188 554 l 5
EndSplineSet
EndChar

StartChar: zero
Encoding: 48 48 58
GlifName: zero
Width: 644
Flags: W
HStem: -12 169.516<282.123 419.247> 542.484 169.516<335.622 472.747>
LayerCount: 2
Fore
SplineSet
407.920898438 542.484375 m 0
 384.475585938 542.484375 363.497070312 537.185546875 344.985351562 526.586914062 c 0
 326.47265625 515.98828125 311.241210938 501.270507812 299.291015625 482.43359375 c 0
 287.340820312 463.595703125 277.666992188 443.360351562 270.268554688 421.728515625 c 0
 262.87109375 400.096679688 257.09765625 376.186523438 252.950195312 350 c 0
 248.802734375 323.813476562 247.001953125 299.903320312 247.547851562 278.271484375 c 0
 248.092773438 256.639648438 251.356445312 236.404296875 257.33984375 217.56640625 c 0
 263.323242188 198.729492188 273.892578125 184.01171875 289.047851562 173.413085938 c 0
 304.202148438 162.814453125 323.502929688 157.515625 346.948242188 157.515625 c 0
 370.393554688 157.515625 391.372070312 162.814453125 409.883789062 173.413085938 c 0
 428.396484375 184.01171875 443.627929688 198.729492188 455.578125 217.56640625 c 0
 467.528320312 236.404296875 477.202148438 256.639648438 484.600585938 278.271484375 c 0
 491.998046875 299.903320312 497.771484375 323.813476562 501.918945312 350 c 0
 506.06640625 376.186523438 507.868164062 400.096679688 507.322265625 421.728515625 c 0
 506.77734375 443.360351562 503.512695312 463.595703125 497.529296875 482.43359375 c 0
 491.546875 501.271484375 480.977539062 515.989257812 465.822265625 526.586914062 c 0
 450.666992188 537.185546875 431.366210938 542.484375 407.920898438 542.484375 c 0
434.76953125 712 m 0
 480.8125 712 521.14453125 702.088867188 555.763671875 682.266601562 c 0
 620.90625 644.96875 660.15625 579.815429688 673.513671875 486.80859375 c 0
 679.724609375 443.568359375 679.03125 397.965820312 671.434570312 350 c 0
 663.837890625 302.034179688 650.0859375 256.431640625 630.177734375 213.19140625 c 0
 587.357421875 120.184570312 527.46875 55.03125 450.51171875 17.7333984375 c 0
 409.61328125 -2.0888671875 366.142578125 -12 320.099609375 -12 c 0
 274.056640625 -12 233.724609375 -2.0888671875 199.10546875 17.7333984375 c 0
 133.962890625 55.03125 94.712890625 120.184570312 81.35546875 213.19140625 c 0
 75.14453125 256.431640625 75.837890625 302.034179688 83.4345703125 350 c 0
 91.03125 397.965820312 104.783203125 443.568359375 124.69140625 486.80859375 c 0
 167.51171875 579.815429688 227.400390625 644.96875 304.357421875 682.266601562 c 0
 345.255859375 702.088867188 388.7265625 712 434.76953125 712 c 0
EndSplineSet
EndChar

StartChar: one
Encoding: 49 49 59
GlifName: one
Width: 490
Flags: W
HStem: 0 21G<237 410.168> 680 20G<320.866 517.869>
VStem: 237 170<0 170>
LayerCount: 2
Fore
SplineSet
347.869140625 700 m 1
 517.869140625 700 l 1
 407 0 l 1
 237 0 l 1
 312.720703125 478.081054688 l 1
 210.875976562 402.647460938 l 1
 122.227539062 532.875 l 1
 347.869140625 700 l 1
EndSplineSet
EndChar

StartChar: two
Encoding: 50 50 60
GlifName: two
Width: 530
Flags: W
HStem: 0 170<300.569 495.2> 543 170<292.782 389.753>
LayerCount: 2
Fore
SplineSet
367.627929688 713 m 0
 432.241210938 713 485.173828125 690.237304688 526.422851562 644.7109375 c 0
 567.671875 599.185546875 583.28515625 544.782226562 573.26171875 481.5 c 0
 562.041992188 412.108398438 531.2265625 356.407226562 480.817382812 314.39453125 c 2
 300.569335938 170 l 1
 522.125976562 170 l 1
 495.200195312 0 l 1
 23.2001953125 0 l 1
 50.1259765625 170 l 1
 369.42578125 426.28125 l 2
 388.796875 443.00390625 400.073242188 461.41015625 403.254882812 481.5 c 0
 406.244140625 500.373046875 401.926757812 515.357421875 390.299804688 526.453125 c 0
 378.674804688 537.547851562 364.141601562 543.063476562 346.703125 543 c 0
 329.514648438 542.936523438 313.541015625 537.802734375 298.783203125 527.596679688 c 0
 284.0234375 517.390625 274.484375 503.42578125 270.165039062 485.702148438 c 1
 108.42578125 518.140625 l 1
 126.30078125 574.233398438 159.765625 620.717773438 208.819335938 657.594726562 c 0
 257.873046875 694.471679688 310.809570312 712.940429688 367.627929688 713 c 0
EndSplineSet
EndChar

StartChar: three
Encoding: 51 51 61
GlifName: three
Width: 523
Flags: W
HStem: -9.875 169.975<227.482 335.472> 502.371 21G<193.329 272.681> 542 170<282.143 385.938>
LayerCount: 2
Fore
SplineSet
369.26953125 712 m 0
 432.602539062 712 483.583984375 690.833007812 522.211914062 648.5 c 0
 560.840820312 606.166992188 575.403320312 555 565.900390625 495 c 0
 561.956054688 470.2265625 550.252929688 443.893554688 530.7890625 416 c 0
 516.978515625 396.20703125 499.260742188 375.62890625 477.635742188 354.265625 c 1
 491.997070312 334.280273438 503.083984375 314.858398438 510.89453125 296 c 0
 523.418945312 265.760742188 527.521484375 236.96875 523.201171875 209.625 c 0
 513.626953125 149.17578125 482.465820312 97.455078125 429.716796875 54.4638671875 c 0
 376.969726562 11.47265625 318.708007812 -9.9736328125 254.935546875 -9.875 c 0
 200.4140625 -9.791015625 153.334960938 6.2666015625 113.69921875 38.2978515625 c 0
 74.0625 70.328125 52.421875 110.848632812 48.7763671875 159.857421875 c 1
 220.390625 199.215820312 l 1
 221.846679688 185.92578125 228.689453125 176.083984375 240.91796875 169.690429688 c 0
 253.147460938 163.296875 267.4609375 160.099609375 283.857421875 160.099609375 c 0
 299.3671875 160.099609375 314.294921875 165.150390625 328.640625 175.252929688 c 0
 342.985351562 185.35546875 351.383789062 198.146484375 353.834960938 213.625 c 0
 356.43359375 230.033203125 352.776367188 243.2890625 342.86328125 253.391601562 c 0
 332.951171875 263.494140625 318.340820312 268.545898438 299.033203125 268.545898438 c 2
 265.033203125 268.545898438 l 1
 291.958984375 438.545898438 l 1
 325.958984375 438.545898438 l 2
 344.125976562 438.545898438 359.630859375 443.579101562 372.475585938 453.646484375 c 0
 385.3203125 463.713867188 393.022460938 476.831054688 395.583984375 493 c 0
 398.01171875 508.333007812 393.74609375 520.333007812 382.78515625 529 c 0
 371.825195312 537.666992188 358.344726562 542 342.344726562 542 c 0
 321.645507812 542 304.984375 537.826171875 292.361328125 529.477539062 c 0
 282.529296875 522.974609375 275.146484375 513.938476562 270.21484375 502.37109375 c 1
 111.810546875 543.576171875 l 1
 130.678710938 592.197265625 164.79296875 632.422851562 214.15234375 664.25390625 c 0
 263.51171875 696.084960938 315.217773438 712 369.26953125 712 c 0
EndSplineSet
EndChar

StartChar: four
Encoding: 52 52 62
GlifName: four
Width: 611
Flags: W
HStem: 0 21G<321 494.168> 108 170<244.262 338.105 535.031 595.105> 680.439 20G<314.206 366.709>
VStem: 394.648 170<295 465>
LayerCount: 2
Fore
SplineSet
326.987304688 700.439453125 m 1
 469.680664062 628.59375 l 1
 244.26171875 278 l 1
 365.03125 278 l 1
 394.6484375 465 l 1
 564.6484375 465 l 1
 535.03125 278 l 1
 622.03125 278 l 1
 595.10546875 108 l 1
 508.10546875 108 l 1
 491 0 l 1
 321 0 l 1
 338.10546875 108 l 1
 30.10546875 108 l 1
 57.03125 278 l 1
 326.987304688 700.439453125 l 1
EndSplineSet
EndChar

StartChar: five
Encoding: 53 53 63
GlifName: five
Width: 547
Flags: W
HStem: -12 170<237.126 356.09> 530 170<336.76 556.76>
LayerCount: 2
Fore
SplineSet
193.685546875 700 m 1
 583.685546875 700 l 1
 556.759765625 530 l 1
 336.759765625 530 l 1
 325.672851562 460 l 1
 351.856445312 460 l 2
 416.5234375 460 468.1875 436.833007812 506.849609375 390.5 c 0
 545.510742188 344.166992188 559.666992188 288.333007812 549.319335938 223 c 0
 539.077148438 158.333007812 507.313476562 103 454.028320312 57 c 0
 400.7421875 11 341.766601562 -12 277.099609375 -12 c 0
 215.348632812 -11.9423828125 164.96875 3.828125 125.958007812 35.310546875 c 0
 86.947265625 66.79296875 64.3486328125 108.36328125 58.1611328125 160.021484375 c 1
 230.25390625 189.541015625 l 1
 238.986328125 168.513671875 262.2421875 158 300.024414062 158 c 0
 320.69140625 158 338.334960938 164.166992188 352.955078125 176.5 c 0
 367.575195312 188.833007812 376.36328125 204.333007812 379.319335938 223 c 0
 382.170898438 241 378.319335938 256.666992188 367.763671875 270 c 0
 357.208984375 283.333007812 342.931640625 290 324.931640625 290 c 2
 128.748046875 290 l 1
 193.685546875 700 l 1
EndSplineSet
EndChar

StartChar: six
Encoding: 54 54 64
GlifName: six
Width: 555
Flags: W
HStem: -12 170<253.722 358.354> 692 20G<370.109 580.617>
LayerCount: 2
Fore
SplineSet
326.123046875 306.994140625 m 0
 305.133789062 306.994140625 286.333984375 299.825195312 269.724609375 285.48828125 c 0
 253.115234375 271.151367188 243.1484375 253.489257812 239.82421875 232.5 c 0
 236.5 211.510742188 240.87109375 193.846679688 252.939453125 179.5078125 c 0
 265.006835938 165.168945312 281.53515625 158 302.524414062 158 c 0
 323.513671875 158 342.313476562 165.168945312 358.923828125 179.5078125 c 0
 375.533203125 193.846679688 385.5 211.510742188 388.82421875 232.5 c 0
 392.1484375 253.489257812 387.77734375 271.151367188 375.708984375 285.48828125 c 0
 363.640625 299.825195312 347.112304688 306.994140625 326.123046875 306.994140625 c 0
384.787109375 712 m 1
 580.6171875 712 l 1
 398.250976562 464.4375 l 1
 406.53125 463.205078125 414.541015625 461.564453125 422.280273438 459.514648438 c 0
 465.416992188 448.08984375 500.142578125 423.977539062 526.455078125 387.17578125 c 0
 557.48828125 343.771484375 568.278320312 292.212890625 558.82421875 232.5 c 0
 548.130859375 164.983398438 515.131835938 107.353515625 459.829101562 59.6123046875 c 0
 404.526367188 11.87109375 343.116210938 -12 275.599609375 -12 c 0
 208.083007812 -12 154.233398438 11.87109375 114.053710938 59.6123046875 c 0
 73.8740234375 107.353515625 59.130859375 164.983398438 69.82421875 232.5 c 0
 76.8857421875 275.797851562 94.2197265625 316.19140625 121.822265625 353.6796875 c 2
 384.787109375 712 l 1
EndSplineSet
EndChar

StartChar: seven
Encoding: 55 55 65
GlifName: seven
Width: 579
Flags: W
HStem: 0 21G<111.283 311.351> 530 170<138.869 442.369>
LayerCount: 2
Fore
SplineSet
111.943359375 530 m 1
 138.869140625 700 l 1
 656.869140625 700 l 1
 629.943359375 530 l 1
 298.857421875 0 l 1
 111.283203125 0 l 1
 442.369140625 530 l 1
 111.943359375 530 l 1
EndSplineSet
EndChar

StartChar: eight
Encoding: 56 56 66
GlifName: eight
Width: 570
Flags: W
HStem: -12 164<252.487 374.22> 281.521 170<316.934 383.73> 546 166<317.666 415.032>
LayerCount: 2
Fore
SplineSet
329.588867188 281.520507812 m 0
 307.412109375 281.520507812 287.219726562 275.461914062 269.013671875 263.344726562 c 0
 250.806640625 251.2265625 240.178710938 235.536132812 237.126953125 216.2734375 c 0
 234.084960938 197.06640625 239.747070312 181.552734375 254.112304688 169.731445312 c 0
 268.478515625 157.91015625 286.798828125 152 309.07421875 152 c 0
 331.349609375 152 351.54296875 157.91015625 369.653320312 169.731445312 c 0
 387.762695312 181.552734375 398.338867188 197.06640625 401.380859375 216.2734375 c 0
 404.432617188 235.536132812 398.7734375 251.2265625 384.40625 263.344726562 c 0
 370.038085938 275.461914062 351.765625 281.520507812 329.588867188 281.520507812 c 0
371.477539062 546 m 0
 354.892578125 546 340.174804688 541.743164062 327.321289062 533.23046875 c 0
 314.469726562 524.717773438 306.907226562 513.286132812 304.633789062 498.935546875 c 0
 302.357421875 484.563476562 306.297851562 473.068359375 316.455078125 464.44921875 c 0
 326.612304688 455.830078125 339.965820312 451.520507812 356.513671875 451.520507812 c 0
 373.0546875 451.520507812 387.75390625 455.829101562 400.611328125 464.4453125 c 0
 413.469726562 473.0625 421.038085938 484.559570312 423.314453125 498.935546875 c 0
 425.587890625 513.291015625 421.662109375 524.723632812 411.534179688 533.234375 c 0
 401.40625 541.745117188 388.0546875 546 371.477539062 546 c 0
397.76953125 712 m 0
 464.060546875 712 516.03125 694.216796875 553.6796875 658.649414062 c 0
 591.330078125 623.08203125 605.643554688 576.8125 596.620117188 519.842773438 c 0
 587.596679688 462.873046875 558.626953125 416.604492188 509.7109375 381.037109375 c 0
 507.547851562 379.463867188 505.366210938 377.92578125 503.168945312 376.421875 c 1
 509.9609375 371.384765625 516.411132812 365.911132812 522.518554688 360 c 0
 563.849609375 320 579.447265625 268 569.310546875 204 c 0
 559.173828125 140 527.104492188 88 473.102539062 48 c 0
 419.099609375 8 355.766601562 -12 283.099609375 -12 c 0
 210.432617188 -12 153.43359375 8 112.102539062 48 c 0
 70.7705078125 88 55.173828125 140 65.310546875 204 c 0
 75.447265625 268 107.515625 320 161.518554688 360 c 0
 169.499023438 365.911132812 177.681640625 371.384765625 186.069335938 376.421875 c 1
 184.348632812 377.92578125 182.655273438 379.463867188 180.990234375 381.037109375 c 0
 143.33984375 416.604492188 129.026367188 462.873046875 138.049804688 519.842773438 c 0
 147.073242188 576.8125 176.04296875 623.08203125 224.958984375 658.649414062 c 0
 273.875 694.216796875 331.478515625 712 397.76953125 712 c 0
EndSplineSet
EndChar

StartChar: nine
Encoding: 57 57 67
GlifName: nine
Width: 555
Flags: W
HStem: 0 21G<77.1484 288.632> 542 170<307.578 412.116>
LayerCount: 2
Fore
SplineSet
339.7421875 393.005859375 m 0
 360.731445312 393.005859375 379.53125 400.174804688 396.140625 414.51171875 c 0
 412.75 428.848632812 422.716796875 446.510742188 426.041015625 467.5 c 0
 429.365234375 488.489257812 424.994140625 506.153320312 412.92578125 520.4921875 c 0
 400.858398438 534.831054688 384.330078125 542 363.340820312 542 c 0
 342.3515625 542 323.551757812 534.831054688 306.94140625 520.4921875 c 0
 290.33203125 506.153320312 280.365234375 488.489257812 277.041015625 467.5 c 0
 273.716796875 446.510742188 278.087890625 428.848632812 290.15625 414.51171875 c 0
 302.224609375 400.174804688 318.752929688 393.005859375 339.7421875 393.005859375 c 0
272.978515625 0 m 1
 77.1484375 0 l 1
 267.614257812 235.5625 l 1
 259.2265625 236.520507812 251.216796875 238.162109375 243.584960938 240.485351562 c 0
 200.767578125 252.162109375 166.04296875 276.274414062 139.41015625 312.82421875 c 0
 108.713867188 356.274414062 97.923828125 407.833007812 107.041015625 467.5 c 0
 117.424804688 535.166992188 150.422851562 592.795898438 206.036132812 640.387695312 c 0
 261.522460938 688.12890625 322.932617188 712 390.265625 712 c 0
 457.598632812 712 511.448242188 688.12890625 551.811523438 640.387695312 c 0
 592.348632812 592.795898438 607.090820312 535.166992188 596.041015625 467.5 c 0
 588.897460938 424.5 571.564453125 384.106445312 544.04296875 346.3203125 c 2
 272.978515625 0 l 1
EndSplineSet
EndChar

StartChar: exclam
Encoding: 33 33 68
GlifName: exclam
Width: 332
Flags: W
HStem: -16 206<129.403 230.156> 680 20G<188.701 361.869>
VStem: 120.755 170<251 421> 191.869 170<530 700>
LayerCount: 2
Fore
SplineSet
191.869140625 700 m 5xd0
 361.869140625 700 l 5xd0
 290.754882812 251 l 5
 120.754882812 251 l 5xe0
 191.869140625 700 l 5xd0
196.092773438 190 m 4
 224.759765625 190 247.508789062 180 264.341796875 160 c 4
 281.173828125 140 287.3203125 115.666992188 282.779296875 87 c 4
 278.239257812 58.3330078125 264.384765625 34 241.217773438 14 c 4
 218.049804688 -6 192.1328125 -16 163.465820312 -16 c 4
 134.798828125 -16 112.049804688 -6 95.2177734375 14 c 4
 78.384765625 34 72.2392578125 58.3330078125 76.779296875 87 c 4
 81.3203125 115.666992188 95.173828125 140 118.341796875 160 c 4
 141.508789062 180 167.42578125 190 196.092773438 190 c 4
EndSplineSet
EndChar

StartChar: quotedbl
Encoding: 34 34 69
GlifName: quotedbl
Width: 554
Flags: W
HStem: 440 276<191.903 318.189 425.903 552.189>
LayerCount: 2
Fore
SplineSet
425.903320312 716 m 1
 619.903320312 716 l 1
 552.189453125 440 l 1
 406.189453125 440 l 1
 425.903320312 716 l 1
191.903320312 716 m 1
 385.903320312 716 l 1
 318.189453125 440 l 1
 172.189453125 440 l 1
 191.903320312 716 l 1
EndSplineSet
EndChar

StartChar: numbersign
Encoding: 35 35 70
GlifName: numbersign
Width: 639
Flags: W
HStem: 0 21G<56.9258 236.243 291.92 471.237> 144 170<56.9824 105.125 334.648 340.119 569.642 620.073> 680 20G<284.53 463.848 519.524 698.84>
LayerCount: 2
Fore
SplineSet
526.21875 700 m 1
 698.83984375 700 l 1
 647.293945312 546 l 1
 734.625976562 546 l 1
 677.724609375 376 l 1
 590.393554688 376 l 1
 569.641601562 314 l 1
 676.97265625 314 l 1
 620.073242188 144 l 1
 512.741210938 144 l 1
 464.54296875 0 l 1
 291.919921875 0 l 1
 340.119140625 144 l 1
 277.748046875 144 l 1
 229.548828125 0 l 1
 56.92578125 0 l 1
 105.125 144 l 1
 0.0810546875 144 l 1
 56.982421875 314 l 1
 162.025390625 314 l 1
 182.778320312 376 l 1
 77.734375 376 l 1
 134.633789062 546 l 1
 239.678710938 546 l 1
 291.224609375 700 l 1
 463.84765625 700 l 1
 412.301757812 546 l 1
 474.672851562 546 l 1
 526.21875 700 l 1
417.772460938 376 m 1
 355.401367188 376 l 1
 334.6484375 314 l 1
 397.01953125 314 l 1
 417.772460938 376 l 1
EndSplineSet
EndChar

StartChar: dollar
Encoding: 36 36 71
GlifName: dollar
Width: 560
Flags: W
HStem: -91 248.998<240.467 344.587> 507.826 21G<418.214 496.383> 542 249<314.282 414.776>
LayerCount: 2
Fore
SplineSet
314.282226562 791 m 1
 484.282226562 791 l 1
 469.666015625 698.71875 l 1
 490.131835938 691.330078125 508.8984375 680.859375 525.966796875 667.306640625 c 0
 563.489257812 637.51171875 584.833007812 599.040039062 589.995117188 551.890625 c 1
 418.58203125 507.826171875 l 1
 417.846679688 518.063476562 412.1640625 526.318359375 401.533203125 532.590820312 c 0
 390.901367188 538.86328125 377.671875 542 361.844726562 542 c 0
 343.177734375 542 326.877929688 538 312.943359375 530 c 0
 299.009765625 522 290.881835938 510.666992188 288.55859375 496 c 0
 287.163085938 487.186523438 289.958007812 479.381835938 296.944335938 472.584960938 c 0
 307.924804688 461.899414062 329.262695312 453.704101562 360.956054688 448 c 0
 429.055664062 436 482.095703125 411 520.077148438 373 c 0
 558.05859375 335 571.928710938 283.666992188 561.686523438 219 c 0
 551.338867188 153.666992188 518.153320312 98.8330078125 462.131835938 54.5 c 0
 429.953125 29.03515625 395.578125 10.8837890625 359.006835938 0.0458984375 c 1
 344.586914062 -91 l 1
 174.586914062 -91 l 1
 189.270507812 1.7060546875 l 1
 166.78125 9.6552734375 146.12890625 21.0625 127.313476562 35.9287109375 c 0
 86.873046875 67.880859375 63.908203125 109.00390625 58.41796875 159.296875 c 1
 229.263671875 203.212890625 l 1
 230.708007812 190.01953125 238.275390625 179.185546875 251.96484375 170.709960938 c 0
 265.654296875 162.235351562 282.0078125 157.998046875 301.024414062 157.998046875 c 0
 323.810546875 157.998046875 343.877929688 163.4921875 361.225585938 174.481445312 c 0
 378.57421875 185.470703125 388.727539062 200.309570312 391.688476562 219 c 0
 393.900390625 232.96484375 389.829101562 244.951171875 379.475585938 254.958007812 c 0
 365.981445312 268 341.817382812 277.680664062 306.981445312 284 c 0
 244.109375 295.333007812 194.612304688 318.5 158.489257812 353.5 c 0
 122.365234375 388.5 109.055664062 436 118.55859375 496 c 0
 128.272460938 557.333007812 159.403320312 608.666992188 211.950195312 650 c 0
 239.3984375 671.590820312 268.591796875 687.54296875 299.529296875 697.85546875 c 1
 314.282226562 791 l 1
EndSplineSet
EndChar

StartChar: percent
Encoding: 37 37 72
GlifName: percent
Width: 937
Flags: W
HStem: -12 170<680.766 757.256> 0 21G<302.991 345.559> 198 170<717.129 793.619> 332 170<254.25 330.74> 542 170<290.614 367.103> 680 20G<704.697 747.265>
LayerCount: 2
Fore
SplineSet
767.28515625 368 m 4xa0
 819.952148438 368 861.85546875 349.5 892.995117188 312.5 c 4
 924.134765625 275.5 935.534179688 230.666992188 927.192382812 178 c 4
 918.850585938 125.333007812 893.25 80.5 850.389648438 43.5 c 4
 807.529296875 6.5 759.766601562 -12 707.099609375 -12 c 4
 654.432617188 -12 612.529296875 6.5 581.389648438 43.5 c 4
 550.25 80.5 538.850585938 125.333007812 547.192382812 178 c 4
 555.534179688 230.666992188 581.134765625 275.5 623.995117188 312.5 c 4
 666.85546875 349.5 714.618164062 368 767.28515625 368 c 4xa0
740.360351562 198 m 4
 735.02734375 198 730.04296875 196 725.41015625 192 c 4
 720.776367188 188 718.037109375 183.333007812 717.192382812 178 c 4
 716.34765625 172.666992188 717.608398438 168 720.974609375 164 c 4
 724.341796875 160 728.69140625 158 734.024414062 158 c 4
 739.357421875 158 744.341796875 160 748.974609375 164 c 4
 753.608398438 168 756.34765625 172.666992188 757.192382812 178 c 4
 758.037109375 183.333007812 756.776367188 188 753.41015625 192 c 4
 750.04296875 196 745.693359375 198 740.360351562 198 c 4
721.869140625 700 m 5x44
 845.681640625 602.4921875 l 5
 328.38671875 0 l 5
 204.57421875 97.5078125 l 5
 721.869140625 700 l 5x44
340.76953125 712 m 4x18
 393.436523438 712 435.33984375 693.5 466.479492188 656.5 c 4
 497.619140625 619.5 509.018554688 574.666992188 500.676757812 522 c 4
 492.334960938 469.333007812 466.734375 424.5 423.874023438 387.5 c 4
 381.013671875 350.5 333.250976562 332 280.583984375 332 c 4
 227.916992188 332 186.013671875 350.5 154.874023438 387.5 c 4
 123.734375 424.5 112.334960938 469.333007812 120.676757812 522 c 4
 129.018554688 574.666992188 154.619140625 619.5 197.479492188 656.5 c 4
 240.33984375 693.5 288.102539062 712 340.76953125 712 c 4x18
313.844726562 542 m 4
 308.51171875 542 303.52734375 540 298.89453125 536 c 4
 294.260742188 532 291.521484375 527.333007812 290.676757812 522 c 4
 289.83203125 516.666992188 291.092773438 512 294.458984375 508 c 4
 297.826171875 504 302.17578125 502 307.508789062 502 c 4
 312.841796875 502 317.826171875 504 322.458984375 508 c 4
 327.092773438 512 329.83203125 516.666992188 330.676757812 522 c 4
 331.521484375 527.333007812 330.260742188 532 326.89453125 536 c 4
 323.52734375 540 319.177734375 542 313.844726562 542 c 4
EndSplineSet
EndChar

StartChar: ampersand
Encoding: 38 38 73
GlifName: ampersand
Width: 635
Flags: W
HStem: -12 167.911<240.185 341.142> 0 21G<415.168 648> 541.572 170.428<330.523 395.206>
LayerCount: 2
Fore
SplineSet
238.099609375 -12 m 0xa0
 178.973632812 -12.01171875 132.4453125 5.9033203125 98.515625 41.744140625 c 0
 64.5859375 77.5849609375 52.2802734375 123.622070312 61.5966796875 179.85546875 c 0
 67.751953125 217.008789062 81.892578125 253.985351562 104.018554688 290.786132812 c 0
 126.145507812 327.586914062 153.59375 356.315429688 186.366210938 376.971679688 c 0
 218.744140625 397.379882812 261.102539062 420.500976562 313.44140625 446.3359375 c 4
 338.407226562 458.659179688 358.25 468.713867188 372.969726562 476.5 c 0
 390.069335938 485.544921875 399.590820312 496.200195312 401.533203125 508.46484375 c 0
 402.913085938 517.1796875 400.889648438 524.875976562 395.462890625 531.5546875 c 0
 390.036132812 538.233398438 381.432617188 541.572265625 369.65234375 541.572265625 c 0
 357.733398438 541.572265625 347.965820312 538.36328125 340.350585938 531.946289062 c 0
 332.734375 525.528320312 328.220703125 517.866210938 326.810546875 508.958984375 c 0
 324.498046875 494.362304688 330.021484375 477.041992188 343.381835938 457 c 2
 648 0 l 1
 428 0 l 1x60
 197.018554688 360 l 2
 161.048828125 416.060546875 148.330078125 473.208007812 158.859375 531.442382812 c 0
 168.3515625 583.928710938 195.795898438 627.100585938 241.193359375 660.958007812 c 0
 286.591796875 694.815429688 337.676757812 711.829101562 394.450195312 712 c 0
 453.1328125 712.176757812 499.93359375 694.860351562 534.85546875 660.05078125 c 0
 569.776367188 625.2421875 582.76953125 579.55859375 573.834960938 523 c 0
 568.40625 488.62890625 557.762695312 457.631835938 541.90625 430.0078125 c 0
 526.049804688 402.384765625 498.809570312 374.270507812 460.188476562 345.6640625 c 0
 434.166992188 326.390625 405.233398438 310.60546875 373.387695312 298.307617188 c 0
 334.166015625 283.16015625 298.262695312 263.896484375 265.6796875 240.514648438 c 0
 248.559570312 228.23046875 238.038085938 216.723632812 234.116210938 205.99609375 c 0
 230.137695312 195.116210938 229.090820312 185.094726562 230.974609375 175.9296875 c 0
 232.064453125 170.627929688 235.021484375 166.37890625 239.845703125 163.182617188 c 0
 247.009765625 158.435546875 258.29296875 156.01171875 273.694335938 155.911132812 c 0
 291.322265625 155.796875 312.012695312 159.826171875 335.764648438 168 c 0
 374.077148438 181.184570312 410.815429688 198.783203125 445.98046875 220.797851562 c 0
 481.146484375 242.8125 507.499023438 268.212890625 525.040039062 297 c 1
 695.040039062 297 l 1
 668.897460938 213.271484375 610.838867188 139.670898438 520.864257812 76.197265625 c 0
 478.537109375 46.337890625 432.588867188 24.17578125 383.018554688 9.7109375 c 0
 333.448242188 -4.75390625 285.141601562 -11.9912109375 238.099609375 -12 c 0xa0
EndSplineSet
EndChar

StartChar: quotesingle
Encoding: 39 39 74
GlifName: quotesingle
Width: 320
Flags: W
HStem: 440 276<176.403 302.689>
VStem: 156.689 213.714
LayerCount: 2
Fore
SplineSet
176.403320312 716 m 1
 370.403320312 716 l 1
 302.689453125 440 l 1
 156.689453125 440 l 1
 176.403320312 716 l 1
EndSplineSet
EndChar

StartChar: parenleft
Encoding: 40 40 75
GlifName: parenleft
Width: 370
Flags: W
LayerCount: 2
Fore
SplineSet
336.630859375 799.318359375 m 1
 445.522460938 685.184570312 l 1
 398.624023438 638.787109375 359.928710938 586.63671875 329.436523438 528.731445312 c 0
 298.944335938 470.826171875 278.703125 411.249023438 268.709960938 350 c 0
 259.719726562 291.884765625 260.4453125 235.159179688 270.887695312 179.822265625 c 0
 281.330078125 124.485351562 300.90625 74.1435546875 329.616210938 28.796875 c 1
 194.25 -99.232421875 l 1
 150.408203125 -36.7314453125 120.26953125 33.158203125 103.834960938 110.438476562 c 0
 87.3984375 187.717773438 85.6904296875 267.571289062 98.7099609375 350 c 0
 111.802734375 432.447265625 138.814453125 512.318359375 179.743164062 589.614257812 c 0
 220.671875 666.91015625 272.967773438 736.811523438 336.630859375 799.318359375 c 1
EndSplineSet
EndChar

StartChar: parenright
Encoding: 41 41 76
GlifName: parenright
Width: 370
Flags: W
LayerCount: 2
Fore
SplineSet
286.84375 799.318359375 m 5
 330.706054688 736.811523438 360.859375 666.91015625 377.303710938 589.614257812 c 0
 393.748046875 512.318359375 395.458984375 432.447265625 382.434570312 350 c 0
 369.342773438 267.571289062 342.33984375 187.717773438 301.424804688 110.438476562 c 0
 260.509765625 33.158203125 208.232421875 -36.7314453125 144.591796875 -99.232421875 c 1
 144.591796875 -99.232421875 144.591796875 -99.232421875 49.7802734375 28.796875 c 1
 92.85546875 74.1435546875 128.37890625 124.485351562 156.350585938 179.822265625 c 0
 184.3203125 235.159179688 203.016601562 291.884765625 212.434570312 350 c 0
 221.84375 411.249023438 220.473632812 470.826171875 208.325195312 528.731445312 c 0
 196.174804688 586.63671875 173.999023438 638.787109375 141.797851562 685.184570312 c 1
 141.797851562 685.184570312 141.797851562 685.184570312 286.84375 799.318359375 c 5
EndSplineSet
EndChar

StartChar: asterisk
Encoding: 42 42 77
GlifName: asterisk
Width: 515
Flags: W
VStem: 285.828 170<546 716>
LayerCount: 2
Fore
SplineSet
121.780273438 498.345703125 m 5
 199.919921875 660.025390625 l 1
 378.538085938 598.83984375 l 1
 300.397460938 437.16015625 l 1
 121.780273438 498.345703125 l 5
258.568359375 307.852539062 m 1
 136.862304688 407.776367188 l 1
 278.614257812 567.961914062 l 1
 400.321289062 468.038085938 l 1
 258.568359375 307.852539062 l 1
507.157226562 407.776367188 m 1
 353.798828125 307.852539062 l 1
 262.788085938 468.038085938 l 1
 416.147460938 567.961914062 l 1
 507.157226562 407.776367188 l 1
524.005859375 660.025390625 m 1
 550.930664062 498.345703125 l 1
 352.930664062 437.16015625 l 1
 326.004882812 598.83984375 l 1
 524.005859375 660.025390625 l 1
285.828125 716 m 1
 455.828125 716 l 1
 424.467773438 518 l 1
 254.467773438 518 l 1
 285.828125 716 l 1
EndSplineSet
EndChar

StartChar: plus
Encoding: 43 43 78
GlifName: plus
Width: 626
Flags: W
HStem: 214 170<148.819 262.395 459.319 571.895>
LayerCount: 2
Fore
SplineSet
311.334960938 523 m 1
 481.334960938 523 l 1
 459.319335938 384 l 1
 598.819335938 384 l 1
 571.89453125 214 l 1
 432.39453125 214 l 1
 410.0625 73 l 1
 240.0625 73 l 1
 262.39453125 214 l 1
 121.89453125 214 l 1
 148.819335938 384 l 1
 289.319335938 384 l 1
 311.334960938 523 l 1
EndSplineSet
EndChar

StartChar: comma
Encoding: 44 44 79
GlifName: comma
Width: 292
Flags: W
HStem: -113 259<109.433 150.681>
VStem: 3.10254 287.021
LayerCount: 2
Fore
SplineSet
110.124023438 146 m 5
 290.124023438 146 l 5
 273.96875 44 224.961914062 -42.3330078125 143.102539062 -113 c 5
 3.1025390625 -113 l 5
 60.044921875 -31.2861328125 95.71875 55.0478515625 110.124023438 146 c 5
EndSplineSet
EndChar

StartChar: hyphen
Encoding: 45 45 80
GlifName: hyphen
Width: 466
Flags: W
HStem: 213 170<113.661 446.736>
LayerCount: 2
Fore
SplineSet
86.736328125 213 m 1
 113.661132812 383 l 1
 473.661132812 383 l 1
 446.736328125 213 l 1
 86.736328125 213 l 1
EndSplineSet
EndChar

StartChar: period
Encoding: 46 46 81
GlifName: period
Width: 292
Flags: W
HStem: -15 206<109.561 210.315>
VStem: 56.9375 206
LayerCount: 2
Fore
SplineSet
262.9375 88 m 0
 258.397460938 59.3330078125 244.54296875 35 221.375976562 15 c 0
 198.208007812 -5 172.291015625 -15 143.624023438 -15 c 0
 114.95703125 -15 92.2080078125 -5 75.3759765625 15 c 0
 58.54296875 35 52.3974609375 59.3330078125 56.9375 88 c 0
 61.478515625 116.666992188 75.33203125 141 98.5 161 c 0
 121.66796875 181 147.583984375 191 176.250976562 191 c 0
 204.91796875 191 227.66796875 181 244.5 161 c 0
 261.33203125 141 267.478515625 116.666992188 262.9375 88 c 0
EndSplineSet
EndChar

StartChar: slash
Encoding: 47 47 82
GlifName: slash
Width: 455
Flags: W
LayerCount: 2
Fore
SplineSet
393.864257812 747 m 5
 546.880859375 693.76171875 l 5
 165.33984375 -87.861328125 l 5
 12.3251953125 -34.62109375 l 5
 393.864257812 747 l 5
EndSplineSet
EndChar

StartChar: colon
Encoding: 58 58 83
GlifName: colon
Width: 352
Flags: W
HStem: -1 206<142.341 241.969> 294 206<189.065 288.692>
VStem: 89.1553 252.724
LayerCount: 2
Fore
SplineSet
222.565429688 294 m 256
 194.565429688 294 172.008789062 304.166992188 154.895507812 324.5 c 0
 137.783203125 344.833007812 131.444335938 369 135.87890625 397 c 256
 140.313476562 425 154.307617188 449.166992188 177.861328125 469.5 c 0
 201.415039062 489.833007812 227.192382812 500 255.192382812 500 c 256
 283.192382812 500 305.749023438 489.833007812 322.861328125 469.5 c 0
 339.973632812 449.166992188 346.313476562 425 341.87890625 397 c 256
 337.444335938 369 323.44921875 344.833007812 299.895507812 324.5 c 0
 276.342773438 304.166992188 250.565429688 294 222.565429688 294 c 256
175.841796875 -1 m 256
 147.841796875 -1 125.28515625 9.1669921875 108.171875 29.5 c 0
 91.0595703125 49.8330078125 84.720703125 74 89.1552734375 102 c 256
 93.58984375 130 107.584960938 154.166992188 131.137695312 174.5 c 0
 154.69140625 194.833007812 180.46875 205 208.46875 205 c 256
 236.46875 205 259.025390625 194.833007812 276.137695312 174.5 c 0
 293.250976562 154.166992188 299.58984375 130 295.155273438 102 c 256
 290.720703125 74 276.725585938 49.8330078125 253.171875 29.5 c 0
 229.619140625 9.1669921875 203.841796875 -1 175.841796875 -1 c 256
EndSplineSet
EndChar

StartChar: semicolon
Encoding: 59 59 84
GlifName: semicolon
Width: 359
Flags: W
HStem: 290 206<195.431 295.059>
LayerCount: 2
Fore
SplineSet
120.124023438 146 m 5
 300.124023438 146 l 5
 283.96875 44 234.961914062 -42.3330078125 153.102539062 -113 c 5
 13.1025390625 -113 l 5
 70.044921875 -31.2861328125 105.71875 55.0478515625 120.124023438 146 c 5
228.931640625 290 m 0
 200.931640625 290 178.375 300.166992188 161.262695312 320.5 c 0
 144.149414062 340.833007812 137.810546875 365 142.245117188 393 c 0
 146.6796875 421 160.674804688 445.166992188 184.227539062 465.5 c 0
 207.78125 485.833007812 233.55859375 496 261.55859375 496 c 0
 289.55859375 496 312.115234375 485.833007812 329.227539062 465.5 c 0
 346.340820312 445.166992188 352.6796875 421 348.245117188 393 c 0
 343.810546875 365 329.815429688 340.833007812 306.262695312 320.5 c 0
 282.708984375 300.166992188 256.931640625 290 228.931640625 290 c 0
EndSplineSet
EndChar

StartChar: less
Encoding: 60 60 85
GlifName: less
Width: 646
Flags: W
LayerCount: 2
Fore
SplineSet
609.951171875 548.98828125 m 1
 580.952148438 365.8984375 l 1
 392.333007812 293.454101562 l 1
 558.004882812 221.009765625 l 1
 529.005859375 37.919921875 l 1
 153.979492188 201.908203125 l 1
 182.977539062 385 l 1
 609.951171875 548.98828125 l 1
EndSplineSet
EndChar

StartChar: equal
Encoding: 61 61 86
GlifName: equal
Width: 646
Flags: W
HStem: 112.5 170<167.743 560.818> 312.5 170<199.421 592.495>
LayerCount: 2
Fore
SplineSet
172.495117188 312.5 m 5
 199.420898438 482.5 l 5
 619.420898438 482.5 l 5
 592.495117188 312.5 l 5
 172.495117188 312.5 l 5
140.818359375 112.5 m 1
 167.743164062 282.5 l 1
 587.743164062 282.5 l 1
 560.818359375 112.5 l 1
 140.818359375 112.5 l 1
EndSplineSet
EndChar

StartChar: greater
Encoding: 62 62 87
GlifName: greater
Width: 646
Flags: W
LayerCount: 2
Fore
SplineSet
208.951171875 548.98828125 m 1
 179.952148438 365.8984375 l 1
 345.624023438 293.454101562 l 1
 157.004882812 221.009765625 l 1
 128.005859375 37.919921875 l 1
 554.979492188 201.908203125 l 1
 583.977539062 385 l 1
 208.951171875 548.98828125 l 1
EndSplineSet
EndChar

StartChar: question
Encoding: 63 63 88
GlifName: question
Width: 514
Flags: W
HStem: -15 206<205.561 306.315> 542 170<285.318 381.066>
LayerCount: 2
Fore
SplineSet
358.9375 88 m 4
 354.397460938 59.3330078125 340.54296875 35 317.375976562 15 c 4
 294.208007812 -5 268.291015625 -15 239.624023438 -15 c 4
 210.95703125 -15 188.208007812 -5 171.375976562 15 c 4
 154.54296875 35 148.397460938 59.3330078125 152.9375 88 c 4
 157.478515625 116.666992188 171.33203125 141 194.5 161 c 4
 217.66796875 181 243.583984375 191 272.250976562 191 c 4
 300.91796875 191 323.66796875 181 340.5 161 c 4
 357.33203125 141 363.478515625 116.666992188 358.9375 88 c 4
363.76953125 712 m 4
 428.436523438 712 480.126953125 689 518.840820312 643 c 4
 557.555664062 597 571.791992188 541.666992188 561.549804688 477 c 4
 554.334960938 431.670898438 535.471679688 389.888671875 504.959960938 351.653320312 c 4
 474.448242188 313.418945312 437.026367188 284.344726562 392.694335938 264.431640625 c 4
 380.904296875 259.135742188 371.736328125 251.659179688 365.189453125 242 c 4
 359.68359375 233.875976562 356.033203125 224.209960938 354.236328125 213 c 5
 184.236328125 213 l 5
 190.983398438 255.420898438 209.048828125 295.586914062 238.43359375 333.499023438 c 4
 267.817382812 371.41015625 302.89453125 399.521484375 343.665039062 417.833007812 c 4
 357.014648438 423.829101562 367.64453125 431.551757812 375.551757812 441 c 4
 383.959960938 451.047851562 389.293945312 463.047851562 391.549804688 477 c 4
 394.611328125 496.333007812 391.092773438 512 380.993164062 524 c 4
 370.89453125 536 356.177734375 542 336.844726562 542 c 4
 319.505859375 541.930664062 304.038085938 536.508789062 290.440429688 525.734375 c 4
 276.841796875 514.9609375 267.752929688 501.01171875 263.171875 483.887695312 c 5
 98.5732421875 507.548828125 l 5
 115.494140625 566.000976562 149.184570312 614.677734375 199.642578125 653.578125 c 4
 250.100585938 692.478515625 304.809570312 711.952148438 363.76953125 712 c 4
EndSplineSet
EndChar

StartChar: at
Encoding: 64 64 89
GlifName: at
Width: 979
Flags: W
HStem: -209.5 120<357.855 539.208> 16 139<456.768 578.37> 349 139<480.931 602.346> 593.5 120<459.565 701.392>
LayerCount: 2
Fore
SplineSet
602.506835938 713.5 m 0
 663.705078125 713.5 720.720703125 701.790039062 773.551757812 678.370117188 c 0
 826.3828125 654.951171875 871.0078125 621.604492188 907.428710938 578.330078125 c 0
 943.850585938 535.053710938 969.293945312 485.145507812 983.759765625 428.60546875 c 0
 998.225585938 372.064453125 1000.61035156 313.196289062 990.913085938 252 c 0
 981.151367188 190.397460938 960.013671875 131.2265625 927.5 74.48828125 c 0
 894.985351562 17.7490234375 853.497070312 -32.1474609375 803.036132812 -75.201171875 c 0
 773.56640625 -100.345703125 740.401367188 -112.920898438 703.540039062 -112.92578125 c 0
 666.28125 -112.930664062 636.565429688 -99.759765625 614.392578125 -73.412109375 c 0
 592.21875 -47.0634765625 584.083007812 -15.259765625 589.984375 22 c 2
 592.350585938 36.939453125 l 1
 559.260742188 22.9853515625 525.821289062 16.0048828125 492.034179688 16 c 0
 426.865234375 15.9892578125 374.889648438 39.02734375 336.10546875 85.11328125 c 0
 297.322265625 131.19921875 283.090820312 186.828125 293.413085938 252 c 0
 303.734375 317.168945312 335.5859375 372.794921875 388.966796875 418.876953125 c 0
 442.34765625 464.958984375 501.623046875 488 566.791992188 488 c 0
 631.9609375 488 683.9375 464.958984375 722.720703125 418.876953125 c 0
 761.50390625 372.794921875 775.734375 317.168945312 765.413085938 252 c 2
 728.984375 22 l 2
 728.639648438 19.8203125 728.88671875 18.1533203125 729.728515625 17 c 0
 730.67578125 15.7001953125 732.376953125 15.05078125 734.831054688 15.052734375 c 0
 736.810546875 15.0537109375 738.584960938 15.76171875 740.15234375 17.17578125 c 0
 812.918945312 82.8583984375 856.506835938 161.133789062 870.913085938 252 c 0
 880.717773438 313.84375 874.540039062 370.98828125 852.379882812 423.434570312 c 0
 840.703125 451.069335938 825.4921875 475.65234375 806.74609375 497.184570312 c 4
 789.916015625 516.516601562 770.235351562 533.388671875 747.705078125 547.801757812 c 0
 700.08203125 578.267578125 645.34765625 593.5 583.500976562 593.5 c 0
 521.65625 593.5 462.098632812 578.266601562 404.827148438 547.80078125 c 0
 347.557617188 517.334960938 299.537109375 475.879882812 260.764648438 423.435546875 c 0
 221.9921875 370.990234375 197.708007812 313.844726562 187.913085938 252 c 0
 178.1171875 190.155273438 184.298828125 133.009765625 206.458007812 80.564453125 c 0
 217.5625 54.283203125 231.864257812 30.76171875 249.362304688 10 c 0
 266.782226562 -10.6689453125 287.370117188 -28.603515625 311.127929688 -43.802734375 c 0
 358.747070312 -74.2685546875 413.479492188 -89.5009765625 475.32421875 -89.5 c 0
 496.502929688 -89.5 518.142578125 -87.4521484375 540.243164062 -83.357421875 c 1
 552.94921875 -199.349609375 l 1
 520.012695312 -206.106445312 487.803710938 -209.490234375 456.318359375 -209.5 c 0
 395.127929688 -209.518554688 338.116210938 -197.815429688 285.284179688 -174.390625 c 0
 232.453125 -150.965820312 187.82421875 -117.612304688 151.397460938 -74.330078125 c 0
 114.9765625 -31.0556640625 89.5341796875 18.8515625 75.0703125 75.3916015625 c 0
 60.60546875 131.931640625 58.2197265625 190.801757812 67.9130859375 252 c 0
 77.60546875 313.198242188 98.6396484375 372.068359375 131.014648438 428.608398438 c 0
 163.388671875 485.1484375 204.639648438 535.055664062 254.768554688 578.330078125 c 0
 304.896484375 621.604492188 360.0859375 654.951171875 420.334960938 678.370117188 c 0
 480.583984375 701.790039062 541.30859375 713.5 602.506835938 713.5 c 0
544.776367188 349 m 0
 517.990234375 349 493.627929688 339.529296875 471.6875 320.588867188 c 0
 449.747070312 301.6484375 436.655273438 278.786132812 432.413085938 252 c 0
 428.169921875 225.213867188 434.020507812 202.3515625 449.9609375 183.411132812 c 0
 465.901367188 164.470703125 487.263671875 155 514.049804688 155 c 0
 540.8359375 155 565.198242188 164.470703125 587.138671875 183.411132812 c 0
 609.079101562 202.3515625 622.169921875 225.213867188 626.413085938 252 c 0
 630.655273438 278.786132812 624.805664062 301.6484375 608.865234375 320.588867188 c 0
 592.924804688 339.529296875 571.5625 349 544.776367188 349 c 0
EndSplineSet
EndChar

StartChar: braceleft
Encoding: 123 123 90
GlifName: braceleft
Width: 408
Flags: W
LayerCount: 2
Fore
SplineSet
339.161132812 -100 m 1
 267.828125 -100 217.15625 -75.8330078125 187.14453125 -27.5 c 0
 157.1328125 20.8330078125 149.676757812 92.6669921875 164.776367188 188 c 0
 169.52734375 218 166.748046875 238.333007812 156.4375 249 c 0
 146.126953125 259.666992188 125.638671875 265 94.9716796875 265 c 5
 121.897460938 435 l 5
 152.564453125 435 174.7421875 440.333007812 188.431640625 451 c 0
 202.12109375 461.666992188 211.340820312 482 216.092773438 512 c 0
 231.192382812 607.333007812 261.40234375 679.166992188 306.724609375 727.5 c 0
 352.046875 775.833007812 410.375 800 481.708007812 800 c 1
 454.782226562 630 l 1
 434.115234375 630 419.48046875 622.833007812 410.876953125 608.5 c 0
 402.2734375 594.166992188 394.064453125 562.333007812 386.250976562 513 c 0
 376.431640625 451 347.3203125 404 298.918945312 372 c 0
 286.140625 363.551757812 272.212890625 356.217773438 257.138671875 350 c 1
 270.244140625 343.782226562 281.84765625 336.448242188 291.950195312 328 c 0
 330.21484375 296 344.4375 249 334.618164062 187 c 0
 327.015625 139 325.24609375 107.833007812 329.30859375 93.5 c 0
 333.372070312 79.1669921875 345.630859375 71.3330078125 366.086914062 70 c 1
 339.161132812 -100 l 1
EndSplineSet
EndChar

StartChar: bar
Encoding: 124 124 91
GlifName: bar
Width: 296
Flags: W
VStem: 28.1553 170<-220 -50> 188.124 170<620 790>
LayerCount: 2
Fore
SplineSet
188.124023438 790 m 1x40
 358.124023438 790 l 1x40
 198.155273438 -220 l 1
 28.1552734375 -220 l 1x80
 188.124023438 790 l 1x40
EndSplineSet
EndChar

StartChar: braceright
Encoding: 125 125 92
GlifName: braceright
Width: 408
Flags: W
LayerCount: 2
Fore
SplineSet
37.1611328125 -100 m 1
 108.494140625 -100 166.822265625 -75.8330078125 212.14453125 -27.5 c 0
 257.466796875 20.8330078125 287.676757812 92.6669921875 302.776367188 188 c 0
 307.52734375 218 316.748046875 238.333007812 330.4375 249 c 0
 344.126953125 259.666992188 366.3046875 265 396.971679688 265 c 5
 423.897460938 435 l 5
 393.23046875 435 372.7421875 440.333007812 362.431640625 451 c 0
 352.12109375 461.666992188 349.340820312 482 354.092773438 512 c 0
 369.192382812 607.333007812 361.736328125 679.166992188 331.724609375 727.5 c 0
 301.712890625 775.833007812 251.041015625 800 179.708007812 800 c 1
 152.782226562 630 l 1
 173.44921875 630 185.814453125 622.833007812 189.876953125 608.5 c 0
 193.939453125 594.166992188 192.064453125 562.333007812 184.250976562 513 c 0
 174.431640625 451 188.654296875 404 226.918945312 372 c 0
 237.021484375 363.551757812 248.625 356.217773438 261.73046875 350 c 1
 246.65625 343.782226562 232.728515625 336.448242188 219.950195312 328 c 0
 171.548828125 296 142.4375 249 132.618164062 187 c 0
 125.015625 139 116.912109375 107.833007812 108.30859375 93.5 c 0
 99.7060546875 79.1669921875 84.96484375 71.3330078125 64.0869140625 70 c 1
 37.1611328125 -100 l 1
EndSplineSet
EndChar

StartChar: asciitilde
Encoding: 126 126 93
GlifName: asciitilde
Width: 745
Flags: W
HStem: 145 170<538.378 603.672> 318 170<287.623 356.55>
LayerCount: 2
Fore
SplineSet
344.291992188 488 m 0
 445.625 488 506.376953125 447.5 526.547851562 366.5 c 0
 529.513671875 354.590820312 532.903320312 344.424804688 536.716796875 336 c 0
 543.055664062 322 554.446289062 315 570.890625 315 c 0
 583.555664062 315.287109375 594.631835938 319.954101562 604.118164062 329 c 0
 616.68359375 340.982421875 626.461914062 360.649414062 633.453125 388 c 1
 803.453125 388 l 1
 791.772460938 322.666992188 762.462890625 266 715.52734375 218 c 0
 668.592773438 170 613.73828125 145.666992188 550.965820312 145 c 0
 459.982421875 144.254882812 400.319335938 187.421875 371.9765625 274.5 c 0
 365.09765625 295.634765625 357.956054688 308.421875 350.552734375 312.861328125 c 0
 344.83984375 316.287109375 337.77734375 318 329.366210938 318 c 0
 316.127929688 317.712890625 304.41796875 313.045898438 294.233398438 304 c 0
 280.745117188 292.017578125 269.934570312 272.350585938 261.803710938 245 c 1
 91.8037109375 245 l 1
 103.485351562 310.333007812 132.986328125 367.166992188 180.30859375 415.5 c 0
 227.630859375 463.833007812 282.291992188 488 344.291992188 488 c 0
EndSplineSet
EndChar

StartChar: exclamdown
Encoding: 161 161 94
GlifName: exclamdown
Width: 332
Flags: W
HStem: 306 206<180.402 281.156>
VStem: 48.6895 170<-204 -34> 119.804 170<75 245>
LayerCount: 2
Fore
SplineSet
214.465820312 306 m 0x80
 243.1328125 306 269.049804688 316 292.216796875 336 c 0
 315.384765625 356 329.239257812 380.333007812 333.779296875 409 c 0
 338.319335938 437.666992188 332.173828125 462 315.340820312 482 c 0
 298.508789062 502 275.759765625 512 247.092773438 512 c 0
 218.42578125 512 192.508789062 502 169.340820312 482 c 0
 146.173828125 462 132.319335938 437.666992188 127.779296875 409 c 0
 123.239257812 380.333007812 129.384765625 356 146.216796875 336 c 0
 163.049804688 316 185.798828125 306 214.465820312 306 c 0x80
48.689453125 -204 m 1xc0
 218.689453125 -204 l 1xc0
 289.803710938 245 l 1
 119.803710938 245 l 1xa0
 48.689453125 -204 l 1xc0
EndSplineSet
EndChar

StartChar: cent
Encoding: 162 162 95
GlifName: cent
Width: 480
Flags: W
HStem: 0 21G<224.854 328.021> 680 20G<332.555 435.723>
LayerCount: 2
Fore
SplineSet
421.3515625 609.263671875 m 1
 475.549804688 601.426757812 520.112304688 576.759765625 555.0390625 535.26171875 c 1
 415.79296875 415.0546875 l 1
 409.299804688 422.768554688 401.858398438 428.826171875 393.469726562 433.227539062 c 1
 367.106445312 266.772460938 l 1
 376.890625 271.173828125 386.25 277.231445312 395.185546875 284.9453125 c 1
 496.353515625 164.73828125 l 1
 448.283203125 123.240234375 395.90625 98.5732421875 339.224609375 90.736328125 c 1
 324.853515625 0 l 1
 224.853515625 0 l 1
 239.809570312 94.42578125 l 1
 194.419921875 104.946289062 156.42578125 128.383789062 125.829101562 164.73828125 c 0
 82.7734375 215.896484375 66.9755859375 277.650390625 78.4345703125 350 c 0
 89.8935546875 422.348632812 125.252929688 484.102539062 184.514648438 535.26171875 c 0
 226.626953125 571.616210938 272.044921875 595.053710938 320.766601562 605.57421875 c 1
 335.72265625 700 l 1
 435.72265625 700 l 1
 421.3515625 609.263671875 l 1
291.3203125 419.65625 m 1
 289.423828125 418.194335938 287.544921875 416.66015625 285.684570312 415.053710938 c 0
 264.875 397.08984375 252.458007812 375.405273438 248.434570312 350 c 0
 244.411132812 324.594726562 249.958984375 302.91015625 265.077148438 284.946289062 c 0
 266.4296875 283.33984375 267.822265625 281.805664062 269.255859375 280.34375 c 1
 291.3203125 419.65625 l 1
EndSplineSet
EndChar

StartChar: sterling
Encoding: 163 163 96
GlifName: sterling
Width: 619
Flags: W
HStem: 0 180<71.5088 123.2 307.388 586> 252 180<111.422 147.913 356.422 535.913> 535 180<382.709 471.232>
LayerCount: 2
Fore
SplineSet
614.508789062 180 m 1
 586 0 l 1
 43 0 l 1
 71.5087890625 180 l 1
 89.5087890625 180 105.845703125 186.333007812 120.518554688 199 c 0
 135.19140625 211.666992188 143.953125 227 146.803710938 245 c 2
 147.913085938 252 l 1
 82.9130859375 252 l 1
 111.421875 432 l 1
 176.421875 432 l 1
 183.390625 476 l 2
 193.844726562 542 226.099609375 598.333007812 280.158203125 645 c 0
 334.215820312 691.666992188 394.245117188 715 460.245117188 715 c 0
 526.245117188 715 578.881835938 691.666992188 618.158203125 645 c 0
 657.43359375 598.333007812 671.844726562 542 661.390625 476 c 1
 481.390625 476 l 1
 483.924804688 492 480.283203125 505.833007812 470.463867188 517.5 c 0
 460.64453125 529.166992188 447.735351562 535 431.735351562 535 c 0
 415.735351562 535 400.978515625 529.166992188 387.463867188 517.5 c 0
 373.94921875 505.833007812 365.924804688 492 363.390625 476 c 2
 356.421875 432 l 1
 564.421875 432 l 1
 535.913085938 252 l 1
 327.913085938 252 l 1
 326.803710938 245 l 2
 323.1953125 222.920898438 316.72265625 201.25390625 307.387695312 180 c 1
 614.508789062 180 l 1
EndSplineSet
EndChar

StartChar: currency
Encoding: 164 164 97
GlifName: currency
Width: 651
Flags: W
HStem: 124 170<333.886 420.109> 406 170<342.159 428.382>
LayerCount: 2
Fore
SplineSet
427.002929688 389.59765625 m 0
 417.80078125 400.532226562 405.466796875 406 390.002929688 406 c 0
 374.5390625 406 360.474609375 400.532226562 347.807617188 389.59765625 c 0
 335.141601562 378.663085938 327.583007812 365.463867188 325.133789062 350 c 0
 322.684570312 334.536132812 326.061523438 321.336914062 335.264648438 310.40234375 c 0
 344.466796875 299.467773438 356.80078125 294 372.264648438 294 c 0
 387.728515625 294 401.79296875 299.467773438 414.459960938 310.40234375 c 0
 427.125976562 321.336914062 434.684570312 334.536132812 437.133789062 350 c 0
 439.583007812 365.463867188 436.206054688 378.663085938 427.002929688 389.59765625 c 0
564.841796875 612.30078125 m 1
 665.951171875 492.1640625 l 1
 603.85546875 438.55859375 l 1
 611.094726562 411.427734375 612.1875 381.908203125 607.133789062 350 c 0
 602.080078125 318.091796875 591.635742188 288.572265625 575.802734375 261.44140625 c 1
 620.91796875 207.8359375 l 1
 481.75390625 87.69921875 l 1
 436.638671875 141.3046875 l 1
 407.681640625 129.768554688 377.248046875 124 345.338867188 124 c 0
 313.4296875 124 284.82421875 129.768554688 259.521484375 141.3046875 c 1
 197.42578125 87.69921875 l 1
 96.31640625 207.8359375 l 1
 158.412109375 261.44140625 l 1
 151.172851562 288.572265625 150.080078125 318.091796875 155.133789062 350 c 0
 160.1875 381.908203125 170.631835938 411.427734375 186.46484375 438.55859375 c 1
 141.349609375 492.1640625 l 1
 280.513671875 612.30078125 l 1
 325.62890625 558.6953125 l 1
 354.5859375 570.231445312 385.01953125 576 416.928710938 576 c 0
 448.837890625 576 477.443359375 570.231445312 502.74609375 558.6953125 c 1
 564.841796875 612.30078125 l 1
EndSplineSet
EndChar

StartChar: yen
Encoding: 165 165 98
GlifName: yen
Width: 622
Flags: W
HStem: 0 21G<226.5 399.668> 61 132<103.568 236.161 427.068 557.661> 244 132<132.553 235.729 505.376 586.646> 680 20G<123.869 320.806 516.597 719.869>
LayerCount: 2
Fore
SplineSet
111.645507812 244 m 1
 132.552734375 376 l 1
 235.729492188 376 l 1
 123.869140625 700 l 1
 313.869140625 700 l 1
 388.012695312 486.23828125 l 1
 529.869140625 700 l 1
 719.869140625 700 l 1
 505.375976562 376 l 1
 607.552734375 376 l 1
 586.645507812 244 l 1
 435.145507812 244 l 1
 427.068359375 193 l 1
 578.568359375 193 l 1
 557.661132812 61 l 1
 406.161132812 61 l 1
 396.5 0 l 1
 226.5 0 l 1
 236.161132812 61 l 1
 82.6611328125 61 l 1
 103.568359375 193 l 1
 257.068359375 193 l 1
 265.145507812 244 l 1
 111.645507812 244 l 1
EndSplineSet
EndChar

StartChar: brokenbar
Encoding: 166 166 99
GlifName: brokenbar
Width: 376
Flags: W
VStem: 68.1553 170<-220 -50> 137.845 170<50 220> 158.435 170<350 520> 228.124 170<620 790>
LayerCount: 2
Fore
SplineSet
68.1552734375 -220 m 1x80
 137.844726562 220 l 1
 307.844726562 220 l 1x40
 238.155273438 -220 l 1
 68.1552734375 -220 l 1x80
158.434570312 350 m 1x20
 228.124023438 790 l 1
 398.124023438 790 l 1x10
 328.434570312 350 l 1
 158.434570312 350 l 1x20
EndSplineSet
EndChar

StartChar: section
Encoding: 167 167 100
GlifName: section
Width: 428
Flags: W
HStem: -91 112<168.818 275.416> 139 112<206.96 282.81> 369 112<243.388 319.238> 599 112<250.782 357.38>
LayerCount: 2
Fore
SplineSet
326.611328125 711 m 0
 378.611328125 711 419.165039062 694.5 448.271484375 661.5 c 0
 477.377929688 628.5 488.129882812 588 480.52734375 540 c 1
 368.52734375 540 l 1
 371.166992188 556.666992188 367.051757812 570.666992188 356.1796875 582 c 0
 345.307617188 593.333007812 329.5390625 599 308.872070312 599 c 0
 288.205078125 599 270.641601562 593.333007812 256.1796875 582 c 0
 241.717773438 570.666992188 233.166992188 556.666992188 230.52734375 540 c 0
 227.887695312 523.333007812 232.00390625 509.333007812 242.875 498 c 0
 253.747070312 486.666992188 269.515625 481 290.182617188 481 c 0
 342.182617188 481 382.736328125 464.5 411.842773438 431.5 c 0
 440.94921875 398.5 451.701171875 358 444.099609375 310 c 0
 437.861328125 270.618164062 420.868164062 236.28515625 393.118164062 207 c 0
 389.234375 202.901367188 385.139648438 198.901367188 380.833984375 195 c 1
 384.15234375 190.782226562 387.188476562 186.44921875 389.942382812 182 c 0
 407.927734375 152.934570312 413.836914062 118.934570312 407.670898438 80 c 0
 400.068359375 32 376.486328125 -8.5 336.926757812 -41.5 c 0
 297.3671875 -74.5 251.586914062 -91 199.586914062 -91 c 0
 147.586914062 -91 107.033203125 -74.5 77.9267578125 -41.5 c 0
 48.8203125 -8.5 38.068359375 32 45.6708984375 80 c 1
 157.670898438 80 l 1
 155.03125 63.3330078125 159.146484375 49.3330078125 170.018554688 38 c 0
 180.890625 26.6669921875 196.659179688 21 217.326171875 21 c 0
 237.993164062 21 255.556640625 26.6669921875 270.018554688 38 c 0
 284.48046875 49.3330078125 293.03125 63.3330078125 295.670898438 80 c 0
 298.310546875 96.6669921875 294.1953125 110.666992188 283.323242188 122 c 0
 272.451171875 133.333007812 256.682617188 139 236.015625 139 c 0
 184.015625 139 143.461914062 155.5 114.35546875 188.5 c 0
 85.2490234375 221.5 74.4970703125 262 82.099609375 310 c 0
 88.1953125 348.489257812 104.565429688 382.155273438 131.208984375 411 c 0
 135.642578125 415.799804688 140.361328125 420.466796875 145.364257812 425 c 1
 142.045898438 429.217773438 139.009765625 433.55078125 136.255859375 438 c 0
 118.270507812 467.065429688 112.361328125 501.065429688 118.52734375 540 c 0
 126.129882812 588 149.711914062 628.5 189.271484375 661.5 c 0
 228.831054688 694.5 274.611328125 711 326.611328125 711 c 0
272.444335938 369 m 0
 251.77734375 369 234.212890625 363.333007812 219.750976562 352 c 0
 205.2890625 340.666992188 196.739257812 326.666992188 194.099609375 310 c 0
 191.458984375 293.333007812 195.575195312 279.333007812 206.447265625 268 c 0
 217.319335938 256.666992188 233.087890625 251 253.754882812 251 c 0
 274.421875 251 291.985351562 256.666992188 306.447265625 268 c 0
 320.909179688 279.333007812 329.458984375 293.333007812 332.099609375 310 c 0
 334.739257812 326.666992188 330.623046875 340.666992188 319.750976562 352 c 0
 308.87890625 363.333007812 293.111328125 369 272.444335938 369 c 0
EndSplineSet
EndChar

StartChar: dieresis
Encoding: 168 168 101
GlifName: dieresis
Width: 532
Flags: W
HStem: 569 176<188.577 281.54 458.577 551.54>
LayerCount: 2
Fore
SplineSet
248.99609375 745 m 4
 272.99609375 745 292.291015625 736.333007812 306.877929688 719 c 4
 321.465820312 701.666992188 326.859375 681 323.05859375 657 c 4
 319.2578125 633 307.317382812 612.333007812 287.23828125 595 c 4
 267.16015625 577.666992188 245.12109375 569 221.12109375 569 c 4
 197.12109375 569 177.826171875 577.666992188 163.23828125 595 c 4
 148.651367188 612.333007812 143.2578125 633 147.05859375 657 c 4
 150.859375 681 162.799804688 701.666992188 182.877929688 719 c 4
 202.95703125 736.333007812 224.99609375 745 248.99609375 745 c 4
518.99609375 745 m 4
 542.99609375 745 562.291015625 736.333007812 576.877929688 719 c 4
 591.465820312 701.666992188 596.859375 681 593.05859375 657 c 4
 589.2578125 633 577.317382812 612.333007812 557.23828125 595 c 4
 537.16015625 577.666992188 515.12109375 569 491.12109375 569 c 4
 467.12109375 569 447.826171875 577.666992188 433.23828125 595 c 4
 418.651367188 612.333007812 413.2578125 633 417.05859375 657 c 4
 420.859375 681 432.799804688 701.666992188 452.877929688 719 c 4
 472.95703125 736.333007812 494.99609375 745 518.99609375 745 c 4
EndSplineSet
EndChar

StartChar: copyright
Encoding: 169 169 102
GlifName: copyright
Width: 779
Flags: W
HStem: -11 120<309.193 510.68> 153 120<381.665 496.989> 428 120<398.604 532.342> 592 120<379.348 580.834>
LayerCount: 2
Fore
SplineSet
502.26953125 712 m 0
 567.737304688 712 625.674804688 695.875 676.083007812 663.625 c 0
 726.4921875 631.375 763.424804688 587.4921875 786.881835938 531.975585938 c 0
 810.338867188 476.458984375 816.8828125 415.967773438 806.513671875 350.5 c 0
 796.14453125 285.032226562 770.438476562 224.541015625 729.395507812 169.024414062 c 0
 688.352539062 113.5078125 637.51953125 69.625 576.895507812 37.375 c 0
 516.270507812 5.125 453.225585938 -11 387.7578125 -11 c 0
 322.290039062 -11 264.352539062 5.125 213.944335938 37.375 c 0
 163.53515625 69.625 126.602539062 113.5078125 103.145507812 169.024414062 c 0
 79.6884765625 224.541015625 73.14453125 285.032226562 83.513671875 350.5 c 0
 93.8828125 415.967773438 119.588867188 476.458984375 160.631835938 531.975585938 c 0
 201.674804688 587.4921875 252.5078125 631.375 313.131835938 663.625 c 0
 373.756835938 695.875 436.801757812 712 502.26953125 712 c 0
483.263671875 592 m 0
 416.575195312 592 355.91796875 568.421875 301.293945312 521.266601562 c 0
 246.669921875 474.111328125 214.076171875 417.188476562 203.513671875 350.5 c 0
 192.951171875 283.811523438 207.513671875 226.888671875 247.200195312 179.733398438 c 0
 286.88671875 132.578125 340.075195312 109 406.763671875 109 c 0
 473.452148438 109 534.109375 132.578125 588.733398438 179.733398438 c 0
 643.357421875 226.888671875 675.951171875 283.811523438 686.513671875 350.5 c 0
 697.076171875 417.188476562 682.513671875 474.111328125 642.827148438 521.266601562 c 0
 603.140625 568.421875 549.952148438 592 483.263671875 592 c 0
474.848632812 548 m 0
 529.385742188 548 572.8828125 528.717773438 605.340820312 490.153320312 c 1
 506.916992188 405.30078125 l 1
 494.180664062 420.43359375 477.112304688 428 455.7109375 428 c 0
 434.309570312 428 414.844726562 420.43359375 397.315429688 405.30078125 c 0
 379.786132812 390.16796875 369.326171875 371.901367188 365.936523438 350.5 c 0
 362.546875 329.098632812 367.220703125 310.83203125 379.956054688 295.69921875 c 0
 392.692382812 280.56640625 409.760742188 273 431.162109375 273 c 0
 452.512695312 273.188476562 471.881835938 280.870117188 489.268554688 296.04296875 c 1
 560.802734375 211.203125 l 1
 516.279296875 172.596679688 466.7734375 153.196289062 412.286132812 153 c 0
 357.748046875 153 314.250976562 172.282226562 281.794921875 210.846679688 c 0
 249.338867188 249.411132812 237.4296875 295.961914062 246.067382812 350.5 c 0
 254.705078125 405.038085938 281.360351562 451.588867188 326.033203125 490.153320312 c 0
 370.704101562 528.717773438 420.310546875 548 474.848632812 548 c 0
EndSplineSet
EndChar

StartChar: ordfeminine
Encoding: 170 170 103
GlifName: ordfeminine
Width: 365
Flags: W
HStem: 392.6 100.8<216.987 303.245> 606.2 100.8<225.3 312.134> 679.8 20G<354.469 446.437>
LayerCount: 2
Fore
SplineSet
357.63671875 699.799804688 m 1xa0
 446.436523438 699.799804688 l 1xa0
 398.921875 399.799804688 l 1
 310.122070312 399.799804688 l 1
 313.256835938 419.59375 l 1
 289.642578125 401.59765625 261.618164062 392.599609375 229.181640625 392.599609375 c 0
 186.381835938 392.599609375 153.088867188 407.799804688 129.303710938 438.200195312 c 0
 105.518554688 468.599609375 97.1103515625 505.799804688 104.080078125 549.799804688 c 0
 111.048828125 593.799804688 131.240234375 631 164.655273438 661.399414062 c 0
 198.0703125 691.799804688 236.177734375 707 278.977539062 707 c 0xc0
 310.541015625 707 335.55859375 697.0078125 354.029296875 677.022460938 c 1
 357.63671875 699.799804688 l 1xa0
273.212890625 606.200195312 m 0xc0
 257.612304688 606.200195312 243.44140625 600.700195312 230.69921875 589.700195312 c 0
 217.95703125 578.700195312 210.350585938 565.400390625 207.879882812 549.799804688 c 0
 205.408203125 534.19921875 208.801757812 520.899414062 218.059570312 509.899414062 c 0
 227.317382812 498.899414062 239.74609375 493.399414062 255.346679688 493.399414062 c 0
 270.946289062 493.399414062 285.1171875 498.899414062 297.859375 509.899414062 c 0
 310.6015625 520.899414062 318.208007812 534.19921875 320.6796875 549.799804688 c 0
 323.150390625 565.400390625 319.756835938 578.700195312 310.499023438 589.700195312 c 0
 301.241210938 600.700195312 288.8125 606.200195312 273.212890625 606.200195312 c 0xc0
EndSplineSet
EndChar

StartChar: guillemotleft
Encoding: 171 171 104
GlifName: guillemotleft
Width: 826
Flags: W
LayerCount: 2
Fore
SplineSet
387.202148438 544.220703125 m 5
 488.372070312 424.012695312 l 5
 342.399414062 298 l 5
 448.455078125 171.987304688 l 5
 309.20703125 51.779296875 l 5
 101.983398438 298 l 5
 387.202148438 544.220703125 l 5
730.202148438 544.220703125 m 5
 831.372070312 424.012695312 l 5
 685.399414062 298 l 5
 791.455078125 171.987304688 l 5
 652.20703125 51.779296875 l 5
 444.983398438 298 l 5
 730.202148438 544.220703125 l 5
EndSplineSet
EndChar

StartChar: logicalnot
Encoding: 172 172 105
GlifName: logicalnot
Width: 646
Flags: W
HStem: 239 170<197.779 370.854>
LayerCount: 2
Fore
SplineSet
170.853515625 239 m 1
 197.779296875 409 l 1
 567.779296875 409 l 5
 524.381835938 135 l 5
 354.381835938 135 l 1
 370.853515625 239 l 1
 170.853515625 239 l 1
EndSplineSet
EndChar

StartChar: uni00AD
Encoding: 173 173 106
GlifName: uni00A_D_
Width: 406
Flags: W
HStem: 213 170<93.6611 406.736>
LayerCount: 2
Fore
SplineSet
66.736328125 213 m 5
 93.6611328125 383 l 5
 433.661132812 383 l 1
 406.736328125 213 l 1
 66.736328125 213 l 5
EndSplineSet
EndChar

StartChar: registered
Encoding: 174 174 107
GlifName: registered
Width: 614
Flags: W
HStem: 144 100<263.284 435.512> 499.081 77.9189<360.628 409.707> 612 100<314.065 486.293>
VStem: 245.298 81.5811<286 367.581> 379.445 88.3027<286 374.303> 415.824 81.918<453.31 492.243>
LayerCount: 2
Fore
SplineSet
419.76953125 712 m 0xf0
 498.436523438 712 561.0546875 684.333007812 607.624023438 629 c 0
 654.193359375 573.666992188 671.248046875 506.666992188 658.788085938 428 c 0
 646.329101562 349.333007812 608.049804688 282.333007812 543.953125 227 c 0
 479.856445312 171.666992188 408.474609375 144 329.807617188 144 c 0
 251.140625 144 188.522460938 171.666992188 141.953125 227 c 0
 95.3837890625 282.333007812 78.3291015625 349.333007812 90.7880859375 428 c 0
 103.248046875 506.666992188 141.52734375 573.666992188 205.624023438 629 c 0
 269.720703125 684.333007812 341.102539062 712 419.76953125 712 c 0xf0
403.931640625 612 m 0
 353.264648438 612 307.080078125 594 265.37890625 558 c 0
 223.676757812 522 198.813476562 478.666992188 190.788085938 428 c 0
 182.763671875 377.333007812 193.900390625 334 224.198242188 298 c 0
 254.497070312 262 294.978515625 244 345.645507812 244 c 0
 396.3125 244 442.497070312 262 484.198242188 298 c 0
 525.900390625 334 550.763671875 377.333007812 558.788085938 428 c 0
 566.813476562 478.666992188 555.676757812 522 525.37890625 558 c 0
 495.080078125 594 454.598632812 612 403.931640625 612 c 0
291.387695312 577 m 1
 412.0234375 577 l 2
 440.1484375 577 462.579101562 567.056640625 479.317382812 547.168945312 c 0
 496.0546875 527.28125 502.196289062 503.275390625 497.7421875 475.150390625 c 0xf4
 495.16796875 458.901367188 489.693359375 444.184570312 481.317382812 431 c 4
 472.5390625 417.181640625 460.57421875 405.046875 445.422851562 394.594726562 c 1
 467.748046875 286 l 1
 379.4453125 286 l 1xf8
 361.497070312 373.299804688 l 1
 340.706054688 373.299804688 l 1
 326.87890625 286 l 1
 245.297851562 286 l 1
 291.387695312 577 l 1
360.627929688 499.081054688 m 1
 353.046875 451.21875 l 1
 382.1015625 451.21875 l 2
 390.563476562 451.21875 398.018554688 453.428710938 404.463867188 457.848632812 c 0
 410.91015625 462.268554688 414.697265625 468.036132812 415.82421875 475.150390625 c 0
 416.950195312 482.264648438 414.991210938 488.03125 409.9453125 492.451171875 c 0
 404.897460938 496.87109375 398.14453125 499.081054688 389.682617188 499.081054688 c 2
 360.627929688 499.081054688 l 1
EndSplineSet
EndChar

StartChar: macron
Encoding: 175 175 108
GlifName: macron
Width: 306
Flags: W
HStem: 549 151<93.8691 409.953>
LayerCount: 2
Fore
SplineSet
69.953125 549 m 1
 93.869140625 700 l 1
 433.869140625 700 l 1
 409.953125 549 l 1
 69.953125 549 l 1
EndSplineSet
EndChar

StartChar: degree
Encoding: 176 176 109
GlifName: degree
Width: 393
Flags: W
HStem: 397.5 140<236.898 308.539> 584.5 140<262.168 333.81>
VStem: 121.854 327
LayerCount: 2
Fore
SplineSet
311.25 724.5 m 0
 356.369140625 724.5 392.369140625 708.530273438 419.250976562 676.58984375 c 0
 446.1328125 644.649414062 456 606.119140625 448.853515625 561 c 0
 441.70703125 515.880859375 419.634765625 477.350585938 382.635742188 445.41015625 c 0
 345.63671875 413.469726562 304.577148438 397.5 259.458007812 397.5 c 0
 214.338867188 397.5 178.337890625 413.469726562 151.456054688 445.41015625 c 0
 124.57421875 477.350585938 114.70703125 515.880859375 121.853515625 561 c 0
 129 606.119140625 151.072265625 644.649414062 188.071289062 676.58984375 c 0
 225.0703125 708.530273438 266.130859375 724.5 311.25 724.5 c 0
289.076171875 584.5 m 0
 282.590820312 584.5 276.688476562 582.205078125 271.37109375 577.614257812 c 0
 266.052734375 573.0234375 262.880859375 567.485351562 261.853515625 561 c 0
 260.826171875 554.514648438 262.244140625 548.9765625 266.108398438 544.385742188 c 0
 269.971679688 539.794921875 275.146484375 537.5 281.631835938 537.5 c 0
 288.1171875 537.5 294.018554688 539.794921875 299.336914062 544.385742188 c 0
 304.654296875 548.9765625 307.826171875 554.514648438 308.853515625 561 c 0
 309.880859375 567.485351562 308.462890625 573.0234375 304.599609375 577.614257812 c 0
 300.735351562 582.205078125 295.561523438 584.5 289.076171875 584.5 c 0
EndSplineSet
EndChar

StartChar: plusminus
Encoding: 177 177 110
GlifName: plusminus
Width: 646
Flags: W
HStem: 0 170<114.926 558> 308 170<178.708 286.782 483.708 591.782>
LayerCount: 2
Fore
SplineSet
88 0 m 1
 114.92578125 170 l 1
 584.92578125 170 l 1
 558 0 l 1
 88 0 l 1
151.782226562 308 m 1
 178.708007812 478 l 1
 313.708007812 478 l 1
 334.297851562 608 l 1
 504.297851562 608 l 1
 483.708007812 478 l 1
 618.708007812 478 l 1
 591.782226562 308 l 1
 456.782226562 308 l 1
 436.192382812 178 l 1
 266.192382812 178 l 1
 286.782226562 308 l 1
 151.782226562 308 l 1
EndSplineSet
EndChar

StartChar: uni00B2
Encoding: 178 178 111
GlifName: uni00B_2
Width: 378
Flags: W
HStem: 380.199 102<270.739 387.518> 706 102<258.613 324.249>
VStem: 104.317 330.037
LayerCount: 2
Fore
SplineSet
310.974609375 808 m 0
 349.7421875 808 381.500976562 794.341796875 406.250976562 767.026367188 c 0
 431.000976562 739.7109375 440.369140625 707.069335938 434.354492188 669.099609375 c 0
 427.623046875 627.46484375 409.1328125 594.043945312 378.887695312 568.8359375 c 2
 270.739257812 482.19921875 l 1
 403.672851562 482.19921875 l 1
 387.517578125 380.19921875 l 1
 104.317382812 380.19921875 l 1
 120.47265625 482.19921875 l 1
 312.052734375 635.96875 l 2
 323.67578125 646.001953125 330.44140625 657.045898438 332.350585938 669.099609375 c 0
 334.14453125 680.422851562 331.552734375 689.4140625 324.577148438 696.071289062 c 0
 317.6015625 702.728515625 308.8828125 706.038085938 298.418945312 706 c 0
 288.106445312 705.961914062 278.522460938 702.880859375 269.666992188 696.7578125 c 0
 260.811523438 690.633789062 255.087890625 682.254882812 252.49609375 671.62109375 c 1
 155.453125 691.083984375 l 1
 166.177734375 724.739257812 186.256835938 752.630859375 215.688476562 774.756835938 c 0
 245.12109375 796.8828125 276.8828125 807.963867188 310.974609375 808 c 0
EndSplineSet
EndChar

StartChar: uni00B3
Encoding: 179 179 112
GlifName: uni00B_3
Width: 361
Flags: W
HStem: 373.875 101.984<220.69 296.131> 479.329 20G<133.279 220.925> 705 102<239.586 321.512>
VStem: 300.555 101.62<480.974 531.549>
LayerCount: 2
Fore
SplineSet
309.81640625 807 m 0
 347.81640625 807 378.404296875 794.299804688 401.58203125 768.900390625 c 0
 424.758789062 743.5 433.49609375 712.799804688 427.793945312 676.799804688 c 0
 425.426757812 661.935546875 418.405273438 646.135742188 406.727539062 629.400390625 c 0
 398.44140625 617.524414062 387.810546875 605.176757812 374.834960938 592.359375 c 1
 383.452148438 580.368164062 390.104492188 568.715820312 394.790039062 557.400390625 c 0
 402.305664062 539.256835938 404.766601562 521.981445312 402.174804688 505.575195312 c 0
 396.430664062 469.305664062 377.733398438 438.2734375 346.083984375 412.478515625 c 0
 314.435546875 386.68359375 279.479492188 373.815429688 241.215820312 373.875 c 0
 208.501953125 373.924804688 180.254882812 383.559570312 156.473632812 402.778320312 c 0
 132.692382812 421.997070312 119.70703125 446.309570312 117.51953125 475.71484375 c 1
 220.48828125 499.329101562 l 1
 221.362304688 491.35546875 225.467773438 485.451171875 232.8046875 481.614257812 c 0
 240.142578125 477.77734375 248.73046875 475.859375 258.568359375 475.859375 c 0
 267.874023438 475.859375 276.830078125 478.890625 285.4375 484.952148438 c 0
 294.044921875 491.013671875 299.083984375 498.6875 300.5546875 507.974609375 c 0
 302.114257812 517.819335938 299.919921875 525.7734375 293.97265625 531.834960938 c 0
 288.024414062 537.896484375 279.258789062 540.927734375 267.674804688 540.927734375 c 2
 247.274414062 540.927734375 l 1
 263.4296875 642.927734375 l 1
 283.830078125 642.927734375 l 2
 294.729492188 642.927734375 304.033203125 645.948242188 311.739257812 651.98828125 c 0
 319.446289062 658.028320312 324.067382812 665.8984375 325.604492188 675.599609375 c 0
 327.061523438 684.799804688 324.500976562 692 317.92578125 697.200195312 c 0
 311.348632812 702.400390625 303.260742188 705 293.661132812 705 c 0
 281.241210938 705 271.244140625 702.495117188 263.669921875 697.486328125 c 0
 257.771484375 693.584960938 253.341796875 688.163085938 250.383789062 681.22265625 c 1
 155.33984375 705.9453125 l 1
 166.661132812 735.118164062 187.129882812 759.25390625 216.74609375 778.352539062 c 0
 246.361328125 797.451171875 277.384765625 807 309.81640625 807 c 0
EndSplineSet
EndChar

StartChar: acute
Encoding: 180 180 113
GlifName: acute
Width: 308
Flags: W
HStem: 553.5 147<217.948 264.666>
VStem: 88.666 325.282
LayerCount: 2
Fore
SplineSet
88.666015625 553.5 m 5
 217.948242188 700.5 l 5
 413.948242188 700.5 l 5
 264.666015625 553.5 l 5
 88.666015625 553.5 l 5
EndSplineSet
EndChar

StartChar: mu
Encoding: 181 181 114
GlifName: mu
Width: 584
Flags: W
HStem: -200 21G<11.3232 162.491> -12 170<266.954 367.91> 0 21G<388 539.168> 480 20G<119.025 292.192 442.025 615.192>
VStem: 11.3232 148<-200 -52> 122.192 170<330 500> 445.192 170<330 500>
LayerCount: 2
Fore
SplineSet
615.192382812 500 m 5xd6
 536 0 l 1
 388 0 l 1xb6
 393.561523438 35.115234375 l 1
 371.610351562 3.705078125 336.2890625 -12 287.599609375 -12 c 0
 243.1953125 -12 212.65625 2.482421875 195.98046875 31.4482421875 c 1
 159.323242188 -200 l 1
 11.3232421875 -200 l 1xda
 122.192382812 500 l 1
 292.192382812 500 l 1
 251.645507812 244 l 2
 247.633789062 218.666992188 251.860351562 198 264.326171875 182 c 0
 276.791992188 166 293.524414062 158 314.524414062 158 c 0
 335.524414062 158 354.791992188 166 372.326171875 182 c 0
 389.860351562 198 400.633789062 218.666992188 404.645507812 244 c 2
 445.192382812 500 l 5
 615.192382812 500 l 5xd6
EndSplineSet
EndChar

StartChar: paragraph
Encoding: 182 182 115
GlifName: paragraph
Width: 667
Flags: W
HStem: 680 20G<330.203 714.869>
VStem: 271.695 137<-84 53> 453.695 137<-84 53>
LayerCount: 2
Fore
SplineSet
363.869140625 700 m 2
 395.869140625 700 l 1
 714.869140625 700 l 1
 590.6953125 -84 l 1
 453.6953125 -84 l 1
 550.943359375 530 l 1
 505.943359375 530 l 1
 408.6953125 -84 l 1
 271.6953125 -84 l 1
 318.260742188 210 l 1
 286.260742188 210 l 2
 218.927734375 210 165.061523438 234 124.6640625 282 c 0
 84.2666015625 330 69.400390625 387.666992188 80.064453125 455 c 0
 90.7294921875 522.333007812 123.86328125 580 179.465820312 628 c 0
 235.068359375 676 296.536132812 700 363.869140625 700 c 2
EndSplineSet
EndChar

StartChar: periodcentered
Encoding: 183 183 116
GlifName: periodcentered
Width: 272
Flags: W
HStem: 246 206<140.899 241.653>
VStem: 88.2764 206
LayerCount: 2
Fore
SplineSet
294.276367188 349 m 0
 289.735351562 320.333007812 275.881835938 296 252.713867188 276 c 0
 229.546875 256 203.629882812 246 174.962890625 246 c 0
 146.295898438 246 123.546875 256 106.713867188 276 c 0
 89.8818359375 296 83.7353515625 320.333007812 88.2763671875 349 c 0
 92.81640625 377.666992188 106.670898438 402 129.837890625 422 c 0
 153.005859375 442 178.922851562 452 207.58984375 452 c 0
 236.256835938 452 259.005859375 442 275.837890625 422 c 0
 292.670898438 402 298.81640625 377.666992188 294.276367188 349 c 0
EndSplineSet
EndChar

StartChar: cedilla
Encoding: 184 184 117
GlifName: cedilla
Width: 260
Flags: W
HStem: -210 120<49.647 136.966>
VStem: -19.8535 286.727
LayerCount: 2
Fore
SplineSet
226.623046875 82.66015625 m 1
 261.70703125 49.6533203125 275.123046875 7.099609375 266.873046875 -45 c 0
 259.692382812 -90.3330078125 237.375 -129.166992188 199.920898438 -161.5 c 0
 162.466796875 -193.833007812 121.072265625 -210 75.7392578125 -210 c 0
 38.025390625 -209.854492188 6.16015625 -198.141601562 -19.853515625 -174.859375 c 1
 36.537109375 -109.1796875 64.7294921875 -76.3427734375 64.7255859375 -76.349609375 c 4
 72.0986328125 -85.4208984375 82.1044921875 -89.9716796875 94.7451171875 -90 c 0
 107.412109375 -90 118.764648438 -85.6669921875 128.8046875 -77 c 0
 138.84375 -68.3330078125 144.866210938 -57.6669921875 146.873046875 -45 c 0
 148.666992188 -33.6064453125 146.453125 -23.6689453125 140.232421875 -15.189453125 c 0
 134.012695312 -6.7099609375 125.434570312 -1.775390625 114.497070312 -0.38671875 c 1
 226.623046875 82.66015625 l 1
EndSplineSet
EndChar

StartChar: uni00B9
Encoding: 185 185 118
GlifName: uni00B_9
Width: 285
Flags: W
VStem: 186.187 102<380 482>
LayerCount: 2
Fore
SplineSet
252.708007812 800 m 1
 354.708007812 800 l 1
 288.186523438 380 l 1
 186.186523438 380 l 1
 231.618164062 666.848632812 l 1
 170.51171875 621.588867188 l 1
 117.321289062 699.724609375 l 1
 252.708007812 800 l 1
EndSplineSet
EndChar

StartChar: ordmasculine
Encoding: 186 186 119
GlifName: ordmasculine
Width: 348
Flags: W
HStem: 392.6 102<214.292 298.936> 605 102<222.823 307.467>
VStem: 103.68 314.4
LayerCount: 2
Fore
SplineSet
285.77734375 707 m 4
 329.186523438 707 363.80859375 691.65234375 389.642578125 660.95703125 c 4
 415.475585938 630.26171875 424.955078125 593.208984375 418.080078125 549.799804688 c 4
 411.204101562 506.390625 389.98828125 469.337890625 354.431640625 438.642578125 c 4
 318.874023438 407.947265625 279.390625 392.599609375 235.981445312 392.599609375 c 4
 192.572265625 392.599609375 157.950195312 407.947265625 132.1171875 438.642578125 c 4
 106.283203125 469.337890625 96.8037109375 506.390625 103.6796875 549.799804688 c 4
 110.5546875 593.208984375 131.770507812 630.26171875 167.328125 660.95703125 c 4
 202.884765625 691.65234375 242.368164062 707 285.77734375 707 c 4
269.622070312 605 m 4
 254.37890625 605 240.514648438 599.610351562 228.029296875 588.83203125 c 4
 215.543945312 578.053710938 208.09375 565.04296875 205.6796875 549.799804688 c 4
 203.264648438 534.556640625 206.59375 521.545898438 215.665039062 510.767578125 c 4
 224.736328125 499.989257812 236.893554688 494.599609375 252.13671875 494.599609375 c 4
 267.379882812 494.599609375 281.244140625 499.989257812 293.729492188 510.767578125 c 4
 306.21484375 521.545898438 313.665039062 534.556640625 316.080078125 549.799804688 c 4
 318.494140625 565.04296875 315.165039062 578.053710938 306.09375 588.83203125 c 4
 297.022460938 599.610351562 284.865234375 605 269.622070312 605 c 4
EndSplineSet
EndChar

StartChar: guillemotright
Encoding: 187 187 120
GlifName: guillemotright
Width: 826
Flags: W
LayerCount: 2
Fore
SplineSet
261.190429688 544.220703125 m 5
 121.942382812 424.012695312 l 5
 227.997070312 298 l 5
 82.025390625 171.987304688 l 5
 183.1953125 51.779296875 l 5
 468.413085938 298 l 5
 261.190429688 544.220703125 l 5
601.190429688 544.220703125 m 5
 461.942382812 424.012695312 l 5
 567.997070312 298 l 5
 422.025390625 171.987304688 l 5
 523.1953125 51.779296875 l 5
 808.413085938 298 l 5
 601.190429688 544.220703125 l 5
EndSplineSet
EndChar

StartChar: onequarter
Encoding: 188 188 121
GlifName: onequarter
Width: 854
Flags: W
HStem: 0 21G<659.4 764.568> 64.7998 102<613.357 669.664 787.819 823.864> 680 20G<209.866 338.869>
VStem: 170.348 102<280 382> 703.59 102<177 279>
LayerCount: 2
Fore
SplineSet
662.993164062 420.263671875 m 1
 748.608398438 377.15625 l 1
 613.357421875 166.799804688 l 1
 685.819335938 166.799804688 l 1
 703.58984375 279 l 1
 805.58984375 279 l 1
 787.819335938 166.799804688 l 1
 840.01953125 166.799804688 l 1
 823.864257812 64.7998046875 l 1
 771.6640625 64.7998046875 l 1
 761.400390625 0 l 1
 659.400390625 0 l 1
 669.6640625 64.7998046875 l 1
 484.864257812 64.7998046875 l 1
 501.01953125 166.799804688 l 1
 662.993164062 420.263671875 l 1
688.393554688 697 m 5
 771.916015625 633.099609375 l 5
 229.900390625 12 l 5
 147.954101562 74.6484375 l 5
 688.393554688 697 l 5
236.869140625 700 m 1
 338.869140625 700 l 1
 272.34765625 280 l 1
 170.34765625 280 l 1
 215.780273438 566.848632812 l 1
 154.672851562 521.588867188 l 1
 101.483398438 599.724609375 l 1
 236.869140625 700 l 1
EndSplineSet
EndChar

StartChar: onehalf
Encoding: 189 189 122
GlifName: onehalf
Width: 883
Flags: W
HStem: 0.199219 102<715.553 832.331> 326 102<703.427 769.062> 680 20G<209.866 338.869>
VStem: 170.348 102<280 382>
LayerCount: 2
Fore
SplineSet
755.788085938 428 m 0
 794.555664062 428 826.314453125 414.341796875 851.064453125 387.026367188 c 0
 875.814453125 359.7109375 885.182617188 327.069335938 879.168945312 289.099609375 c 0
 872.436523438 247.46484375 853.947265625 214.043945312 823.701171875 188.8359375 c 2
 715.552734375 102.19921875 l 1
 848.486328125 102.19921875 l 1
 832.331054688 0.19921875 l 1
 549.130859375 0.19921875 l 1
 565.286132812 102.19921875 l 1
 756.866210938 255.96875 l 2
 768.490234375 266.001953125 775.255859375 277.045898438 777.165039062 289.099609375 c 0
 778.958007812 300.422851562 776.3671875 309.4140625 769.390625 316.071289062 c 0
 762.416015625 322.728515625 753.697265625 326.038085938 743.233398438 326 c 0
 732.919921875 325.961914062 723.336914062 322.880859375 714.481445312 316.7578125 c 0
 705.625 310.633789062 699.901367188 302.254882812 697.310546875 291.62109375 c 1
 600.266601562 311.083984375 l 1
 610.9921875 344.739257812 631.0703125 372.630859375 660.502929688 394.756835938 c 0
 689.934570312 416.8828125 721.697265625 427.963867188 755.788085938 428 c 0
688.393554688 697 m 5
 771.916015625 633.099609375 l 5
 229.900390625 12 l 5
 147.954101562 74.6484375 l 5
 688.393554688 697 l 5
236.869140625 700 m 1
 338.869140625 700 l 1
 272.34765625 280 l 1
 170.34765625 280 l 1
 215.780273438 566.848632812 l 1
 154.672851562 521.588867188 l 1
 101.483398438 599.724609375 l 1
 236.869140625 700 l 1
EndSplineSet
EndChar

StartChar: threequarters
Encoding: 190 190 123
GlifName: threequarters
Width: 930
Flags: W
HStem: 0 21G<735.4 840.568> 64.7998 102<689.357 745.664 863.819 899.864> 273.875 101.984<204.851 280.292> 605 102<223.748 305.673>
VStem: 284.717 101.619<380.974 431.549> 779.59 102<177 279>
LayerCount: 2
Fore
SplineSet
738.993164062 420.263671875 m 1
 824.608398438 377.15625 l 1
 689.357421875 166.799804688 l 1
 761.819335938 166.799804688 l 1
 779.58984375 279 l 1
 881.58984375 279 l 1
 863.819335938 166.799804688 l 1
 916.01953125 166.799804688 l 1
 899.864257812 64.7998046875 l 1
 847.6640625 64.7998046875 l 1
 837.400390625 0 l 1
 735.400390625 0 l 1
 745.6640625 64.7998046875 l 1
 560.864257812 64.7998046875 l 1
 577.01953125 166.799804688 l 1
 738.993164062 420.263671875 l 1
764.393554688 697 m 5
 847.916015625 633.099609375 l 5
 305.900390625 12 l 5
 223.954101562 74.6484375 l 5
 764.393554688 697 l 5
293.977539062 707 m 0
 331.977539062 707 362.565429688 694.299804688 385.743164062 668.900390625 c 0
 408.919921875 643.5 417.657226562 612.799804688 411.956054688 576.799804688 c 0
 409.588867188 561.935546875 402.56640625 546.135742188 390.888671875 529.400390625 c 0
 382.602539062 517.524414062 371.971679688 505.176757812 358.997070312 492.359375 c 1
 367.614257812 480.368164062 374.265625 468.715820312 378.952148438 457.400390625 c 0
 386.466796875 439.256835938 388.927734375 421.981445312 386.3359375 405.575195312 c 0
 380.591796875 369.305664062 361.89453125 338.2734375 330.24609375 312.478515625 c 0
 298.596679688 286.68359375 263.640625 273.815429688 225.377929688 273.875 c 0
 192.6640625 273.924804688 164.416015625 283.559570312 140.634765625 302.778320312 c 0
 116.853515625 321.997070312 103.868164062 346.309570312 101.681640625 375.71484375 c 1
 204.649414062 399.329101562 l 1
 205.5234375 391.35546875 209.629882812 385.451171875 216.965820312 381.614257812 c 0
 224.303710938 377.77734375 232.891601562 375.859375 242.729492188 375.859375 c 0
 252.03515625 375.859375 260.9921875 378.890625 269.599609375 384.952148438 c 0
 278.20703125 391.013671875 283.245117188 398.6875 284.716796875 407.974609375 c 0
 286.275390625 417.819335938 284.081054688 425.7734375 278.133789062 431.834960938 c 0
 272.186523438 437.896484375 263.419921875 440.927734375 251.8359375 440.927734375 c 2
 231.435546875 440.927734375 l 1
 247.590820312 542.927734375 l 1
 267.991210938 542.927734375 l 2
 278.890625 542.927734375 288.194335938 545.948242188 295.901367188 551.98828125 c 0
 303.607421875 558.028320312 308.229492188 565.8984375 309.765625 575.599609375 c 0
 311.22265625 584.799804688 308.663085938 592 302.086914062 597.200195312 c 0
 295.510742188 602.400390625 287.421875 605 277.822265625 605 c 0
 265.40234375 605 255.405273438 602.495117188 247.83203125 597.486328125 c 0
 241.932617188 593.584960938 237.50390625 588.163085938 234.544921875 581.22265625 c 1
 139.501953125 605.9453125 l 1
 150.822265625 635.118164062 171.291992188 659.25390625 200.907226562 678.352539062 c 0
 230.5234375 697.451171875 261.545898438 707 293.977539062 707 c 0
EndSplineSet
EndChar

StartChar: questiondown
Encoding: 191 191 124
GlifName: questiondown
Width: 469
Flags: W
HStem: -215 170<186.837 282.585> 306 206<261.588 362.341>
LayerCount: 2
Fore
SplineSet
208.96484375 409 m 4
 213.504882812 437.666992188 227.359375 462 250.526367188 482 c 4
 273.694335938 502 299.611328125 512 328.278320312 512 c 4
 356.9453125 512 379.694335938 502 396.526367188 482 c 4
 413.359375 462 419.504882812 437.666992188 414.96484375 409 c 4
 410.424804688 380.333007812 396.5703125 356 373.40234375 336 c 4
 350.235351562 316 324.318359375 306 295.651367188 306 c 4
 266.984375 306 244.235351562 316 227.40234375 336 c 4
 210.5703125 356 204.424804688 380.333007812 208.96484375 409 c 4
204.1328125 -215 m 4
 139.465820312 -215 87.775390625 -192 49.0615234375 -146 c 4
 10.3466796875 -100 -3.888671875 -44.6669921875 6.353515625 20 c 4
 13.5673828125 65.3291015625 32.4306640625 107.111328125 62.9423828125 145.346679688 c 4
 93.4541015625 183.581054688 130.876953125 212.655273438 175.208007812 232.568359375 c 4
 186.998046875 237.864257812 196.166992188 245.340820312 202.712890625 255 c 4
 208.21875 263.124023438 211.870117188 272.790039062 213.666992188 284 c 5
 383.666992188 284 l 5
 376.919921875 241.579101562 358.853515625 201.413085938 329.469726562 163.500976562 c 4
 300.084960938 125.58984375 265.008789062 97.478515625 224.23828125 79.1669921875 c 4
 210.887695312 73.1708984375 200.258789062 65.4482421875 192.350585938 56 c 4
 183.942382812 45.9521484375 178.609375 33.9521484375 176.353515625 20 c 4
 173.291015625 0.6669921875 176.809570312 -15 186.909179688 -27 c 4
 197.008789062 -39 211.725585938 -45 231.05859375 -45 c 4
 248.396484375 -44.9306640625 263.864257812 -39.5087890625 277.462890625 -28.734375 c 4
 291.060546875 -17.9609375 300.149414062 -4.01171875 304.731445312 13.1123046875 c 5
 469.329101562 -10.548828125 l 5
 452.408203125 -69.0009765625 418.717773438 -117.677734375 368.259765625 -156.578125 c 4
 317.801757812 -195.478515625 263.092773438 -214.952148438 204.1328125 -215 c 4
EndSplineSet
EndChar

StartChar: Agrave
Encoding: 192 192 125
GlifName: A_grave
Width: 695
Flags: W
HStem: 0 21G<10 199.996 500.882 685> 93 170<321.451 450.848> 680 20G<350.844 544.016> 754 147<364.422 457.704>
LayerCount: 2
Fore
SplineSet
364.421875 754 m 5
 261.704101562 901 l 5
 457.704101562 901 l 5
 540.421875 754 l 5
 364.421875 754 l 5
321.451171875 263 m 1
 450.84765625 263 l 1
 413.094726562 446.356445312 l 1
 321.451171875 263 l 1
236.482421875 93 m 1
 190 0 l 1
 10 0 l 1
 360.869140625 700 l 1
 539.869140625 700 l 1
 685 0 l 1
 505 0 l 1
 485.850585938 93 l 1
 236.482421875 93 l 1
EndSplineSet
EndChar

StartChar: Aacute
Encoding: 193 193 126
GlifName: A_acute
Width: 695
Flags: W
HStem: 95 170<319.768 449.164> 682 20G<349.161 542.332>
LayerCount: 2
Fore
SplineSet
319.767578125 265 m 1
 449.1640625 265 l 1
 411.411132812 448.356445312 l 1
 319.767578125 265 l 1
234.799804688 95 m 1
 188.31640625 2 l 1
 8.31640625 2 l 1
 359.185546875 702 l 1
 538.185546875 702 l 1
 683.31640625 2 l 1
 503.31640625 2 l 1
 484.16796875 95 l 1
 234.799804688 95 l 1
367.758789062 743.5 m 5
 497.041015625 890.5 l 5
 693.041015625 890.5 l 5
 543.758789062 743.5 l 5
 367.758789062 743.5 l 5
EndSplineSet
EndChar

StartChar: Acircumflex
Encoding: 194 194 127
GlifName: A_circumflex
Width: 695
Flags: W
HStem: 0 21G<10 199.996 500.882 685> 93 170<321.451 450.848> 680 20G<350.844 544.016> 754 146<401.1 412.424 510.42 567.992>
LayerCount: 2
Fore
SplineSet
247.66796875 754 m 1
 401.099609375 900 l 1
 567.9921875 900 l 1
 675.17578125 754 l 1
 510.419921875 754 l 1
 469.659179688 806.009765625 l 1
 412.423828125 754 l 1
 247.66796875 754 l 1
321.451171875 263 m 1
 450.84765625 263 l 1
 413.094726562 446.356445312 l 1
 321.451171875 263 l 1
236.482421875 93 m 1
 190 0 l 1
 10 0 l 1
 360.869140625 700 l 1
 539.869140625 700 l 1
 685 0 l 1
 505 0 l 1
 485.850585938 93 l 1
 236.482421875 93 l 1
EndSplineSet
EndChar

StartChar: Atilde
Encoding: 195 195 128
GlifName: A_tilde
Width: 695
Flags: W
HStem: 0 21G<10 199.996 500.882 685> 93 170<321.451 450.848> 680 20G<350.844 544.016> 734 106<517.796 572.427> 806 106<375.608 437.509>
LayerCount: 2
Fore
SplineSet
531.25390625 734 m 0xf0
 489.920898438 734 461.822265625 746 446.956054688 770 c 0
 441.1015625 779.333007812 435.420898438 787.666992188 429.916015625 795 c 0
 424.41015625 802.333007812 415.991210938 806 404.658203125 806 c 0
 389.991210938 806 377.598632812 793 367.48046875 767 c 1
 250.48046875 767 l 1
 259.799804688 809 280.624023438 843.666992188 312.953125 871 c 0
 345.282226562 898.333007812 379.446289062 912 415.446289062 912 c 0xe8
 460.11328125 912 490.87890625 900 507.745117188 876 c 0
 514.266601562 866.666992188 519.946289062 858.333007812 524.78515625 851 c 0
 529.624023438 843.666992188 537.04296875 840 547.04296875 840 c 0
 561.04296875 840 571.768554688 853 579.219726562 879 c 1
 696.219726562 879 l 5
 684.794921875 836.333007812 663.778320312 801.5 633.168945312 774.5 c 0
 602.559570312 747.5 568.586914062 734 531.25390625 734 c 0xf0
321.451171875 263 m 1
 450.84765625 263 l 1
 413.094726562 446.356445312 l 1
 321.451171875 263 l 1
236.482421875 93 m 1
 190 0 l 1
 10 0 l 1
 360.869140625 700 l 1
 539.869140625 700 l 1
 685 0 l 1
 505 0 l 1
 485.850585938 93 l 1
 236.482421875 93 l 1
EndSplineSet
EndChar

StartChar: Adieresis
Encoding: 196 196 129
GlifName: A_dieresis
Width: 695
Flags: W
HStem: 0 21G<10 199.996 500.882 685> 93 170<321.451 450.848> 680 20G<350.844 544.016> 769 176<292.254 385.217 562.254 655.217>
LayerCount: 2
Fore
SplineSet
352.672851562 945 m 4
 376.672851562 945 395.967773438 936.333007812 410.555664062 919 c 4
 425.142578125 901.666992188 430.537109375 881 426.735351562 857 c 4
 422.934570312 833 410.994140625 812.333007812 390.916015625 795 c 4
 370.836914062 777.666992188 348.797851562 769 324.797851562 769 c 4
 300.797851562 769 281.502929688 777.666992188 266.916015625 795 c 4
 252.328125 812.333007812 246.934570312 833 250.735351562 857 c 4
 254.537109375 881 266.4765625 901.666992188 286.555664062 919 c 4
 306.633789062 936.333007812 328.672851562 945 352.672851562 945 c 4
622.672851562 945 m 4
 646.672851562 945 665.967773438 936.333007812 680.555664062 919 c 4
 695.142578125 901.666992188 700.537109375 881 696.735351562 857 c 4
 692.934570312 833 680.994140625 812.333007812 660.916015625 795 c 4
 640.836914062 777.666992188 618.797851562 769 594.797851562 769 c 4
 570.797851562 769 551.502929688 777.666992188 536.916015625 795 c 4
 522.328125 812.333007812 516.934570312 833 520.735351562 857 c 4
 524.537109375 881 536.4765625 901.666992188 556.555664062 919 c 4
 576.633789062 936.333007812 598.672851562 945 622.672851562 945 c 4
321.451171875 263 m 1
 450.84765625 263 l 1
 413.094726562 446.356445312 l 1
 321.451171875 263 l 1
236.482421875 93 m 1
 190 0 l 1
 10 0 l 1
 360.869140625 700 l 1
 539.869140625 700 l 1
 685 0 l 1
 505 0 l 1
 485.850585938 93 l 1
 236.482421875 93 l 1
EndSplineSet
EndChar

StartChar: Aring
Encoding: 197 197 130
GlifName: A_ring
Width: 695
Flags: W
HStem: 0 21G<10 199.996 500.882 685> 93 170<321.451 450.848> 680 20G<350.844 544.016> 720 97.1309<444.43 501.86> 881.869 97.1309<445.235 502.665>
LayerCount: 2
Fore
SplineSet
494.05859375 979 m 0
 529.794921875 979 558.30859375 966.350585938 579.600585938 941.052734375 c 0
 600.891601562 915.75390625 608.708007812 885.236328125 603.047851562 849.5 c 0
 597.387695312 813.763671875 579.904296875 783.24609375 550.599609375 757.947265625 c 0
 521.293945312 732.649414062 488.7734375 720 453.037109375 720 c 0
 417.30078125 720 388.786132812 732.649414062 367.494140625 757.947265625 c 0
 346.203125 783.24609375 338.387695312 813.763671875 344.047851562 849.5 c 0
 349.708007812 885.236328125 367.190429688 915.75390625 396.495117188 941.052734375 c 0
 425.80078125 966.350585938 458.322265625 979 494.05859375 979 c 0
478.674804688 881.869140625 m 0
 469.7421875 881.869140625 461.61328125 878.70703125 454.288085938 872.383789062 c 0
 446.963867188 866.060546875 442.592773438 858.432617188 441.178710938 849.5 c 0
 439.763671875 840.567382812 441.717773438 832.939453125 447.0390625 826.616210938 c 0
 452.361328125 820.29296875 459.48828125 817.130859375 468.420898438 817.130859375 c 0
 477.353515625 817.130859375 485.482421875 820.29296875 492.806640625 826.616210938 c 0
 500.131835938 832.939453125 504.501953125 840.567382812 505.916992188 849.5 c 0
 507.331054688 858.432617188 505.377929688 866.060546875 500.055664062 872.383789062 c 0
 494.734375 878.70703125 487.607421875 881.869140625 478.674804688 881.869140625 c 0
321.451171875 263 m 1
 450.84765625 263 l 1
 413.094726562 446.356445312 l 1
 321.451171875 263 l 1
236.482421875 93 m 1
 190 0 l 1
 10 0 l 1
 360.869140625 700 l 1
 539.869140625 700 l 1
 685 0 l 1
 505 0 l 1
 485.850585938 93 l 1
 236.482421875 93 l 1
EndSplineSet
EndChar

StartChar: AE
Encoding: 198 198 131
GlifName: A_E_
Width: 1039
Flags: W
HStem: 0 170<697.926 977> 266 169<739.897 948.13> 530 170<754.943 1059.94>
LayerCount: 2
Fore
SplineSet
611.869140625 700 m 1
 1086.86914062 700 l 1
 1059.94335938 530 l 1
 754.943359375 530 l 1
 739.897460938 435 l 1
 974.897460938 435 l 1
 948.129882812 266 l 1
 713.129882812 266 l 1
 697.92578125 170 l 1
 1003.92578125 170 l 1
 977 0 l 1
 501 0 l 1
 516.6796875 99 l 1
 311.428710938 99 l 1
 228 0 l 1
 22 0 l 1
 611.869140625 700 l 1
564.1875 398.950195312 m 1
 451.268554688 265 l 1
 543.475585938 265 l 1
 564.1875 398.950195312 l 1
EndSplineSet
EndChar

StartChar: Ccedilla
Encoding: 199 199 132
GlifName: C_cedilla
Width: 664
Flags: W
HStem: -210 120<272.811 360.13> -12.5 21G<336.39 412.282> 541.5 170<382.116 560.516>
LayerCount: 2
Fore
SplineSet
449.787109375 82.66015625 m 1
 484.87109375 49.6533203125 498.287109375 7.099609375 490.037109375 -45 c 0
 482.856445312 -90.3330078125 460.5390625 -129.166992188 423.084960938 -161.5 c 0
 385.630859375 -193.833007812 344.236328125 -210 298.903320312 -210 c 0
 261.189453125 -209.854492188 229.32421875 -198.141601562 203.310546875 -174.859375 c 1
 259.701171875 -109.1796875 287.893554688 -76.3427734375 287.889648438 -76.349609375 c 4
 295.262695312 -85.4208984375 305.268554688 -89.9716796875 317.909179688 -90 c 0
 330.576171875 -90 341.928710938 -85.6669921875 351.96875 -77 c 0
 362.0078125 -68.3330078125 368.030273438 -57.6669921875 370.037109375 -45 c 0
 371.831054688 -33.6064453125 369.6171875 -23.6689453125 363.396484375 -15.189453125 c 0
 357.176757812 -6.7099609375 348.598632812 -1.775390625 337.661132812 -0.38671875 c 1
 449.787109375 82.66015625 l 1
502.473632812 711.5 m 0
 551.612304688 711.5 596.767578125 702.155273438 637.9375 683.465820312 c 0
 679.108398438 664.77734375 713.748046875 638.694335938 741.856445312 605.216796875 c 1
 602.525390625 484.935546875 l 1
 571.006835938 522.600585938 528.681640625 541.456054688 475.548828125 541.5 c 0
 422.565429688 541.5 374.348632812 522.74609375 330.899414062 485.23828125 c 0
 287.450195312 447.729492188 261.530273438 402.483398438 253.138671875 349.5 c 0
 244.747070312 296.516601562 256.333984375 251.270507812 287.901367188 213.76171875 c 0
 319.469726562 176.25390625 361.745117188 157.5 414.728515625 157.5 c 0
 467.607421875 157.514648438 515.7265625 176.185546875 559.088867188 213.51171875 c 1
 659.73046875 93.9296875 l 1
 621.182617188 60.5615234375 578.46484375 34.525390625 531.57421875 15.8212890625 c 0
 484.682617188 -2.8828125 436.759765625 -12.3232421875 387.803710938 -12.5 c 0
 284.9765625 -12.5 203.9453125 24.13671875 144.711914062 97.4111328125 c 0
 88.130859375 167.404296875 67.6064453125 251.43359375 83.138671875 349.5 c 0
 98.70703125 447.793945312 146.002929688 531.9609375 225.029296875 602 c 0
 307.39453125 675 399.876953125 711.5 502.473632812 711.5 c 0
EndSplineSet
EndChar

StartChar: Egrave
Encoding: 200 200 133
GlifName: E_grave
Width: 592
Flags: W
HStem: 0 170<259.926 539> 266 169<301.897 510.13> 530 170<316.943 621.943> 754 147<349.422 442.704>
LayerCount: 2
Fore
SplineSet
349.421875 754 m 5
 246.704101562 901 l 5
 442.704101562 901 l 5
 525.421875 754 l 5
 349.421875 754 l 5
63 0 m 1
 173.869140625 700 l 1
 648.869140625 700 l 1
 621.943359375 530 l 1
 316.943359375 530 l 1
 301.897460938 435 l 1
 536.897460938 435 l 1
 510.129882812 266 l 1
 275.129882812 266 l 1
 259.92578125 170 l 1
 565.92578125 170 l 1
 539 0 l 1
 63 0 l 1
EndSplineSet
EndChar

StartChar: Eacute
Encoding: 201 201 134
GlifName: E_acute
Width: 592
Flags: W
HStem: 0 170<259.926 539> 266 169<301.897 510.13> 530 170<316.943 621.943>
LayerCount: 2
Fore
SplineSet
63 0 m 1
 173.869140625 700 l 1
 648.869140625 700 l 1
 621.943359375 530 l 1
 316.943359375 530 l 1
 301.897460938 435 l 1
 536.897460938 435 l 1
 510.129882812 266 l 1
 275.129882812 266 l 1
 259.92578125 170 l 1
 565.92578125 170 l 1
 539 0 l 1
 63 0 l 1
326.8671875 750.5 m 5
 456.150390625 897.5 l 5
 652.150390625 897.5 l 5
 502.8671875 750.5 l 5
 326.8671875 750.5 l 5
EndSplineSet
EndChar

StartChar: Ecircumflex
Encoding: 202 202 135
GlifName: E_circumflex
Width: 592
Flags: W
HStem: 0 170<259.926 539> 266 169<301.897 510.13> 530 170<316.943 621.943> 754 146<353.1 364.424 462.42 519.992>
LayerCount: 2
Fore
SplineSet
199.66796875 754 m 1
 353.099609375 900 l 1
 519.9921875 900 l 1
 627.17578125 754 l 1
 462.419921875 754 l 1
 421.659179688 806.009765625 l 1
 364.423828125 754 l 1
 199.66796875 754 l 1
63 0 m 1
 173.869140625 700 l 1
 648.869140625 700 l 1
 621.943359375 530 l 1
 316.943359375 530 l 1
 301.897460938 435 l 1
 536.897460938 435 l 1
 510.129882812 266 l 1
 275.129882812 266 l 1
 259.92578125 170 l 1
 565.92578125 170 l 1
 539 0 l 1
 63 0 l 1
EndSplineSet
EndChar

StartChar: Edieresis
Encoding: 203 203 136
GlifName: E_dieresis
Width: 592
Flags: W
HStem: 0 170<259.926 539> 266 169<301.897 510.13> 530 170<316.943 621.943> 769 176<251.254 344.217 521.254 614.217>
LayerCount: 2
Fore
SplineSet
311.672851562 945 m 4
 335.672851562 945 354.967773438 936.333007812 369.555664062 919 c 4
 384.142578125 901.666992188 389.537109375 881 385.735351562 857 c 4
 381.934570312 833 369.994140625 812.333007812 349.916015625 795 c 4
 329.836914062 777.666992188 307.797851562 769 283.797851562 769 c 4
 259.797851562 769 240.502929688 777.666992188 225.916015625 795 c 4
 211.328125 812.333007812 205.934570312 833 209.735351562 857 c 4
 213.537109375 881 225.4765625 901.666992188 245.555664062 919 c 4
 265.633789062 936.333007812 287.672851562 945 311.672851562 945 c 4
581.672851562 945 m 4
 605.672851562 945 624.967773438 936.333007812 639.555664062 919 c 4
 654.142578125 901.666992188 659.537109375 881 655.735351562 857 c 4
 651.934570312 833 639.994140625 812.333007812 619.916015625 795 c 4
 599.836914062 777.666992188 577.797851562 769 553.797851562 769 c 4
 529.797851562 769 510.502929688 777.666992188 495.916015625 795 c 4
 481.328125 812.333007812 475.934570312 833 479.735351562 857 c 4
 483.537109375 881 495.4765625 901.666992188 515.555664062 919 c 4
 535.633789062 936.333007812 557.672851562 945 581.672851562 945 c 4
63 0 m 1
 173.869140625 700 l 1
 648.869140625 700 l 1
 621.943359375 530 l 1
 316.943359375 530 l 1
 301.897460938 435 l 1
 536.897460938 435 l 1
 510.129882812 266 l 1
 275.129882812 266 l 1
 259.92578125 170 l 1
 565.92578125 170 l 1
 539 0 l 1
 63 0 l 1
EndSplineSet
EndChar

StartChar: Igrave
Encoding: 204 204 137
GlifName: I_grave
Width: 296
Flags: W
HStem: 0 21G<63 236.168> 680 20G<170.701 343.869> 754 147<177.922 271.204>
VStem: 63 170<0 170> 173.869 170<530 700>
LayerCount: 2
Fore
SplineSet
177.921875 754 m 5xe0
 75.2041015625 901 l 5
 271.204101562 901 l 5
 353.921875 754 l 5
 177.921875 754 l 5xe0
63 0 m 1xf0
 173.869140625 700 l 1
 343.869140625 700 l 1xe8
 233 0 l 1
 63 0 l 1xf0
EndSplineSet
EndChar

StartChar: Iacute
Encoding: 205 205 138
GlifName: I_acute
Width: 296
Flags: W
HStem: 0 21G<63 236.168> 680 20G<170.701 343.869>
VStem: 63 170<0 170> 173.869 170<530 700>
LayerCount: 2
Fore
SplineSet
63 0 m 1xe0
 173.869140625 700 l 1
 343.869140625 700 l 1xd0
 233 0 l 1
 63 0 l 1xe0
178.8671875 750.5 m 5
 308.150390625 897.5 l 5
 504.150390625 897.5 l 5
 354.8671875 750.5 l 5
 178.8671875 750.5 l 5
EndSplineSet
EndChar

StartChar: Icircumflex
Encoding: 206 206 139
GlifName: I_circumflex
Width: 296
Flags: W
HStem: 0 21G<63 236.168> 680 20G<170.701 343.869> 754 146<213.6 224.924 322.92 380.492>
VStem: 63 170<0 170> 173.869 170<530 700>
LayerCount: 2
Fore
SplineSet
60.16796875 754 m 1xe0
 213.599609375 900 l 1
 380.4921875 900 l 1
 487.67578125 754 l 1
 322.919921875 754 l 1
 282.159179688 806.009765625 l 1
 224.923828125 754 l 1
 60.16796875 754 l 1xe0
63 0 m 1xf0
 173.869140625 700 l 1
 343.869140625 700 l 1xe8
 233 0 l 1
 63 0 l 1xf0
EndSplineSet
EndChar

StartChar: Idieresis
Encoding: 207 207 140
GlifName: I_dieresis
Width: 296
Flags: W
HStem: 0 21G<63 236.168> 680 20G<170.701 343.869> 799 176<122.505 215.468 362.505 455.468>
VStem: 63 170<0 170> 173.869 170<530 700>
LayerCount: 2
Fore
SplineSet
63 0 m 1xf0
 173.869140625 700 l 1
 343.869140625 700 l 1xe8
 233 0 l 1
 63 0 l 1xf0
182.924804688 975 m 0
 206.924804688 975 226.21875 966.333007812 240.806640625 949 c 0
 255.39453125 931.666992188 260.788085938 911 256.987304688 887 c 0
 253.185546875 863 241.245117188 842.333007812 221.166992188 825 c 0
 201.088867188 807.666992188 179.048828125 799 155.048828125 799 c 0
 131.048828125 799 111.754882812 807.666992188 97.1669921875 825 c 0
 82.5791015625 842.333007812 77.185546875 863 80.9873046875 887 c 0
 84.7880859375 911 96.728515625 931.666992188 116.806640625 949 c 0
 136.884765625 966.333007812 158.924804688 975 182.924804688 975 c 0
422.924804688 975 m 0
 446.924804688 975 466.21875 966.333007812 480.806640625 949 c 0
 495.39453125 931.666992188 500.788085938 911 496.987304688 887 c 0
 493.185546875 863 481.245117188 842.333007812 461.166992188 825 c 0
 441.088867188 807.666992188 419.048828125 799 395.048828125 799 c 0
 371.048828125 799 351.754882812 807.666992188 337.166992188 825 c 0
 322.579101562 842.333007812 317.185546875 863 320.987304688 887 c 0
 324.788085938 911 336.728515625 931.666992188 356.806640625 949 c 0
 376.884765625 966.333007812 398.924804688 975 422.924804688 975 c 0
EndSplineSet
EndChar

StartChar: Eth
Encoding: 208 208 141
GlifName: E_th
Width: 713
Flags: W
HStem: 0 170<259.926 452.198> 266 169<91.8975 403.13> 530 170<316.943 502.352>
LayerCount: 2
Fore
SplineSet
418.943359375 530 m 2
 316.943359375 530 l 1
 259.92578125 170 l 1
 361.92578125 170 l 2
 411.92578125 170 457.197265625 187.5 497.740234375 222.5 c 0
 538.284179688 257.5 562.515625 300 570.434570312 350 c 0
 578.353515625 400 567.584960938 442.5 538.12890625 477.5 c 0
 508.671875 512.5 468.943359375 530 418.943359375 530 c 2
445.869140625 700 m 2
 542.536132812 700 619.625 665.833007812 677.134765625 597.5 c 0
 734.64453125 529.166992188 755.745117188 446.666992188 740.434570312 350 c 0
 725.124023438 253.333007812 677.890625 170.833007812 598.734375 102.5 c 0
 519.578125 34.1669921875 431.666992188 0 335 0 c 2
 63 0 l 1
 173.869140625 700 l 1
 445.869140625 700 l 2
65.1298828125 266 m 1
 91.8974609375 435 l 1
 429.897460938 435 l 1
 403.129882812 266 l 1
 65.1298828125 266 l 1
EndSplineSet
EndChar

StartChar: Ntilde
Encoding: 209 209 142
GlifName: N_tilde
Width: 719
Flags: W
HStem: 0 21G<63 236.168 476.16 659.168> 680 20G<170.701 353.709 593.701 766.869> 714 106<530.129 584.759> 786 106<387.941 449.842>
VStem: 63 170<0 170> 596.869 170<530 700>
LayerCount: 2
Fore
SplineSet
543.586914062 714 m 0xec
 502.25390625 714 474.154296875 726 459.288085938 750 c 0
 453.43359375 759.333007812 447.75390625 767.666992188 442.248046875 775 c 0
 436.7421875 782.333007812 428.323242188 786 416.990234375 786 c 0
 402.323242188 786 389.931640625 773 379.813476562 747 c 1
 262.813476562 747 l 1
 272.131835938 789 292.956054688 823.666992188 325.28515625 851 c 0
 357.614257812 878.333007812 391.779296875 892 427.779296875 892 c 0xdc
 472.446289062 892 503.2109375 880 520.077148438 856 c 0
 526.598632812 846.666992188 532.279296875 838.333007812 537.1171875 831 c 0
 541.956054688 823.666992188 549.375 820 559.375 820 c 0
 573.375 820 584.1015625 833 591.551757812 859 c 1
 708.551757812 859 l 5
 697.127929688 816.333007812 676.110351562 781.5 645.500976562 754.5 c 0
 614.891601562 727.5 580.919921875 714 543.586914062 714 c 0xec
173.869140625 700 m 1
 343.869140625 700 l 1
 535.2578125 311 l 1
 596.869140625 700 l 1
 766.869140625 700 l 1
 656 0 l 1
 486 0 l 1
 294.611328125 389 l 1
 233 0 l 1
 63 0 l 1
 173.869140625 700 l 1
EndSplineSet
EndChar

StartChar: Ograve
Encoding: 210 210 143
GlifName: O_grave
Width: 780
Flags: W
HStem: -12.5 170<328.418 507.923> 541.5 170<382.927 561.618> 754 147<440.922 534.204>
LayerCount: 2
Fore
SplineSet
440.921875 754 m 5
 338.204101562 901 l 5
 534.204101562 901 l 5
 616.921875 754 l 5
 440.921875 754 l 5
475.765625 541.5 m 0
 422.782226562 541.5 374.565429688 522.74609375 331.116210938 485.23828125 c 0
 287.666992188 447.729492188 261.747070312 402.483398438 253.35546875 349.5 c 0
 244.963867188 296.516601562 256.55078125 251.270507812 288.118164062 213.76171875 c 0
 319.686523438 176.25390625 361.961914062 157.5 414.9453125 157.5 c 0
 467.928710938 157.5 516.145507812 176.25390625 559.594726562 213.76171875 c 0
 603.04296875 251.270507812 628.963867188 296.516601562 637.35546875 349.5 c 0
 645.747070312 402.483398438 634.159179688 447.729492188 602.592773438 485.23828125 c 0
 571.024414062 522.74609375 528.749023438 541.5 475.765625 541.5 c 0
502.690429688 711.5 m 0
 601.8984375 711.5 681.147460938 677 740.438476562 608 c 0
 801.153320312 537.342773438 823.458984375 451.17578125 807.35546875 349.5 c 0
 791.016601562 246.342773438 740.400390625 159.3203125 655.506835938 88.4326171875 c 0
 574.923828125 21.14453125 485.76171875 -12.5 388.020507812 -12.5 c 0
 286.344726562 -12.5 205.872070312 23.453125 146.603515625 95.359375 c 0
 88.7255859375 165.579101562 67.642578125 250.291992188 83.35546875 349.5 c 0
 99.1005859375 448.909179688 147.154296875 533.743164062 227.517578125 604 c 0
 309.493164062 675.666992188 401.216796875 711.5 502.690429688 711.5 c 0
EndSplineSet
EndChar

StartChar: Oacute
Encoding: 211 211 144
GlifName: O_acute
Width: 780
Flags: W
HStem: -12.5 170<328.418 507.923> 541.5 170<382.927 561.618>
LayerCount: 2
Fore
SplineSet
475.765625 541.5 m 0
 422.782226562 541.5 374.565429688 522.74609375 331.116210938 485.23828125 c 0
 287.666992188 447.729492188 261.747070312 402.483398438 253.35546875 349.5 c 0
 244.963867188 296.516601562 256.55078125 251.270507812 288.118164062 213.76171875 c 0
 319.686523438 176.25390625 361.961914062 157.5 414.9453125 157.5 c 0
 467.928710938 157.5 516.145507812 176.25390625 559.594726562 213.76171875 c 0
 603.04296875 251.270507812 628.963867188 296.516601562 637.35546875 349.5 c 0
 645.747070312 402.483398438 634.159179688 447.729492188 602.592773438 485.23828125 c 0
 571.024414062 522.74609375 528.749023438 541.5 475.765625 541.5 c 0
502.690429688 711.5 m 0
 601.8984375 711.5 681.147460938 677 740.438476562 608 c 0
 801.153320312 537.342773438 823.458984375 451.17578125 807.35546875 349.5 c 0
 791.016601562 246.342773438 740.400390625 159.3203125 655.506835938 88.4326171875 c 0
 574.923828125 21.14453125 485.76171875 -12.5 388.020507812 -12.5 c 0
 286.344726562 -12.5 205.872070312 23.453125 146.603515625 95.359375 c 0
 88.7255859375 165.579101562 67.642578125 250.291992188 83.35546875 349.5 c 0
 99.1005859375 448.909179688 147.154296875 533.743164062 227.517578125 604 c 0
 309.493164062 675.666992188 401.216796875 711.5 502.690429688 711.5 c 0
414.8671875 750.5 m 5
 544.150390625 897.5 l 5
 740.150390625 897.5 l 5
 590.8671875 750.5 l 5
 414.8671875 750.5 l 5
EndSplineSet
EndChar

StartChar: Ocircumflex
Encoding: 212 212 145
GlifName: O_circumflex
Width: 780
Flags: W
HStem: -12.5 170<328.418 507.923> 541.5 170<382.927 561.618> 754 146<445.6 456.924 554.92 612.492>
LayerCount: 2
Fore
SplineSet
292.16796875 754 m 1
 445.599609375 900 l 1
 612.4921875 900 l 1
 719.67578125 754 l 1
 554.919921875 754 l 1
 514.159179688 806.009765625 l 1
 456.923828125 754 l 1
 292.16796875 754 l 1
475.765625 541.5 m 0
 422.782226562 541.5 374.565429688 522.74609375 331.116210938 485.23828125 c 0
 287.666992188 447.729492188 261.747070312 402.483398438 253.35546875 349.5 c 0
 244.963867188 296.516601562 256.55078125 251.270507812 288.118164062 213.76171875 c 0
 319.686523438 176.25390625 361.961914062 157.5 414.9453125 157.5 c 0
 467.928710938 157.5 516.145507812 176.25390625 559.594726562 213.76171875 c 0
 603.04296875 251.270507812 628.963867188 296.516601562 637.35546875 349.5 c 0
 645.747070312 402.483398438 634.159179688 447.729492188 602.592773438 485.23828125 c 0
 571.024414062 522.74609375 528.749023438 541.5 475.765625 541.5 c 0
502.690429688 711.5 m 0
 601.8984375 711.5 681.147460938 677 740.438476562 608 c 0
 801.153320312 537.342773438 823.458984375 451.17578125 807.35546875 349.5 c 0
 791.016601562 246.342773438 740.400390625 159.3203125 655.506835938 88.4326171875 c 0
 574.923828125 21.14453125 485.76171875 -12.5 388.020507812 -12.5 c 0
 286.344726562 -12.5 205.872070312 23.453125 146.603515625 95.359375 c 0
 88.7255859375 165.579101562 67.642578125 250.291992188 83.35546875 349.5 c 0
 99.1005859375 448.909179688 147.154296875 533.743164062 227.517578125 604 c 0
 309.493164062 675.666992188 401.216796875 711.5 502.690429688 711.5 c 0
EndSplineSet
EndChar

StartChar: Otilde
Encoding: 213 213 146
GlifName: O_tilde
Width: 780
Flags: W
HStem: -12.5 170<328.418 507.923> 541.5 170<382.927 561.618> 734 106<586.296 640.927> 806 106<444.108 506.009>
LayerCount: 2
Fore
SplineSet
599.75390625 734 m 0xe0
 558.420898438 734 530.322265625 746 515.456054688 770 c 0
 509.6015625 779.333007812 503.920898438 787.666992188 498.416015625 795 c 0
 492.91015625 802.333007812 484.491210938 806 473.158203125 806 c 0
 458.491210938 806 446.098632812 793 435.98046875 767 c 1
 318.98046875 767 l 1
 328.299804688 809 349.124023438 843.666992188 381.453125 871 c 0
 413.782226562 898.333007812 447.946289062 912 483.946289062 912 c 0xd0
 528.61328125 912 559.37890625 900 576.245117188 876 c 0
 582.766601562 866.666992188 588.446289062 858.333007812 593.28515625 851 c 0
 598.124023438 843.666992188 605.54296875 840 615.54296875 840 c 0
 629.54296875 840 640.268554688 853 647.719726562 879 c 1
 764.719726562 879 l 5
 753.294921875 836.333007812 732.278320312 801.5 701.668945312 774.5 c 0
 671.059570312 747.5 637.086914062 734 599.75390625 734 c 0xe0
475.765625 541.5 m 0
 422.782226562 541.5 374.565429688 522.74609375 331.116210938 485.23828125 c 0
 287.666992188 447.729492188 261.747070312 402.483398438 253.35546875 349.5 c 0
 244.963867188 296.516601562 256.55078125 251.270507812 288.118164062 213.76171875 c 0
 319.686523438 176.25390625 361.961914062 157.5 414.9453125 157.5 c 0
 467.928710938 157.5 516.145507812 176.25390625 559.594726562 213.76171875 c 0
 603.04296875 251.270507812 628.963867188 296.516601562 637.35546875 349.5 c 0
 645.747070312 402.483398438 634.159179688 447.729492188 602.592773438 485.23828125 c 0
 571.024414062 522.74609375 528.749023438 541.5 475.765625 541.5 c 0
502.690429688 711.5 m 0
 601.8984375 711.5 681.147460938 677 740.438476562 608 c 0
 801.153320312 537.342773438 823.458984375 451.17578125 807.35546875 349.5 c 0
 791.016601562 246.342773438 740.400390625 159.3203125 655.506835938 88.4326171875 c 0
 574.923828125 21.14453125 485.76171875 -12.5 388.020507812 -12.5 c 0
 286.344726562 -12.5 205.872070312 23.453125 146.603515625 95.359375 c 0
 88.7255859375 165.579101562 67.642578125 250.291992188 83.35546875 349.5 c 0
 99.1005859375 448.909179688 147.154296875 533.743164062 227.517578125 604 c 0
 309.493164062 675.666992188 401.216796875 711.5 502.690429688 711.5 c 0
EndSplineSet
EndChar

StartChar: Odieresis
Encoding: 214 214 147
GlifName: O_dieresis
Width: 780
Flags: W
HStem: -12.5 170<328.418 507.923> 541.5 170<382.927 561.618> 769 176<354.754 447.717 624.754 717.717>
LayerCount: 2
Fore
SplineSet
415.172851562 945 m 4
 439.172851562 945 458.467773438 936.333007812 473.055664062 919 c 4
 487.642578125 901.666992188 493.037109375 881 489.235351562 857 c 4
 485.434570312 833 473.494140625 812.333007812 453.416015625 795 c 4
 433.336914062 777.666992188 411.297851562 769 387.297851562 769 c 4
 363.297851562 769 344.002929688 777.666992188 329.416015625 795 c 4
 314.828125 812.333007812 309.434570312 833 313.235351562 857 c 4
 317.037109375 881 328.9765625 901.666992188 349.055664062 919 c 4
 369.133789062 936.333007812 391.172851562 945 415.172851562 945 c 4
685.172851562 945 m 4
 709.172851562 945 728.467773438 936.333007812 743.055664062 919 c 4
 757.642578125 901.666992188 763.037109375 881 759.235351562 857 c 4
 755.434570312 833 743.494140625 812.333007812 723.416015625 795 c 4
 703.336914062 777.666992188 681.297851562 769 657.297851562 769 c 4
 633.297851562 769 614.002929688 777.666992188 599.416015625 795 c 4
 584.828125 812.333007812 579.434570312 833 583.235351562 857 c 4
 587.037109375 881 598.9765625 901.666992188 619.055664062 919 c 4
 639.133789062 936.333007812 661.172851562 945 685.172851562 945 c 4
475.765625 541.5 m 0
 422.782226562 541.5 374.565429688 522.74609375 331.116210938 485.23828125 c 0
 287.666992188 447.729492188 261.747070312 402.483398438 253.35546875 349.5 c 0
 244.963867188 296.516601562 256.55078125 251.270507812 288.118164062 213.76171875 c 0
 319.686523438 176.25390625 361.961914062 157.5 414.9453125 157.5 c 0
 467.928710938 157.5 516.145507812 176.25390625 559.594726562 213.76171875 c 0
 603.04296875 251.270507812 628.963867188 296.516601562 637.35546875 349.5 c 0
 645.747070312 402.483398438 634.159179688 447.729492188 602.592773438 485.23828125 c 0
 571.024414062 522.74609375 528.749023438 541.5 475.765625 541.5 c 0
502.690429688 711.5 m 0
 601.8984375 711.5 681.147460938 677 740.438476562 608 c 0
 801.153320312 537.342773438 823.458984375 451.17578125 807.35546875 349.5 c 0
 791.016601562 246.342773438 740.400390625 159.3203125 655.506835938 88.4326171875 c 0
 574.923828125 21.14453125 485.76171875 -12.5 388.020507812 -12.5 c 0
 286.344726562 -12.5 205.872070312 23.453125 146.603515625 95.359375 c 0
 88.7255859375 165.579101562 67.642578125 250.291992188 83.35546875 349.5 c 0
 99.1005859375 448.909179688 147.154296875 533.743164062 227.517578125 604 c 0
 309.493164062 675.666992188 401.216796875 711.5 502.690429688 711.5 c 0
EndSplineSet
EndChar

StartChar: multiply
Encoding: 215 215 148
GlifName: multiply
Width: 646
Flags: W
LayerCount: 2
Fore
SplineSet
223.279296875 67.3955078125 m 1
 122.109375 187.604492188 l 1
 249.989257812 298 l 1
 157.079101562 408.395507812 l 1
 296.327148438 528.604492188 l 1
 389.23828125 418.208984375 l 1
 517.118164062 528.604492188 l 1
 618.288085938 408.395507812 l 1
 490.407226562 298 l 1
 583.318359375 187.604492188 l 1
 444.0703125 67.3955078125 l 1
 351.159179688 177.791015625 l 1
 223.279296875 67.3955078125 l 1
EndSplineSet
EndChar

StartChar: Oslash
Encoding: 216 216 149
GlifName: O_slash
Width: 779
Flags: W
HStem: -12.5 170<367.727 507.923> 541.5 170<382.927 522.76>
LayerCount: 2
Fore
SplineSet
475.765625 541.5 m 0
 422.782226562 541.5 374.565429688 522.74609375 331.116210938 485.23828125 c 0
 287.666992188 447.729492188 261.747070312 402.483398438 253.35546875 349.5 c 0
 244.963867188 296.516601562 256.55078125 251.270507812 288.118164062 213.76171875 c 0
 319.686523438 176.25390625 361.961914062 157.5 414.9453125 157.5 c 0
 467.928710938 157.5 516.145507812 176.25390625 559.594726562 213.76171875 c 0
 603.04296875 251.270507812 628.963867188 296.516601562 637.35546875 349.5 c 0
 645.747070312 402.483398438 634.159179688 447.729492188 602.592773438 485.23828125 c 0
 571.024414062 522.74609375 528.749023438 541.5 475.765625 541.5 c 0
502.690429688 711.5 m 0
 601.8984375 711.5 681.147460938 677 740.438476562 608 c 0
 801.153320312 537.342773438 823.458984375 451.17578125 807.35546875 349.5 c 0
 791.016601562 246.342773438 740.400390625 159.3203125 655.506835938 88.4326171875 c 0
 574.923828125 21.14453125 485.76171875 -12.5 388.020507812 -12.5 c 0
 286.344726562 -12.5 205.872070312 23.453125 146.603515625 95.359375 c 0
 88.7255859375 165.579101562 67.642578125 250.291992188 83.35546875 349.5 c 0
 99.1005859375 448.909179688 147.154296875 533.743164062 227.517578125 604 c 0
 309.493164062 675.666992188 401.216796875 711.5 502.690429688 711.5 c 0
241.9453125 -7.6826171875 m 1
 118.134765625 89.826171875 l 1
 647.771484375 706.690429688 l 1
 771.583984375 609.182617188 l 1
 241.9453125 -7.6826171875 l 1
EndSplineSet
EndChar

StartChar: Ugrave
Encoding: 217 217 150
GlifName: U_grave
Width: 706
Flags: W
HStem: -12 170<312.888 449.796> 680 20G<160.701 333.869 590.701 763.869> 754 147<395.422 488.704>
VStem: 163.869 170<530 700> 593.869 170<530 700>
LayerCount: 2
Fore
SplineSet
395.421875 754 m 5
 292.704101562 901 l 5
 488.704101562 901 l 5
 571.421875 754 l 5
 395.421875 754 l 5
163.869140625 700 m 1
 333.869140625 700 l 1
 273.366210938 318 l 2
 265.658203125 269.333007812 272.0078125 230.5 292.4140625 201.5 c 0
 312.821289062 172.5 341.357421875 158 378.024414062 158 c 0
 414.69140625 158 447.821289062 172.5 477.4140625 201.5 c 0
 507.0078125 230.5 525.658203125 269.333007812 533.366210938 318 c 2
 593.869140625 700 l 1
 763.869140625 700 l 1
 703.366210938 318 l 2
 688.161132812 222 646.649414062 143 578.829101562 81 c 0
 511.009765625 19 435.099609375 -12 351.099609375 -12 c 0
 267.099609375 -12 201.009765625 19 152.829101562 81 c 0
 104.649414062 143 88.1611328125 222 103.366210938 318 c 2
 163.869140625 700 l 1
EndSplineSet
EndChar

StartChar: Uacute
Encoding: 218 218 151
GlifName: U_acute
Width: 706
Flags: W
HStem: -12 170<312.888 449.796> 680 20G<160.701 333.869 590.701 763.869>
VStem: 163.869 170<530 700> 593.869 170<530 700>
LayerCount: 2
Fore
SplineSet
380.590820312 723.5 m 5
 509.874023438 870.5 l 5
 705.874023438 870.5 l 5
 556.590820312 723.5 l 5
 380.590820312 723.5 l 5
163.869140625 700 m 1
 333.869140625 700 l 1
 273.366210938 318 l 2
 265.658203125 269.333007812 272.0078125 230.5 292.4140625 201.5 c 0
 312.821289062 172.5 341.357421875 158 378.024414062 158 c 0
 414.69140625 158 447.821289062 172.5 477.4140625 201.5 c 0
 507.0078125 230.5 525.658203125 269.333007812 533.366210938 318 c 2
 593.869140625 700 l 1
 763.869140625 700 l 1
 703.366210938 318 l 2
 688.161132812 222 646.649414062 143 578.829101562 81 c 0
 511.009765625 19 435.099609375 -12 351.099609375 -12 c 0
 267.099609375 -12 201.009765625 19 152.829101562 81 c 0
 104.649414062 143 88.1611328125 222 103.366210938 318 c 2
 163.869140625 700 l 1
EndSplineSet
EndChar

StartChar: Ucircumflex
Encoding: 219 219 152
GlifName: U_circumflex
Width: 706
Flags: W
HStem: -12 170<312.888 449.796> 680 20G<160.701 333.869 590.701 763.869> 754 146<396.1 407.424 505.42 562.992>
VStem: 163.869 170<530 700> 593.869 170<530 700>
LayerCount: 2
Fore
SplineSet
242.66796875 754 m 1
 396.099609375 900 l 1
 562.9921875 900 l 1
 670.17578125 754 l 1
 505.419921875 754 l 1
 464.659179688 806.009765625 l 1
 407.423828125 754 l 1
 242.66796875 754 l 1
163.869140625 700 m 1
 333.869140625 700 l 1
 273.366210938 318 l 2
 265.658203125 269.333007812 272.0078125 230.5 292.4140625 201.5 c 0
 312.821289062 172.5 341.357421875 158 378.024414062 158 c 0
 414.69140625 158 447.821289062 172.5 477.4140625 201.5 c 0
 507.0078125 230.5 525.658203125 269.333007812 533.366210938 318 c 2
 593.869140625 700 l 1
 763.869140625 700 l 1
 703.366210938 318 l 2
 688.161132812 222 646.649414062 143 578.829101562 81 c 0
 511.009765625 19 435.099609375 -12 351.099609375 -12 c 0
 267.099609375 -12 201.009765625 19 152.829101562 81 c 0
 104.649414062 143 88.1611328125 222 103.366210938 318 c 2
 163.869140625 700 l 1
EndSplineSet
EndChar

StartChar: Udieresis
Encoding: 220 220 153
GlifName: U_dieresis
Width: 706
Flags: W
HStem: -12 170<312.888 449.796> 680 20G<160.701 333.869 590.701 763.869> 769 176<307.254 400.217 577.254 670.217>
VStem: 163.869 170<530 700> 593.869 170<530 700>
LayerCount: 2
Fore
SplineSet
367.672851562 945 m 4
 391.672851562 945 410.967773438 936.333007812 425.555664062 919 c 4
 440.142578125 901.666992188 445.537109375 881 441.735351562 857 c 4
 437.934570312 833 425.994140625 812.333007812 405.916015625 795 c 4
 385.836914062 777.666992188 363.797851562 769 339.797851562 769 c 4
 315.797851562 769 296.502929688 777.666992188 281.916015625 795 c 4
 267.328125 812.333007812 261.934570312 833 265.735351562 857 c 4
 269.537109375 881 281.4765625 901.666992188 301.555664062 919 c 4
 321.633789062 936.333007812 343.672851562 945 367.672851562 945 c 4
637.672851562 945 m 4
 661.672851562 945 680.967773438 936.333007812 695.555664062 919 c 4
 710.142578125 901.666992188 715.537109375 881 711.735351562 857 c 4
 707.934570312 833 695.994140625 812.333007812 675.916015625 795 c 4
 655.836914062 777.666992188 633.797851562 769 609.797851562 769 c 4
 585.797851562 769 566.502929688 777.666992188 551.916015625 795 c 4
 537.328125 812.333007812 531.934570312 833 535.735351562 857 c 4
 539.537109375 881 551.4765625 901.666992188 571.555664062 919 c 4
 591.633789062 936.333007812 613.672851562 945 637.672851562 945 c 4
163.869140625 700 m 1
 333.869140625 700 l 1
 273.366210938 318 l 2
 265.658203125 269.333007812 272.0078125 230.5 292.4140625 201.5 c 0
 312.821289062 172.5 341.357421875 158 378.024414062 158 c 0
 414.69140625 158 447.821289062 172.5 477.4140625 201.5 c 0
 507.0078125 230.5 525.658203125 269.333007812 533.366210938 318 c 2
 593.869140625 700 l 1
 763.869140625 700 l 1
 703.366210938 318 l 2
 688.161132812 222 646.649414062 143 578.829101562 81 c 0
 511.009765625 19 435.099609375 -12 351.099609375 -12 c 0
 267.099609375 -12 201.009765625 19 152.829101562 81 c 0
 104.649414062 143 88.1611328125 222 103.366210938 318 c 2
 163.869140625 700 l 1
EndSplineSet
EndChar

StartChar: Yacute
Encoding: 221 221 154
GlifName: Y_acute
Width: 641
Flags: W
HStem: 0 21G<235.5 408.66> 680 20G<119.869 327.167 529.236 742.869>
VStem: 235.5 169.992<0 169.992>
LayerCount: 2
Fore
SplineSet
334.590820312 723.5 m 5
 463.874023438 870.5 l 5
 659.874023438 870.5 l 5
 510.590820312 723.5 l 5
 334.590820312 723.5 l 5
119.869140625 700 m 1
 318.869140625 700 l 1
 400.287109375 503.758789062 l 1
 543.869140625 700 l 1
 742.869140625 700 l 1
 454.317382812 308.267578125 l 5
 405.4921875 0 l 1
 235.5 0 l 1
 284.327148438 308.28125 l 1
 119.869140625 700 l 1
EndSplineSet
EndChar

StartChar: Thorn
Encoding: 222 222 155
GlifName: T_horn
Width: 614
Flags: W
HStem: 1 21G<73.1582 246.326> 111 170<287.506 456.439> 431 170<338.189 473.365> 681 20G<180.86 354.027>
LayerCount: 2
Fore
SplineSet
184.02734375 701 m 1
 354.02734375 701 l 1
 338.189453125 601 l 1
 451.689453125 601 l 2
 519.34375 601 573.301757812 577.080078125 613.564453125 529.241210938 c 0
 653.826171875 481.401367188 668.600585938 423.654296875 657.884765625 356 c 0
 647.169921875 288.345703125 614.103515625 230.598632812 558.6875 182.758789062 c 0
 503.270507812 134.919921875 441.735351562 111 374.081054688 111 c 2
 260.581054688 111 l 1
 243.158203125 1 l 1
 73.158203125 1 l 1
 184.02734375 701 l 1
311.263671875 431 m 1
 287.505859375 281 l 1
 401.005859375 281 l 2
 421.298828125 281 440.047851562 288.426757812 457.254882812 303.280273438 c 0
 474.4609375 318.134765625 484.670898438 335.70703125 487.884765625 356 c 0
 491.098632812 376.29296875 486.455078125 393.865234375 473.954101562 408.719726562 c 0
 461.453125 423.573242188 445.056640625 431 424.763671875 431 c 2
 311.263671875 431 l 1
EndSplineSet
EndChar

StartChar: germandbls
Encoding: 223 223 156
GlifName: germandbls
Width: 566
Flags: W
HStem: 0 21G<48 221.168 277 334.333> 542 170<316.265 419.29>
VStem: 48 170<0 170>
LayerCount: 2
Fore
SplineSet
397.76953125 712 m 0
 464.436523438 712 517.197265625 690.5 556.053710938 647.5 c 0
 594.91015625 604.5 609.48046875 552.333007812 599.766601562 491 c 0
 596.17578125 468.328125 589.5703125 446.661132812 579.950195312 426 c 0
 569.899414062 404.413085938 556.557617188 383.923828125 539.92578125 364.53125 c 1
 553.305664062 346.64453125 562.94921875 327.467773438 568.85546875 307 c 4
 576.50390625 280.497070312 577.885742188 251.830078125 573.002929688 221 c 0
 563.2890625 159.666992188 532.193359375 107.5 479.715820312 64.5 c 0
 427.23828125 21.5 367.666992188 0 301 0 c 2
 277 0 l 1
 303.92578125 170 l 1
 327.92578125 170 l 2
 347.258789062 170 364.049804688 175 378.30078125 185 c 0
 392.551757812 195 400.78515625 207 403.002929688 221 c 0
 405.220703125 235 400.76171875 246.833007812 389.625976562 256.5 c 0
 378.489257812 266.166992188 363.254882812 271 343.921875 271 c 2
 319.921875 271 l 1
 346.84765625 441 l 1
 370.84765625 441 l 2
 384.180664062 441 396.806640625 446 408.723632812 456 c 0
 420.640625 466 427.655273438 477.666992188 429.766601562 491 c 0
 431.984375 505 427.717773438 517 416.96875 527 c 0
 406.219726562 537 390.844726562 542 370.844726562 542 c 0
 351.51171875 542 334.561523438 536 319.993164062 524 c 0
 305.42578125 512 296.927734375 498.333007812 294.5 483 c 2
 218 0 l 1
 48 0 l 1
 124.5 483 l 2
 134.424804688 545.666992188 165.784179688 599.5 218.579101562 644.5 c 0
 271.373046875 689.5 331.102539062 712 397.76953125 712 c 0
EndSplineSet
EndChar

StartChar: agrave
Encoding: 224 224 157
GlifName: agrave
Width: 602
Flags: W
HStem: -12 168<257.863 372.724> 0 21G<406 557.168> 344 168<281.993 400.804> 480 20G<482.025 633.192> 554 147<285.745 379.027>
LayerCount: 2
Fore
SplineSet
285.745117188 554 m 5x08
 183.02734375 701 l 5
 379.02734375 701 l 5
 461.745117188 554 l 5
 285.745117188 554 l 5x08
485.192382812 500 m 1x18
 633.192382812 500 l 1
 554 0 l 1
 406 0 l 1x58
 411.224609375 32.9892578125 l 1
 407.171875 29.900390625 403.041015625 26.9716796875 398.833007812 24.201171875 c 4
 362.171875 0.0673828125 319.59375 -12 271.099609375 -12 c 0
 199.766601562 -12 144.278320312 13.3330078125 104.63671875 64 c 0
 64.994140625 114.666992188 50.9814453125 176.666992188 62.595703125 250 c 0
 74.2109375 323.333007812 107.86328125 385.333007812 163.555664062 436 c 0
 219.247070312 486.666992188 282.759765625 512 354.092773438 512 c 0xa8
 401.934570312 512 440.752929688 498.225585938 470.547851562 470.676757812 c 0
 473.514648438 467.93359375 476.391601562 465.053710938 479.1796875 462.037109375 c 1
 485.192382812 500 l 1x18
344.484375 344 m 0xa8
 318.484375 344 294.865234375 334.833007812 273.62890625 316.5 c 0
 252.391601562 298.166992188 239.713867188 276 235.595703125 250 c 0
 231.478515625 224 237.133789062 201.833007812 252.563476562 183.5 c 0
 267.993164062 165.166992188 288.708007812 156 314.708007812 156 c 0
 340.708007812 156 364.327148438 165.166992188 385.563476562 183.5 c 0
 406.799804688 201.833007812 419.478515625 224 423.595703125 250 c 0
 427.713867188 276 422.057617188 298.166992188 406.62890625 316.5 c 0
 391.19921875 334.833007812 370.484375 344 344.484375 344 c 0xa8
EndSplineSet
EndChar

StartChar: aacute
Encoding: 225 225 158
GlifName: aacute
Width: 602
Flags: W
HStem: -12 168<257.863 372.724> 0 21G<406 557.168> 344 168<281.993 400.804> 480 20G<482.025 633.192> 680.5 20G<379.359 592.948>
LayerCount: 2
Fore
SplineSet
267.666015625 553.5 m 5x08
 396.948242188 700.5 l 5
 592.948242188 700.5 l 5
 443.666015625 553.5 l 5
 267.666015625 553.5 l 5x08
485.192382812 500 m 1x18
 633.192382812 500 l 1
 554 0 l 1
 406 0 l 1x58
 411.224609375 32.9892578125 l 1
 407.171875 29.900390625 403.041015625 26.9716796875 398.833007812 24.201171875 c 4
 362.171875 0.0673828125 319.59375 -12 271.099609375 -12 c 0
 199.766601562 -12 144.278320312 13.3330078125 104.63671875 64 c 0
 64.994140625 114.666992188 50.9814453125 176.666992188 62.595703125 250 c 0
 74.2109375 323.333007812 107.86328125 385.333007812 163.555664062 436 c 0
 219.247070312 486.666992188 282.759765625 512 354.092773438 512 c 0xa8
 401.934570312 512 440.752929688 498.225585938 470.547851562 470.676757812 c 0
 473.514648438 467.93359375 476.391601562 465.053710938 479.1796875 462.037109375 c 1
 485.192382812 500 l 1x18
344.484375 344 m 0xa8
 318.484375 344 294.865234375 334.833007812 273.62890625 316.5 c 0
 252.391601562 298.166992188 239.713867188 276 235.595703125 250 c 0
 231.478515625 224 237.133789062 201.833007812 252.563476562 183.5 c 0
 267.993164062 165.166992188 288.708007812 156 314.708007812 156 c 0
 340.708007812 156 364.327148438 165.166992188 385.563476562 183.5 c 0
 406.799804688 201.833007812 419.478515625 224 423.595703125 250 c 0
 427.713867188 276 422.057617188 298.166992188 406.62890625 316.5 c 0
 391.19921875 334.833007812 370.484375 344 344.484375 344 c 0xa8
EndSplineSet
EndChar

StartChar: acircumflex
Encoding: 226 226 159
GlifName: acircumflex
Width: 602
Flags: W
HStem: -12 168<257.863 372.724> 0 21G<406 557.168> 344 168<281.993 400.804> 480 20G<482.025 633.192> 554 146<319.423 330.747 428.743 486.315>
LayerCount: 2
Fore
SplineSet
165.991210938 554 m 1x08
 319.422851562 700 l 1
 486.315429688 700 l 1
 593.499023438 554 l 1
 428.743164062 554 l 1
 387.982421875 606.009765625 l 1
 330.747070312 554 l 1
 165.991210938 554 l 1x08
485.192382812 500 m 1x18
 633.192382812 500 l 1
 554 0 l 1
 406 0 l 1x58
 411.224609375 32.9892578125 l 1
 407.171875 29.900390625 403.041015625 26.9716796875 398.833007812 24.201171875 c 4
 362.171875 0.0673828125 319.59375 -12 271.099609375 -12 c 0
 199.766601562 -12 144.278320312 13.3330078125 104.63671875 64 c 0
 64.994140625 114.666992188 50.9814453125 176.666992188 62.595703125 250 c 0
 74.2109375 323.333007812 107.86328125 385.333007812 163.555664062 436 c 0
 219.247070312 486.666992188 282.759765625 512 354.092773438 512 c 0xa8
 401.934570312 512 440.752929688 498.225585938 470.547851562 470.676757812 c 0
 473.514648438 467.93359375 476.391601562 465.053710938 479.1796875 462.037109375 c 1
 485.192382812 500 l 1x18
344.484375 344 m 0xa8
 318.484375 344 294.865234375 334.833007812 273.62890625 316.5 c 0
 252.391601562 298.166992188 239.713867188 276 235.595703125 250 c 0
 231.478515625 224 237.133789062 201.833007812 252.563476562 183.5 c 0
 267.993164062 165.166992188 288.708007812 156 314.708007812 156 c 0
 340.708007812 156 364.327148438 165.166992188 385.563476562 183.5 c 0
 406.799804688 201.833007812 419.478515625 224 423.595703125 250 c 0
 427.713867188 276 422.057617188 298.166992188 406.62890625 316.5 c 0
 391.19921875 334.833007812 370.484375 344 344.484375 344 c 0xa8
EndSplineSet
EndChar

StartChar: atilde
Encoding: 227 227 160
GlifName: atilde
Width: 602
Flags: W
HStem: -12 168<257.863 372.724> 0 21G<406 557.168> 344 168<281.993 400.804> 480 20G<482.025 633.192> 534 106<447.12 501.75> 606 106<304.931 366.833>
LayerCount: 2
Fore
SplineSet
460.577148438 534 m 0x08
 419.244140625 534 391.14453125 546 376.279296875 570 c 0
 370.424804688 579.333007812 364.744140625 587.666992188 359.23828125 595 c 0
 353.733398438 602.333007812 345.314453125 606 333.981445312 606 c 0
 319.314453125 606 306.921875 593 296.803710938 567 c 1
 179.803710938 567 l 1
 189.123046875 609 209.947265625 643.666992188 242.276367188 671 c 0
 274.60546875 698.333007812 308.76953125 712 344.76953125 712 c 0x04
 389.436523438 712 420.202148438 700 437.068359375 676 c 0
 443.58984375 666.666992188 449.26953125 658.333007812 454.108398438 651 c 0
 458.947265625 643.666992188 466.366210938 640 476.366210938 640 c 0
 490.366210938 640 501.091796875 653 508.54296875 679 c 1
 625.54296875 679 l 5
 614.118164062 636.333007812 593.1015625 601.5 562.4921875 574.5 c 0
 531.8828125 547.5 497.91015625 534 460.577148438 534 c 0x08
485.192382812 500 m 1x10
 633.192382812 500 l 1
 554 0 l 1
 406 0 l 1x50
 411.224609375 32.9892578125 l 1
 407.171875 29.900390625 403.041015625 26.9716796875 398.833007812 24.201171875 c 4
 362.171875 0.0673828125 319.59375 -12 271.099609375 -12 c 0
 199.766601562 -12 144.278320312 13.3330078125 104.63671875 64 c 0
 64.994140625 114.666992188 50.9814453125 176.666992188 62.595703125 250 c 0
 74.2109375 323.333007812 107.86328125 385.333007812 163.555664062 436 c 0
 219.247070312 486.666992188 282.759765625 512 354.092773438 512 c 0xa0
 401.934570312 512 440.752929688 498.225585938 470.547851562 470.676757812 c 0
 473.514648438 467.93359375 476.391601562 465.053710938 479.1796875 462.037109375 c 1
 485.192382812 500 l 1x10
344.484375 344 m 0xa0
 318.484375 344 294.865234375 334.833007812 273.62890625 316.5 c 0
 252.391601562 298.166992188 239.713867188 276 235.595703125 250 c 0
 231.478515625 224 237.133789062 201.833007812 252.563476562 183.5 c 0
 267.993164062 165.166992188 288.708007812 156 314.708007812 156 c 0
 340.708007812 156 364.327148438 165.166992188 385.563476562 183.5 c 0
 406.799804688 201.833007812 419.478515625 224 423.595703125 250 c 0
 427.713867188 276 422.057617188 298.166992188 406.62890625 316.5 c 0
 391.19921875 334.833007812 370.484375 344 344.484375 344 c 0xa0
EndSplineSet
EndChar

StartChar: adieresis
Encoding: 228 228 161
GlifName: adieresis
Width: 602
Flags: W
HStem: -12 168<257.863 372.724> 0 21G<406 557.168> 344 168<281.993 400.804> 480 20G<482.025 633.192> 569 176<212.577 305.54 482.577 575.54>
LayerCount: 2
Fore
SplineSet
272.99609375 745 m 4x08
 296.99609375 745 316.291015625 736.333007812 330.877929688 719 c 4
 345.465820312 701.666992188 350.859375 681 347.05859375 657 c 4
 343.2578125 633 331.317382812 612.333007812 311.23828125 595 c 4
 291.16015625 577.666992188 269.12109375 569 245.12109375 569 c 4
 221.12109375 569 201.826171875 577.666992188 187.23828125 595 c 4
 172.651367188 612.333007812 167.2578125 633 171.05859375 657 c 4
 174.859375 681 186.799804688 701.666992188 206.877929688 719 c 4
 226.95703125 736.333007812 248.99609375 745 272.99609375 745 c 4x08
542.99609375 745 m 4
 566.99609375 745 586.291015625 736.333007812 600.877929688 719 c 4
 615.465820312 701.666992188 620.859375 681 617.05859375 657 c 4
 613.2578125 633 601.317382812 612.333007812 581.23828125 595 c 4
 561.16015625 577.666992188 539.12109375 569 515.12109375 569 c 4
 491.12109375 569 471.826171875 577.666992188 457.23828125 595 c 4
 442.651367188 612.333007812 437.2578125 633 441.05859375 657 c 4
 444.859375 681 456.799804688 701.666992188 476.877929688 719 c 4
 496.95703125 736.333007812 518.99609375 745 542.99609375 745 c 4
485.192382812 500 m 1x18
 633.192382812 500 l 1
 554 0 l 1
 406 0 l 1x58
 411.224609375 32.9892578125 l 1
 407.171875 29.900390625 403.041015625 26.9716796875 398.833007812 24.201171875 c 4
 362.171875 0.0673828125 319.59375 -12 271.099609375 -12 c 0
 199.766601562 -12 144.278320312 13.3330078125 104.63671875 64 c 0
 64.994140625 114.666992188 50.9814453125 176.666992188 62.595703125 250 c 0
 74.2109375 323.333007812 107.86328125 385.333007812 163.555664062 436 c 0
 219.247070312 486.666992188 282.759765625 512 354.092773438 512 c 0xa8
 401.934570312 512 440.752929688 498.225585938 470.547851562 470.676757812 c 0
 473.514648438 467.93359375 476.391601562 465.053710938 479.1796875 462.037109375 c 1
 485.192382812 500 l 1x18
344.484375 344 m 0xa8
 318.484375 344 294.865234375 334.833007812 273.62890625 316.5 c 0
 252.391601562 298.166992188 239.713867188 276 235.595703125 250 c 0
 231.478515625 224 237.133789062 201.833007812 252.563476562 183.5 c 0
 267.993164062 165.166992188 288.708007812 156 314.708007812 156 c 0
 340.708007812 156 364.327148438 165.166992188 385.563476562 183.5 c 0
 406.799804688 201.833007812 419.478515625 224 423.595703125 250 c 0
 427.713867188 276 422.057617188 298.166992188 406.62890625 316.5 c 0
 391.19921875 334.833007812 370.484375 344 344.484375 344 c 0xa8
EndSplineSet
EndChar

StartChar: aring
Encoding: 229 229 162
GlifName: aring
Width: 602
Flags: W
HStem: -12 168<257.863 372.724> 0 21G<406 557.168> 344 168<281.993 400.804> 480 20G<482.025 633.192> 520 97.1309<357.753 415.183> 681.869 97.1309<358.558 415.988>
LayerCount: 2
Fore
SplineSet
407.381835938 779 m 0x0c
 443.118164062 779 471.631835938 766.350585938 492.923828125 741.052734375 c 0
 514.21484375 715.75390625 522.03125 685.236328125 516.37109375 649.5 c 0
 510.7109375 613.763671875 493.227539062 583.24609375 463.922851562 557.947265625 c 0
 434.6171875 532.649414062 402.096679688 520 366.360351562 520 c 0
 330.624023438 520 302.109375 532.649414062 280.817382812 557.947265625 c 0
 259.526367188 583.24609375 251.7109375 613.763671875 257.37109375 649.5 c 0
 263.03125 685.236328125 280.513671875 715.75390625 309.818359375 741.052734375 c 0
 339.124023438 766.350585938 371.645507812 779 407.381835938 779 c 0x0c
391.997070312 681.869140625 m 0
 383.064453125 681.869140625 374.936523438 678.70703125 367.611328125 672.383789062 c 0
 360.286132812 666.060546875 355.916015625 658.432617188 354.501953125 649.5 c 0
 353.086914062 640.567382812 355.041015625 632.939453125 360.362304688 626.616210938 c 0
 365.684570312 620.29296875 372.811523438 617.130859375 381.744140625 617.130859375 c 0
 390.676757812 617.130859375 398.805664062 620.29296875 406.129882812 626.616210938 c 0
 413.455078125 632.939453125 417.825195312 640.567382812 419.240234375 649.5 c 0
 420.654296875 658.432617188 418.700195312 666.060546875 413.37890625 672.383789062 c 0
 408.057617188 678.70703125 400.9296875 681.869140625 391.997070312 681.869140625 c 0
485.192382812 500 m 1x1c
 633.192382812 500 l 1
 554 0 l 1
 406 0 l 1x5c
 411.224609375 32.9892578125 l 1
 407.171875 29.900390625 403.041015625 26.9716796875 398.833007812 24.201171875 c 4
 362.171875 0.0673828125 319.59375 -12 271.099609375 -12 c 0
 199.766601562 -12 144.278320312 13.3330078125 104.63671875 64 c 0
 64.994140625 114.666992188 50.9814453125 176.666992188 62.595703125 250 c 0
 74.2109375 323.333007812 107.86328125 385.333007812 163.555664062 436 c 0
 219.247070312 486.666992188 282.759765625 512 354.092773438 512 c 0xac
 401.934570312 512 440.752929688 498.225585938 470.547851562 470.676757812 c 0
 473.514648438 467.93359375 476.391601562 465.053710938 479.1796875 462.037109375 c 1
 485.192382812 500 l 1x1c
344.484375 344 m 0xac
 318.484375 344 294.865234375 334.833007812 273.62890625 316.5 c 0
 252.391601562 298.166992188 239.713867188 276 235.595703125 250 c 0
 231.478515625 224 237.133789062 201.833007812 252.563476562 183.5 c 0
 267.993164062 165.166992188 288.708007812 156 314.708007812 156 c 0
 340.708007812 156 364.327148438 165.166992188 385.563476562 183.5 c 0
 406.799804688 201.833007812 419.478515625 224 423.595703125 250 c 0
 427.713867188 276 422.057617188 298.166992188 406.62890625 316.5 c 0
 391.19921875 334.833007812 370.484375 344 344.484375 344 c 0xac
EndSplineSet
EndChar

StartChar: ae
Encoding: 230 230 163
GlifName: ae
Width: 1122
Flags: W
HStem: -12 168<257.863 372.724> -12 136<813.826 960.076> 0 21G<406 557.168> 180.354 119.646<807.123 961.434> 344 168<281.993 400.804> 356 156<834.435 941.128> 480 20G<482.025 633.192>
LayerCount: 2
Fore
SplineSet
1113.96582031 180.353515625 m 5x54
 792.297851562 180.353515625 l 5
 796.709960938 166.025390625 805.123046875 153.05078125 817.537109375 141.430664062 c 4
 829.951171875 129.810546875 846.452148438 124 867.040039062 124 c 4
 910.189453125 124 929.029296875 132.180664062 965.35546875 147.955078125 c 5
 1034.12109375 43.728515625 l 5
 966.515625 1.1171875 913.436523438 -12 845.5 -12 c 4
 770.166015625 -12 709.3984375 13.6669921875 663.1953125 65 c 4
 616.9921875 116.333007812 599.592773438 178 610.99609375 250 c 4
 622.505859375 322.666992188 657.798828125 384.5 716.876953125 435.5 c 4
 775.954101562 486.5 841.826171875 512 914.493164062 512 c 4
 983.826171875 512 1039.09375 486.333007812 1080.29785156 435 c 4
 1121.5 383.666992188 1136.08300781 320 1124.04589844 244 c 6
 1113.96582031 180.353515625 l 5x54
893.78515625 356 m 4
 875.211914062 356 858.848632812 351.604492188 844.696289062 342.8125 c 4
 829.684570312 333.487304688 817.16015625 319.216796875 807.123046875 300 c 5
 961.43359375 300 l 5
 957.377929688 319.724609375 949.170898438 334.239257812 936.8125 343.541992188 c 4
 925.779296875 351.84765625 911.436523438 356 893.78515625 356 c 4
485.192382812 500 m 1x12
 633.192382812 500 l 1
 554 0 l 1
 406 0 l 1x32
 411.224609375 32.9892578125 l 1
 407.171875 29.900390625 403.041015625 26.9716796875 398.833007812 24.201171875 c 0
 362.171875 0.0673828125 319.59375 -12 271.099609375 -12 c 0
 199.766601562 -12 144.278320312 13.3330078125 104.63671875 64 c 0
 64.994140625 114.666992188 50.9814453125 176.666992188 62.595703125 250 c 0
 74.2109375 323.333007812 107.86328125 385.333007812 163.555664062 436 c 0
 219.247070312 486.666992188 282.759765625 512 354.092773438 512 c 0x98
 401.934570312 512 440.752929688 498.225585938 470.547851562 470.676757812 c 0
 473.514648438 467.93359375 476.391601562 465.053710938 479.1796875 462.037109375 c 1
 485.192382812 500 l 1x12
344.484375 344 m 0x98
 318.484375 344 294.865234375 334.833007812 273.62890625 316.5 c 0
 252.391601562 298.166992188 239.713867188 276 235.595703125 250 c 0
 231.478515625 224 237.133789062 201.833007812 252.563476562 183.5 c 0
 267.993164062 165.166992188 288.708007812 156 314.708007812 156 c 0
 340.708007812 156 364.327148438 165.166992188 385.563476562 183.5 c 0
 406.799804688 201.833007812 419.478515625 224 423.595703125 250 c 0
 427.713867188 276 422.057617188 298.166992188 406.62890625 316.5 c 0
 391.19921875 334.833007812 370.484375 344 344.484375 344 c 0x98
EndSplineSet
EndChar

StartChar: ccedilla
Encoding: 231 231 164
GlifName: ccedilla
Width: 482
Flags: W
HStem: -211 120<190.964 278.283> -12 21G<246.504 319.012> 342 170<277.021 424.853>
LayerCount: 2
Fore
SplineSet
367.940429688 81.66015625 m 1
 403.024414062 48.6533203125 416.440429688 6.099609375 408.189453125 -46 c 0
 401.009765625 -91.3330078125 378.692382812 -130.166992188 341.23828125 -162.5 c 0
 303.784179688 -194.833007812 262.389648438 -211 217.056640625 -211 c 0
 179.341796875 -210.854492188 147.477539062 -199.141601562 121.463867188 -175.859375 c 1
 177.853515625 -110.1796875 206.046875 -77.3427734375 206.04296875 -77.349609375 c 4
 213.416015625 -86.4208984375 223.421875 -90.9716796875 236.0625 -91 c 0
 248.729492188 -91 260.08203125 -86.6669921875 270.122070312 -78 c 0
 280.161132812 -69.3330078125 286.18359375 -58.6669921875 288.189453125 -46 c 0
 289.983398438 -34.6064453125 287.770507812 -24.6689453125 281.549804688 -16.189453125 c 0
 275.330078125 -7.7099609375 266.751953125 -2.775390625 255.814453125 -1.38671875 c 1
 367.940429688 81.66015625 l 1
365.831054688 512 m 0
 438.1796875 512 495.881835938 486.420898438 538.938476562 435.26171875 c 1
 399.692382812 315.0546875 l 1
 384.57421875 333.018554688 364.311523438 342 338.905273438 342 c 0
 313.572265625 342 290.48046875 333 269.62890625 315 c 0
 248.778320312 297 236.346679688 275.333007812 232.333984375 250 c 0
 228.322265625 224.666992188 233.890625 203 249.0390625 185 c 0
 264.188476562 167 284.4296875 158 309.762695312 158 c 0
 335.168945312 158 358.276367188 166.981445312 379.084960938 184.9453125 c 1
 480.25390625 64.73828125 l 1
 420.991210938 13.5791015625 355.186523438 -12 282.837890625 -12 c 0
 210.170898438 -12 152.376953125 13.5 109.454101562 64.5 c 0
 66.53125 115.5 50.8251953125 177.333007812 62.333984375 250 c 0
 73.84375 322.666992188 109.13671875 384.5 168.21484375 435.5 c 0
 227.291992188 486.5 293.1640625 512 365.831054688 512 c 0
EndSplineSet
EndChar

StartChar: egrave
Encoding: 232 232 165
GlifName: egrave
Width: 550
Flags: W
HStem: -12 136<266.826 413.076> 180.354 119.646<260.123 414.434> 356 156<287.435 394.128> 554 147<300.745 394.027>
LayerCount: 2
Fore
SplineSet
566.965820312 180.353515625 m 5
 245.297851562 180.353515625 l 5
 249.709960938 166.025390625 258.123046875 153.05078125 270.537109375 141.430664062 c 4
 282.951171875 129.810546875 299.452148438 124 320.040039062 124 c 4
 363.189453125 124 382.029296875 132.180664062 418.35546875 147.955078125 c 5
 487.12109375 43.728515625 l 5
 419.515625 1.1171875 366.436523438 -12 298.5 -12 c 4
 223.166015625 -12 162.3984375 13.6669921875 116.1953125 65 c 4
 69.9921875 116.333007812 52.5927734375 178 63.99609375 250 c 4
 75.505859375 322.666992188 110.798828125 384.5 169.876953125 435.5 c 4
 228.954101562 486.5 294.826171875 512 367.493164062 512 c 4
 436.826171875 512 492.09375 486.333007812 533.297851562 435 c 4
 574.5 383.666992188 589.083007812 320 577.045898438 244 c 6
 566.965820312 180.353515625 l 5
346.78515625 356 m 4
 328.211914062 356 311.848632812 351.604492188 297.696289062 342.8125 c 4
 282.684570312 333.487304688 270.16015625 319.216796875 260.123046875 300 c 5
 414.43359375 300 l 5
 410.377929688 319.724609375 402.170898438 334.239257812 389.8125 343.541992188 c 4
 378.779296875 351.84765625 364.436523438 356 346.78515625 356 c 4
300.745117188 554 m 1
 198.02734375 701 l 1
 394.02734375 701 l 1
 476.745117188 554 l 1
 300.745117188 554 l 1
EndSplineSet
EndChar

StartChar: eacute
Encoding: 233 233 166
GlifName: eacute
Width: 550
Flags: W
HStem: -12 136<266.826 413.076> 180.354 119.646<260.123 414.434> 356 156<287.435 394.128> 680.5 20G<395.359 608.948>
LayerCount: 2
Fore
SplineSet
566.965820312 180.353515625 m 5
 245.297851562 180.353515625 l 5
 249.709960938 166.025390625 258.123046875 153.05078125 270.537109375 141.430664062 c 4
 282.951171875 129.810546875 299.452148438 124 320.040039062 124 c 4
 363.189453125 124 382.029296875 132.180664062 418.35546875 147.955078125 c 5
 487.12109375 43.728515625 l 5
 419.515625 1.1171875 366.436523438 -12 298.5 -12 c 4
 223.166015625 -12 162.3984375 13.6669921875 116.1953125 65 c 4
 69.9921875 116.333007812 52.5927734375 178 63.99609375 250 c 4
 75.505859375 322.666992188 110.798828125 384.5 169.876953125 435.5 c 4
 228.954101562 486.5 294.826171875 512 367.493164062 512 c 4
 436.826171875 512 492.09375 486.333007812 533.297851562 435 c 4
 574.5 383.666992188 589.083007812 320 577.045898438 244 c 6
 566.965820312 180.353515625 l 5
346.78515625 356 m 4
 328.211914062 356 311.848632812 351.604492188 297.696289062 342.8125 c 4
 282.684570312 333.487304688 270.16015625 319.216796875 260.123046875 300 c 5
 414.43359375 300 l 5
 410.377929688 319.724609375 402.170898438 334.239257812 389.8125 343.541992188 c 4
 378.779296875 351.84765625 364.436523438 356 346.78515625 356 c 4
283.666015625 553.5 m 1
 412.948242188 700.5 l 1
 608.948242188 700.5 l 1
 459.666015625 553.5 l 1
 283.666015625 553.5 l 1
EndSplineSet
EndChar

StartChar: ecircumflex
Encoding: 234 234 167
GlifName: ecircumflex
Width: 550
Flags: W
HStem: -12 136<266.826 413.076> 180.354 119.646<260.123 414.434> 356 156<287.435 394.128> 554 146<309.423 320.747 418.743 476.315>
LayerCount: 2
Fore
SplineSet
566.965820312 180.353515625 m 5
 245.297851562 180.353515625 l 5
 249.709960938 166.025390625 258.123046875 153.05078125 270.537109375 141.430664062 c 4
 282.951171875 129.810546875 299.452148438 124 320.040039062 124 c 4
 363.189453125 124 382.029296875 132.180664062 418.35546875 147.955078125 c 5
 487.12109375 43.728515625 l 5
 419.515625 1.1171875 366.436523438 -12 298.5 -12 c 4
 223.166015625 -12 162.3984375 13.6669921875 116.1953125 65 c 4
 69.9921875 116.333007812 52.5927734375 178 63.99609375 250 c 4
 75.505859375 322.666992188 110.798828125 384.5 169.876953125 435.5 c 4
 228.954101562 486.5 294.826171875 512 367.493164062 512 c 4
 436.826171875 512 492.09375 486.333007812 533.297851562 435 c 4
 574.5 383.666992188 589.083007812 320 577.045898438 244 c 6
 566.965820312 180.353515625 l 5
346.78515625 356 m 4
 328.211914062 356 311.848632812 351.604492188 297.696289062 342.8125 c 4
 282.684570312 333.487304688 270.16015625 319.216796875 260.123046875 300 c 5
 414.43359375 300 l 5
 410.377929688 319.724609375 402.170898438 334.239257812 389.8125 343.541992188 c 4
 378.779296875 351.84765625 364.436523438 356 346.78515625 356 c 4
155.991210938 554 m 1
 309.422851562 700 l 1
 476.315429688 700 l 1
 583.499023438 554 l 1
 418.743164062 554 l 1
 377.982421875 606.009765625 l 1
 320.747070312 554 l 1
 155.991210938 554 l 1
EndSplineSet
EndChar

